<svg width="360" height="429" viewBox="0 0 360 429" fill="none" xmlns="http://www.w3.org/2000/svg">
<path opacity="0.2" d="M49 77L49 344" stroke="#0094D3" stroke-width="0.5" stroke-miterlimit="10"/>
<path opacity="0.2" d="M83.7143 77L83.7143 344" stroke="#0094D3" stroke-width="0.5" stroke-miterlimit="10"/>
<path opacity="0.2" d="M118.429 77L118.429 344" stroke="#0094D3" stroke-width="0.5" stroke-miterlimit="10"/>
<path opacity="0.2" d="M153.143 77L153.143 344" stroke="#0094D3" stroke-width="0.5" stroke-miterlimit="10"/>
<path opacity="0.2" d="M187.857 77L187.857 344" stroke="#0094D3" stroke-width="0.5" stroke-miterlimit="10"/>
<path opacity="0.2" d="M222.571 77L222.571 344" stroke="#0094D3" stroke-width="0.5" stroke-miterlimit="10"/>
<path opacity="0.2" d="M257.286 77L257.286 344" stroke="#0094D3" stroke-width="0.5" stroke-miterlimit="10"/>
<path opacity="0.2" d="M292 77L292 344" stroke="#0094D3" stroke-width="0.5" stroke-miterlimit="10"/>
<path d="M83.7143 338V344" stroke="#0094D3" stroke-width="0.5" stroke-miterlimit="10"/>
<path d="M118.429 338V344" stroke="#0094D3" stroke-width="0.5" stroke-miterlimit="10"/>
<path d="M153.143 338V344" stroke="#0094D3" stroke-width="0.5" stroke-miterlimit="10"/>
<path d="M187.857 338V344" stroke="#0094D3" stroke-width="0.5" stroke-miterlimit="10"/>
<path d="M222.571 338V344" stroke="#0094D3" stroke-width="0.5" stroke-miterlimit="10"/>
<path d="M257.286 338V344" stroke="#0094D3" stroke-width="0.5" stroke-miterlimit="10"/>
<path d="M292 338V344" stroke="#0094D3" stroke-width="0.5" stroke-miterlimit="10"/>
<path d="M289 81H295" stroke="#0094D3" stroke-width="0.5" stroke-miterlimit="10"/>
<path d="M289 146H295" stroke="#0094D3" stroke-width="0.5" stroke-miterlimit="10"/>
<path d="M289 211H295" stroke="#0094D3" stroke-width="0.5" stroke-miterlimit="10"/>
<path d="M289 276H295" stroke="#0094D3" stroke-width="0.5" stroke-miterlimit="10"/>
<path d="M289 341H295" stroke="#0094D3" stroke-width="0.5" stroke-miterlimit="10"/>
<path opacity="0.2" d="M43 341L295 341" stroke="#0094D3" stroke-width="0.5" stroke-miterlimit="10"/>
<path opacity="0.2" d="M45 276L295 276" stroke="#0094D3" stroke-width="0.5" stroke-miterlimit="10"/>
<path opacity="0.2" d="M45 211L295 211" stroke="#0094D3" stroke-width="0.5" stroke-miterlimit="10"/>
<path opacity="0.2" d="M45 146L295 146" stroke="#0094D3" stroke-width="0.5" stroke-miterlimit="10"/>
<path opacity="0.2" d="M45 81L295 81" stroke="#0094D3" stroke-width="0.5" stroke-miterlimit="10"/>
<path d="M307.1 84.06C305.52 84.06 304.54 82.8 304.54 80.66V80.34C304.54 78.22 305.52 76.94 307.1 76.94C308.68 76.94 309.66 78.22 309.66 80.34V80.66C309.66 82.8 308.68 84.06 307.1 84.06ZM305.69 81.47L308.25 78.61C308 78.12 307.61 77.86 307.1 77.86C306.15 77.86 305.63 78.76 305.63 80.38V80.62C305.63 80.93 305.65 81.21 305.69 81.47ZM307.1 83.13C308.05 83.13 308.57 82.24 308.57 80.62V80.38C308.57 80.07 308.55 79.78 308.51 79.52L305.96 82.39C306.21 82.88 306.59 83.13 307.1 83.13ZM313.101 84.05C312.661 84.05 312.331 83.74 312.331 83.3C312.331 82.86 312.661 82.55 313.101 82.55C313.541 82.55 313.871 82.86 313.871 83.3C313.871 83.74 313.541 84.05 313.101 84.05ZM316.672 84V83.11L319.282 80.82C319.902 80.28 320.332 79.79 320.332 79.13C320.332 78.33 319.822 77.89 319.072 77.89C318.312 77.89 317.792 78.43 317.792 79.3V79.42H316.682V79.24C316.682 77.91 317.612 76.94 319.072 76.94C320.592 76.94 321.462 77.8 321.462 79.08C321.462 80.1 320.862 80.76 320.032 81.48L318.252 83.03H321.502V84H316.672ZM325.104 84.06C323.524 84.06 322.544 82.8 322.544 80.66V80.34C322.544 78.22 323.524 76.94 325.104 76.94C326.684 76.94 327.664 78.22 327.664 80.34V80.66C327.664 82.8 326.684 84.06 325.104 84.06ZM323.694 81.47L326.254 78.61C326.004 78.12 325.614 77.86 325.104 77.86C324.154 77.86 323.634 78.76 323.634 80.38V80.62C323.634 80.93 323.654 81.21 323.694 81.47ZM325.104 83.13C326.054 83.13 326.574 82.24 326.574 80.62V80.38C326.574 80.07 326.554 79.78 326.514 79.52L323.964 82.39C324.214 82.88 324.594 83.13 325.104 83.13Z" fill="#0094D3"/>
<path d="M307.1 149.06C305.52 149.06 304.54 147.8 304.54 145.66V145.34C304.54 143.22 305.52 141.94 307.1 141.94C308.68 141.94 309.66 143.22 309.66 145.34V145.66C309.66 147.8 308.68 149.06 307.1 149.06ZM305.69 146.47L308.25 143.61C308 143.12 307.61 142.86 307.1 142.86C306.15 142.86 305.63 143.76 305.63 145.38V145.62C305.63 145.93 305.65 146.21 305.69 146.47ZM307.1 148.13C308.05 148.13 308.57 147.24 308.57 145.62V145.38C308.57 145.07 308.55 144.78 308.51 144.52L305.96 147.39C306.21 147.88 306.59 148.13 307.1 148.13ZM313.101 149.05C312.661 149.05 312.331 148.74 312.331 148.3C312.331 147.86 312.661 147.55 313.101 147.55C313.541 147.55 313.871 147.86 313.871 148.3C313.871 148.74 313.541 149.05 313.101 149.05ZM316.962 149V148.03H318.722V144.29C318.622 144.34 318.502 144.36 318.362 144.36H316.982V143.42H318.242C318.572 143.42 318.732 143.13 318.732 142.77V142H319.822V148.03H321.492V149H316.962ZM325.164 149.05C323.614 149.05 322.704 148.04 322.634 146.79H323.734C323.804 147.52 324.314 148.12 325.164 148.12C325.854 148.12 326.514 147.62 326.514 146.65C326.514 145.8 325.994 145.19 325.174 145.19C324.784 145.19 324.084 145.33 323.824 146.05L322.754 146.03L322.964 142H327.224V142.97H323.984L323.864 144.86C324.234 144.45 324.754 144.28 325.364 144.28C326.714 144.28 327.634 145.24 327.634 146.65C327.634 148.22 326.494 149.05 325.164 149.05Z" fill="#0094D3"/>
<path d="M307.1 214.06C305.52 214.06 304.54 212.8 304.54 210.66V210.34C304.54 208.22 305.52 206.94 307.1 206.94C308.68 206.94 309.66 208.22 309.66 210.34V210.66C309.66 212.8 308.68 214.06 307.1 214.06ZM305.69 211.47L308.25 208.61C308 208.12 307.61 207.86 307.1 207.86C306.15 207.86 305.63 208.76 305.63 210.38V210.62C305.63 210.93 305.65 211.21 305.69 211.47ZM307.1 213.13C308.05 213.13 308.57 212.24 308.57 210.62V210.38C308.57 210.07 308.55 209.78 308.51 209.52L305.96 212.39C306.21 212.88 306.59 213.13 307.1 213.13ZM313.101 214.05C312.661 214.05 312.331 213.74 312.331 213.3C312.331 212.86 312.661 212.55 313.101 212.55C313.541 212.55 313.871 212.86 313.871 213.3C313.871 213.74 313.541 214.05 313.101 214.05ZM316.962 214V213.03H318.722V209.29C318.622 209.34 318.502 209.36 318.362 209.36H316.982V208.42H318.242C318.572 208.42 318.732 208.13 318.732 207.77V207H319.822V213.03H321.492V214H316.962ZM325.104 214.06C323.524 214.06 322.544 212.8 322.544 210.66V210.34C322.544 208.22 323.524 206.94 325.104 206.94C326.684 206.94 327.664 208.22 327.664 210.34V210.66C327.664 212.8 326.684 214.06 325.104 214.06ZM323.694 211.47L326.254 208.61C326.004 208.12 325.614 207.86 325.104 207.86C324.154 207.86 323.634 208.76 323.634 210.38V210.62C323.634 210.93 323.654 211.21 323.694 211.47ZM325.104 213.13C326.054 213.13 326.574 212.24 326.574 210.62V210.38C326.574 210.07 326.554 209.78 326.514 209.52L323.964 212.39C324.214 212.88 324.594 213.13 325.104 213.13Z" fill="#0094D3"/>
<path d="M307.1 279.06C305.52 279.06 304.54 277.8 304.54 275.66V275.34C304.54 273.22 305.52 271.94 307.1 271.94C308.68 271.94 309.66 273.22 309.66 275.34V275.66C309.66 277.8 308.68 279.06 307.1 279.06ZM305.69 276.47L308.25 273.61C308 273.12 307.61 272.86 307.1 272.86C306.15 272.86 305.63 273.76 305.63 275.38V275.62C305.63 275.93 305.65 276.21 305.69 276.47ZM307.1 278.13C308.05 278.13 308.57 277.24 308.57 275.62V275.38C308.57 275.07 308.55 274.78 308.51 274.52L305.96 277.39C306.21 277.88 306.59 278.13 307.1 278.13ZM313.101 279.05C312.661 279.05 312.331 278.74 312.331 278.3C312.331 277.86 312.661 277.55 313.101 277.55C313.541 277.55 313.871 277.86 313.871 278.3C313.871 278.74 313.541 279.05 313.101 279.05ZM319.102 279.06C317.522 279.06 316.542 277.8 316.542 275.66V275.34C316.542 273.22 317.522 271.94 319.102 271.94C320.682 271.94 321.662 273.22 321.662 275.34V275.66C321.662 277.8 320.682 279.06 319.102 279.06ZM317.692 276.47L320.252 273.61C320.002 273.12 319.612 272.86 319.102 272.86C318.152 272.86 317.632 273.76 317.632 275.38V275.62C317.632 275.93 317.652 276.21 317.692 276.47ZM319.102 278.13C320.052 278.13 320.572 277.24 320.572 275.62V275.38C320.572 275.07 320.552 274.78 320.512 274.52L317.962 277.39C318.212 277.88 318.592 278.13 319.102 278.13ZM325.164 279.05C323.614 279.05 322.704 278.04 322.634 276.79H323.734C323.804 277.52 324.314 278.12 325.164 278.12C325.854 278.12 326.514 277.62 326.514 276.65C326.514 275.8 325.994 275.19 325.174 275.19C324.784 275.19 324.084 275.33 323.824 276.05L322.754 276.03L322.964 272H327.224V272.97H323.984L323.864 274.86C324.234 274.45 324.754 274.28 325.364 274.28C326.714 274.28 327.634 275.24 327.634 276.65C327.634 278.22 326.494 279.05 325.164 279.05Z" fill="#0094D3"/>
<path d="M307.1 344.06C305.52 344.06 304.54 342.8 304.54 340.66V340.34C304.54 338.22 305.52 336.94 307.1 336.94C308.68 336.94 309.66 338.22 309.66 340.34V340.66C309.66 342.8 308.68 344.06 307.1 344.06ZM305.69 341.47L308.25 338.61C308 338.12 307.61 337.86 307.1 337.86C306.15 337.86 305.63 338.76 305.63 340.38V340.62C305.63 340.93 305.65 341.21 305.69 341.47ZM307.1 343.13C308.05 343.13 308.57 342.24 308.57 340.62V340.38C308.57 340.07 308.55 339.78 308.51 339.52L305.96 342.39C306.21 342.88 306.59 343.13 307.1 343.13ZM313.101 344.05C312.661 344.05 312.331 343.74 312.331 343.3C312.331 342.86 312.661 342.55 313.101 342.55C313.541 342.55 313.871 342.86 313.871 343.3C313.871 343.74 313.541 344.05 313.101 344.05ZM319.102 344.06C317.522 344.06 316.542 342.8 316.542 340.66V340.34C316.542 338.22 317.522 336.94 319.102 336.94C320.682 336.94 321.662 338.22 321.662 340.34V340.66C321.662 342.8 320.682 344.06 319.102 344.06ZM317.692 341.47L320.252 338.61C320.002 338.12 319.612 337.86 319.102 337.86C318.152 337.86 317.632 338.76 317.632 340.38V340.62C317.632 340.93 317.652 341.21 317.692 341.47ZM319.102 343.13C320.052 343.13 320.572 342.24 320.572 340.62V340.38C320.572 340.07 320.552 339.78 320.512 339.52L317.962 342.39C318.212 342.88 318.592 343.13 319.102 343.13ZM325.104 344.06C323.524 344.06 322.544 342.8 322.544 340.66V340.34C322.544 338.22 323.524 336.94 325.104 336.94C326.684 336.94 327.664 338.22 327.664 340.34V340.66C327.664 342.8 326.684 344.06 325.104 344.06ZM323.694 341.47L326.254 338.61C326.004 338.12 325.614 337.86 325.104 337.86C324.154 337.86 323.634 338.76 323.634 340.38V340.62C323.634 340.93 323.654 341.21 323.694 341.47ZM325.104 343.13C326.054 343.13 326.574 342.24 326.574 340.62V340.38C326.574 340.07 326.554 339.78 326.514 339.52L323.964 342.39C324.214 342.88 324.594 343.13 325.104 343.13Z" fill="#0094D3"/>
<path d="M52.1 361.06C50.52 361.06 49.54 359.8 49.54 357.66V357.34C49.54 355.22 50.52 353.94 52.1 353.94C53.68 353.94 54.66 355.22 54.66 357.34V357.66C54.66 359.8 53.68 361.06 52.1 361.06ZM50.69 358.47L53.25 355.61C53 355.12 52.61 354.86 52.1 354.86C51.15 354.86 50.63 355.76 50.63 357.38V357.62C50.63 357.93 50.65 358.21 50.69 358.47ZM52.1 360.13C53.05 360.13 53.57 359.24 53.57 357.62V357.38C53.57 357.07 53.55 356.78 53.51 356.52L50.96 359.39C51.21 359.88 51.59 360.13 52.1 360.13Z" fill="#0094D3"/>
<path d="M113.67 361V360.11L116.28 357.82C116.9 357.28 117.33 356.79 117.33 356.13C117.33 355.33 116.82 354.89 116.07 354.89C115.31 354.89 114.79 355.43 114.79 356.3V356.42H113.68V356.24C113.68 354.91 114.61 353.94 116.07 353.94C117.59 353.94 118.46 354.8 118.46 356.08C118.46 357.1 117.86 357.76 117.03 358.48L115.25 360.03H118.5V361H113.67ZM122.101 361.06C120.521 361.06 119.541 359.8 119.541 357.66V357.34C119.541 355.22 120.521 353.94 122.101 353.94C123.681 353.94 124.661 355.22 124.661 357.34V357.66C124.661 359.8 123.681 361.06 122.101 361.06ZM120.691 358.47L123.251 355.61C123.001 355.12 122.611 354.86 122.101 354.86C121.151 354.86 120.631 355.76 120.631 357.38V357.62C120.631 357.93 120.651 358.21 120.691 358.47ZM122.101 360.13C123.051 360.13 123.571 359.24 123.571 357.62V357.38C123.571 357.07 123.551 356.78 123.511 356.52L120.961 359.39C121.211 359.88 121.591 360.13 122.101 360.13Z" fill="#0094D3"/>
<path d="M186.74 361V359.38H183.37V358.44L186.51 354H187.84V358.42H188.77V359.38H187.84V361H186.74ZM184.5 358.42H186.74V355.27L184.5 358.42ZM192.101 361.06C190.521 361.06 189.541 359.8 189.541 357.66V357.34C189.541 355.22 190.521 353.94 192.101 353.94C193.681 353.94 194.661 355.22 194.661 357.34V357.66C194.661 359.8 193.681 361.06 192.101 361.06ZM190.691 358.47L193.251 355.61C193.001 355.12 192.611 354.86 192.101 354.86C191.151 354.86 190.631 355.76 190.631 357.38V357.62C190.631 357.93 190.651 358.21 190.691 358.47ZM192.101 360.13C193.051 360.13 193.571 359.24 193.571 357.62V357.38C193.571 357.07 193.551 356.78 193.511 356.52L190.961 359.39C191.211 359.88 191.591 360.13 192.101 360.13Z" fill="#0094D3"/>
<path d="M256.22 361.06C255.29 361.06 254.56 360.64 254.11 359.93C253.75 359.35 253.54 358.51 253.54 357.55C253.54 355.28 254.56 353.94 256.23 353.94C257.48 353.94 258.39 354.69 258.56 355.91H257.46C257.32 355.26 256.89 354.86 256.18 354.86C255.14 354.86 254.59 355.95 254.59 357.18V357.45C254.82 356.8 255.54 356.34 256.37 356.34C257.72 356.34 258.66 357.28 258.66 358.7C258.66 360.08 257.67 361.06 256.22 361.06ZM256.21 360.15C257.02 360.15 257.55 359.55 257.55 358.7C257.55 357.85 257.04 357.25 256.24 357.25C255.42 357.25 254.87 357.84 254.87 358.71C254.87 359.56 255.41 360.15 256.21 360.15ZM262.101 361.06C260.521 361.06 259.541 359.8 259.541 357.66V357.34C259.541 355.22 260.521 353.94 262.101 353.94C263.681 353.94 264.661 355.22 264.661 357.34V357.66C264.661 359.8 263.681 361.06 262.101 361.06ZM260.691 358.47L263.251 355.61C263.001 355.12 262.611 354.86 262.101 354.86C261.151 354.86 260.631 355.76 260.631 357.38V357.62C260.631 357.93 260.651 358.21 260.691 358.47ZM262.101 360.13C263.051 360.13 263.571 359.24 263.571 357.62V357.38C263.571 357.07 263.551 356.78 263.511 356.52L260.961 359.39C261.211 359.88 261.591 360.13 262.101 360.13Z" fill="#0094D3"/>
<path opacity="0.56" d="M129.19 381.6C129.742 381.6 130.222 381.708 130.654 381.924C131.074 382.14 131.398 382.44 131.638 382.824C131.866 383.208 131.986 383.664 131.986 384.18C131.986 384.768 131.818 385.272 131.494 385.704C131.17 386.136 130.738 386.424 130.198 386.568L132.082 390H130.906L129.166 386.772H127.018V390H125.974V381.6H129.19ZM127.018 385.812H129.106C129.658 385.812 130.09 385.668 130.426 385.368C130.75 385.08 130.918 384.684 130.918 384.18C130.918 383.7 130.75 383.304 130.426 383.004C130.09 382.716 129.658 382.56 129.118 382.56H127.018V385.812ZM132.994 385.296C133.234 384.828 133.582 384.468 134.026 384.204C134.458 383.94 134.962 383.808 135.538 383.808C136.09 383.808 136.594 383.928 137.026 384.156C137.458 384.396 137.794 384.732 138.046 385.164C138.286 385.608 138.418 386.124 138.442 386.712C138.442 386.808 138.43 386.94 138.418 387.132H133.666V387.216C133.678 387.816 133.858 388.296 134.218 388.656C134.566 389.016 135.022 389.196 135.598 389.196C136.03 389.196 136.402 389.088 136.714 388.872C137.026 388.656 137.23 388.344 137.338 387.948H138.334C138.214 388.572 137.914 389.088 137.434 389.484C136.954 389.88 136.366 390.072 135.67 390.072C135.058 390.072 134.53 389.952 134.074 389.688C133.618 389.424 133.258 389.064 133.006 388.584C132.754 388.104 132.634 387.564 132.634 386.94C132.634 386.316 132.754 385.776 132.994 385.296ZM137.422 386.316C137.374 385.8 137.17 385.392 136.834 385.104C136.498 384.816 136.066 384.672 135.55 384.672C135.082 384.672 134.674 384.828 134.326 385.128C133.966 385.44 133.774 385.836 133.726 386.316H137.422ZM139.565 381.6H140.549V390H139.565V381.6ZM147.621 389.1V390H147.081C146.685 390 146.409 389.928 146.241 389.76C146.073 389.604 145.977 389.364 145.977 389.052C145.497 389.736 144.813 390.072 143.925 390.072C143.241 390.072 142.689 389.916 142.281 389.592C141.873 389.28 141.669 388.836 141.669 388.284C141.669 387.672 141.873 387.204 142.293 386.868C142.713 386.544 143.325 386.376 144.129 386.376H145.929V385.956C145.929 385.56 145.785 385.248 145.521 385.02C145.257 384.804 144.885 384.684 144.405 384.684C143.973 384.684 143.625 384.78 143.349 384.972C143.073 385.164 142.905 385.404 142.845 385.716H141.861C141.933 385.116 142.197 384.648 142.653 384.312C143.109 383.976 143.709 383.808 144.453 383.808C145.233 383.808 145.833 384 146.265 384.384C146.697 384.768 146.913 385.308 146.913 386.016V388.656C146.913 388.956 147.045 389.1 147.321 389.1H147.621ZM145.929 387.204H144.033C143.121 387.204 142.665 387.552 142.665 388.224C142.665 388.536 142.785 388.776 143.025 388.956C143.265 389.148 143.589 389.232 143.997 389.232C144.597 389.232 145.065 389.076 145.413 388.764C145.749 388.452 145.929 388.032 145.929 387.504V387.204ZM148.785 384.78H147.681V383.88H148.785V382.164H149.769V383.88H151.317V384.78H149.769V388.392C149.769 388.656 149.817 388.836 149.913 388.944C150.009 389.052 150.189 389.1 150.441 389.1H151.509V390H150.381C149.805 390 149.385 389.88 149.145 389.616C148.905 389.364 148.785 388.956 148.785 388.404V384.78ZM153.157 381.696C153.277 381.816 153.337 381.972 153.337 382.152C153.337 382.344 153.277 382.488 153.157 382.608C153.037 382.728 152.881 382.788 152.701 382.788C152.509 382.788 152.365 382.728 152.245 382.608C152.125 382.488 152.065 382.344 152.065 382.152C152.065 381.972 152.125 381.816 152.245 381.696C152.365 381.576 152.509 381.516 152.701 381.516C152.881 381.516 153.037 381.576 153.157 381.696ZM152.209 383.88H153.193V390H152.209V383.88ZM153.929 383.88H154.985L156.833 388.884L158.669 383.88H159.701L157.409 390H156.221L153.929 383.88ZM160.345 385.296C160.585 384.828 160.933 384.468 161.377 384.204C161.809 383.94 162.313 383.808 162.889 383.808C163.441 383.808 163.945 383.928 164.377 384.156C164.809 384.396 165.145 384.732 165.397 385.164C165.637 385.608 165.769 386.124 165.793 386.712C165.793 386.808 165.781 386.94 165.769 387.132H161.017V387.216C161.029 387.816 161.209 388.296 161.569 388.656C161.917 389.016 162.373 389.196 162.949 389.196C163.381 389.196 163.753 389.088 164.065 388.872C164.377 388.656 164.581 388.344 164.689 387.948H165.685C165.565 388.572 165.265 389.088 164.785 389.484C164.305 389.88 163.717 390.072 163.021 390.072C162.409 390.072 161.881 389.952 161.425 389.688C160.969 389.424 160.609 389.064 160.357 388.584C160.105 388.104 159.985 387.564 159.985 386.94C159.985 386.316 160.105 385.776 160.345 385.296ZM164.773 386.316C164.725 385.8 164.521 385.392 164.185 385.104C163.849 384.816 163.417 384.672 162.901 384.672C162.433 384.672 162.025 384.828 161.677 385.128C161.317 385.44 161.125 385.836 161.077 386.316H164.773ZM174.857 384.48C175.313 384.936 175.541 385.632 175.541 386.592V390H174.557V386.652C174.557 386.028 174.413 385.548 174.125 385.212C173.837 384.876 173.417 384.708 172.889 384.708C172.313 384.708 171.869 384.912 171.533 385.308C171.197 385.716 171.041 386.256 171.041 386.94V390H170.057V381.6H171.041V384.888C171.233 384.576 171.497 384.312 171.833 384.108C172.169 383.916 172.577 383.808 173.057 383.808C173.801 383.808 174.401 384.036 174.857 384.48ZM182.063 383.88V390H181.211L181.079 389.184C180.611 389.784 179.963 390.072 179.123 390.072C178.391 390.072 177.803 389.856 177.371 389.4C176.927 388.956 176.711 388.248 176.711 387.288V383.88H177.695V387.228C177.695 387.864 177.827 388.344 178.103 388.68C178.379 389.016 178.775 389.172 179.291 389.172C179.843 389.172 180.287 388.98 180.599 388.572C180.911 388.176 181.079 387.636 181.079 386.94V383.88H182.063ZM191.9 384.456C192.332 384.888 192.548 385.56 192.548 386.472V390H191.564V386.532C191.564 385.944 191.432 385.488 191.18 385.176C190.928 384.864 190.568 384.708 190.112 384.708C189.596 384.708 189.188 384.888 188.9 385.248C188.612 385.608 188.468 386.1 188.468 386.724V390H187.484V386.532C187.484 385.944 187.352 385.488 187.1 385.176C186.836 384.864 186.476 384.708 186.008 384.708C185.504 384.708 185.108 384.9 184.82 385.284C184.532 385.668 184.388 386.16 184.388 386.772V390H183.404V383.88H184.256L184.388 384.72C184.82 384.12 185.42 383.808 186.176 383.808C186.608 383.808 187.004 383.916 187.34 384.108C187.676 384.3 187.94 384.588 188.108 384.972C188.54 384.204 189.248 383.808 190.232 383.808C190.916 383.808 191.468 384.024 191.9 384.456ZM194.759 381.696C194.879 381.816 194.939 381.972 194.939 382.152C194.939 382.344 194.879 382.488 194.759 382.608C194.639 382.728 194.483 382.788 194.303 382.788C194.111 382.788 193.967 382.728 193.847 382.608C193.727 382.488 193.667 382.344 193.667 382.152C193.667 381.972 193.727 381.816 193.847 381.696C193.967 381.576 194.111 381.516 194.303 381.516C194.483 381.516 194.639 381.576 194.759 381.696ZM193.811 383.88H194.795V390H193.811V383.88ZM201.951 381.6V390H201.099L200.967 389.016C200.451 389.724 199.755 390.072 198.867 390.072C198.291 390.072 197.787 389.952 197.343 389.7C196.899 389.46 196.551 389.1 196.299 388.62C196.047 388.152 195.927 387.588 195.927 386.94C195.927 386.328 196.047 385.788 196.299 385.308C196.551 384.84 196.899 384.468 197.355 384.204C197.799 383.94 198.303 383.808 198.867 383.808C199.359 383.808 199.779 383.904 200.139 384.084C200.487 384.264 200.763 384.504 200.967 384.816V381.6H201.951ZM200.007 388.92C200.319 388.728 200.559 388.464 200.727 388.128C200.895 387.792 200.979 387.396 200.979 386.964C200.979 386.532 200.895 386.136 200.727 385.788C200.559 385.44 200.319 385.164 200.007 384.972C199.695 384.78 199.347 384.684 198.963 384.684C198.351 384.684 197.859 384.9 197.487 385.32C197.115 385.74 196.935 386.28 196.935 386.94C196.935 387.612 197.115 388.152 197.487 388.572C197.859 388.992 198.351 389.196 198.963 389.196C199.347 389.196 199.695 389.112 200.007 388.92ZM204.239 381.696C204.359 381.816 204.419 381.972 204.419 382.152C204.419 382.344 204.359 382.488 204.239 382.608C204.119 382.728 203.963 382.788 203.783 382.788C203.591 382.788 203.447 382.728 203.327 382.608C203.207 382.488 203.147 382.344 203.147 382.152C203.147 381.972 203.207 381.816 203.327 381.696C203.447 381.576 203.591 381.516 203.783 381.516C203.963 381.516 204.119 381.576 204.239 381.696ZM203.291 383.88H204.275V390H203.291V383.88ZM206.031 384.78H204.927V383.88H206.031V382.164H207.015V383.88H208.563V384.78H207.015V388.392C207.015 388.656 207.063 388.836 207.159 388.944C207.255 389.052 207.435 389.1 207.687 389.1H208.755V390H207.627C207.051 390 206.631 389.88 206.391 389.616C206.151 389.364 206.031 388.956 206.031 388.404V384.78ZM209.887 383.88L211.771 388.872L213.595 383.88H214.639L211.819 391.032C211.675 391.404 211.543 391.68 211.435 391.86C211.315 392.052 211.183 392.184 211.015 392.268C210.847 392.364 210.619 392.4 210.343 392.4H209.167V391.5H210.043C210.235 391.5 210.379 391.488 210.475 391.44C210.571 391.404 210.643 391.344 210.703 391.248C210.763 391.152 210.835 390.996 210.931 390.78L211.243 390.048L208.843 383.88H209.887ZM221.442 381.6C220.722 382.596 220.206 383.496 219.918 384.288C219.618 385.08 219.474 385.992 219.474 387C219.474 388.008 219.618 388.92 219.918 389.712C220.206 390.504 220.722 391.404 221.442 392.4H220.41C219.738 391.488 219.246 390.612 218.946 389.772C218.646 388.932 218.502 388.008 218.502 387C218.502 385.992 218.646 385.08 218.946 384.24C219.246 383.4 219.738 382.524 220.41 381.6H221.442ZM222.363 382.524C222.543 382.212 222.795 381.972 223.119 381.792C223.431 381.624 223.791 381.528 224.199 381.528C224.595 381.528 224.955 381.624 225.279 381.792C225.591 381.972 225.843 382.212 226.035 382.524C226.215 382.836 226.311 383.184 226.311 383.568C226.311 383.952 226.215 384.3 226.035 384.612C225.843 384.924 225.591 385.164 225.279 385.332C224.955 385.5 224.595 385.584 224.199 385.584C223.791 385.584 223.431 385.5 223.119 385.332C222.795 385.164 222.543 384.924 222.363 384.612C222.171 384.3 222.087 383.952 222.087 383.568C222.087 383.184 222.171 382.836 222.363 382.524ZM223.503 390L229.227 381.6H230.199L224.475 390H223.503ZM225.075 382.68C224.835 382.44 224.547 382.32 224.199 382.32C223.839 382.32 223.551 382.44 223.323 382.68C223.083 382.92 222.975 383.208 222.975 383.568C222.975 383.928 223.083 384.216 223.323 384.444C223.551 384.684 223.839 384.792 224.199 384.792C224.547 384.792 224.835 384.684 225.075 384.444C225.303 384.216 225.423 383.928 225.423 383.568C225.423 383.208 225.303 382.92 225.075 382.68ZM227.643 387.012C227.823 386.7 228.075 386.46 228.399 386.28C228.711 386.112 229.071 386.016 229.479 386.016C229.875 386.016 230.235 386.112 230.559 386.28C230.871 386.46 231.123 386.7 231.315 387.012C231.495 387.324 231.591 387.672 231.591 388.056C231.591 388.44 231.495 388.788 231.315 389.1C231.123 389.412 230.871 389.652 230.559 389.82C230.235 389.988 229.875 390.072 229.479 390.072C229.071 390.072 228.711 389.988 228.399 389.82C228.075 389.652 227.823 389.412 227.643 389.1C227.451 388.788 227.367 388.44 227.367 388.056C227.367 387.672 227.451 387.324 227.643 387.012ZM230.355 387.168C230.115 386.928 229.827 386.808 229.479 386.808C229.119 386.808 228.831 386.928 228.603 387.168C228.363 387.408 228.255 387.696 228.255 388.056C228.255 388.416 228.363 388.704 228.603 388.932C228.831 389.172 229.119 389.28 229.479 389.28C229.827 389.28 230.115 389.172 230.355 388.932C230.583 388.704 230.703 388.416 230.703 388.056C230.703 387.696 230.583 387.408 230.355 387.168ZM234.788 384.24C235.088 385.08 235.244 385.992 235.244 387C235.244 388.008 235.088 388.932 234.788 389.772C234.488 390.612 234.008 391.488 233.336 392.4H232.304C233.024 391.404 233.528 390.504 233.828 389.712C234.116 388.92 234.272 388.008 234.272 387C234.272 385.992 234.116 385.08 233.828 384.288C233.528 383.496 233.024 382.596 232.304 381.6H233.336C234.008 382.524 234.488 383.4 234.788 384.24Z" fill="#0094D3"/>
<path opacity="0.56" d="M25.6 241.905H30.472C32.236 241.905 33.112 241.197 33.112 239.757C33.112 238.317 32.236 237.585 30.472 237.585H25.6V236.541H30.412C31.612 236.541 32.524 236.817 33.148 237.369C33.772 237.921 34.072 238.713 34.072 239.757C34.072 240.813 33.772 241.605 33.148 242.145C32.524 242.685 31.612 242.949 30.412 242.949H25.6V241.905ZM28.18 230.503C28.432 230.059 28.792 229.711 29.26 229.459C29.74 229.207 30.292 229.075 30.94 229.075C31.564 229.075 32.104 229.207 32.572 229.459C33.052 229.711 33.412 230.059 33.676 230.503C33.94 230.959 34.072 231.463 34.072 232.015C34.072 232.519 33.988 232.939 33.808 233.287C33.628 233.647 33.376 233.923 33.064 234.115H36.4V235.099H27.88V234.247L28.864 234.115C28.168 233.611 27.808 232.903 27.808 232.015C27.808 231.451 27.94 230.947 28.18 230.503ZM32.572 230.647C32.152 230.275 31.612 230.083 30.94 230.083C30.28 230.083 29.74 230.275 29.32 230.647C28.9 231.019 28.684 231.511 28.684 232.111C28.684 232.507 28.78 232.855 28.972 233.167C29.164 233.479 29.428 233.707 29.764 233.875C30.1 234.043 30.484 234.127 30.916 234.127C31.36 234.127 31.756 234.043 32.104 233.875C32.452 233.707 32.716 233.479 32.908 233.167C33.1 232.855 33.196 232.507 33.196 232.111C33.196 231.511 32.992 231.019 32.572 230.647ZM28.78 227.613V228.717H27.88V227.613H26.164V226.629H27.88V225.081H28.78V226.629H32.392C32.656 226.629 32.836 226.581 32.944 226.485C33.052 226.389 33.1 226.209 33.1 225.957V224.889H34V226.017C34 226.593 33.88 227.013 33.616 227.253C33.364 227.493 32.956 227.613 32.404 227.613H28.78ZM33.1 218.559H34V219.099C34 219.495 33.928 219.771 33.76 219.939C33.604 220.107 33.364 220.203 33.052 220.203C33.736 220.683 34.072 221.367 34.072 222.255C34.072 222.939 33.916 223.491 33.592 223.899C33.28 224.307 32.836 224.511 32.284 224.511C31.672 224.511 31.204 224.307 30.868 223.887C30.544 223.467 30.376 222.855 30.376 222.051V220.251H29.956C29.56 220.251 29.248 220.395 29.02 220.659C28.804 220.923 28.684 221.295 28.684 221.775C28.684 222.207 28.78 222.555 28.972 222.831C29.164 223.107 29.404 223.275 29.716 223.335V224.319C29.116 224.247 28.648 223.983 28.312 223.527C27.976 223.071 27.808 222.471 27.808 221.727C27.808 220.947 28 220.347 28.384 219.915C28.768 219.483 29.308 219.267 30.016 219.267H32.656C32.956 219.267 33.1 219.135 33.1 218.859V218.559ZM31.204 220.251V222.147C31.204 223.059 31.552 223.515 32.224 223.515C32.536 223.515 32.776 223.395 32.956 223.155C33.148 222.915 33.232 222.591 33.232 222.183C33.232 221.583 33.076 221.115 32.764 220.767C32.452 220.431 32.032 220.251 31.504 220.251H31.204ZM25.6 217.803V216.819H31.168L27.88 213.711V212.535L30.388 214.887L34 212.367V213.555L31.096 215.595L32.38 216.819H34V217.803H25.6ZM29.296 211.811C28.828 211.571 28.468 211.223 28.204 210.779C27.94 210.347 27.808 209.843 27.808 209.267C27.808 208.715 27.928 208.211 28.156 207.779C28.396 207.347 28.732 207.011 29.164 206.759C29.608 206.519 30.124 206.387 30.712 206.363C30.808 206.363 30.94 206.375 31.132 206.387L31.132 211.139H31.216C31.816 211.127 32.296 210.947 32.656 210.587C33.016 210.239 33.196 209.783 33.196 209.207C33.196 208.775 33.088 208.403 32.872 208.091C32.656 207.779 32.344 207.575 31.948 207.467V206.471C32.572 206.591 33.088 206.891 33.484 207.371C33.88 207.851 34.072 208.439 34.072 209.135C34.072 209.747 33.952 210.275 33.688 210.731C33.424 211.187 33.064 211.547 32.584 211.799C32.104 212.051 31.564 212.171 30.94 212.171C30.316 212.171 29.776 212.051 29.296 211.811ZM30.316 207.383C29.8 207.431 29.392 207.635 29.104 207.971C28.816 208.307 28.672 208.739 28.672 209.255C28.672 209.723 28.828 210.131 29.128 210.479C29.44 210.839 29.836 211.031 30.316 211.079L30.316 207.383ZM25.6 199.171C26.596 199.891 27.496 200.407 28.288 200.695C29.08 200.995 29.992 201.139 31 201.139C32.008 201.139 32.92 200.995 33.712 200.695C34.504 200.407 35.404 199.891 36.4 199.171V200.203C35.488 200.875 34.612 201.367 33.772 201.667C32.932 201.967 32.008 202.111 31 202.111C29.992 202.111 29.08 201.967 28.24 201.667C27.4 201.367 26.524 200.875 25.6 200.203V199.171ZM27.88 192.694H33.7C35.548 192.694 36.472 193.714 36.472 195.73C36.472 196.522 36.292 197.17 35.932 197.674C35.572 198.178 35.068 198.466 34.396 198.538V197.53C34.78 197.458 35.08 197.254 35.284 196.918C35.5 196.594 35.596 196.174 35.596 195.658C35.596 194.338 34.96 193.678 33.664 193.678H32.944C33.7 194.122 34.072 194.818 34.072 195.778C34.072 196.354 33.952 196.858 33.7 197.302C33.46 197.746 33.1 198.094 32.62 198.346C32.152 198.598 31.588 198.718 30.94 198.718C30.328 198.718 29.788 198.598 29.308 198.346C28.84 198.094 28.468 197.746 28.204 197.29C27.94 196.846 27.808 196.342 27.808 195.778C27.808 195.286 27.916 194.866 28.108 194.506C28.3 194.158 28.576 193.882 28.936 193.678L27.88 193.546V192.694ZM32.92 194.638C32.728 194.326 32.464 194.086 32.128 193.918C31.792 193.75 31.396 193.666 30.964 193.666C30.532 193.666 30.136 193.75 29.788 193.918C29.44 194.086 29.164 194.326 28.972 194.638C28.78 194.95 28.684 195.298 28.684 195.682C28.684 196.294 28.9 196.786 29.32 197.158C29.74 197.53 30.28 197.71 30.94 197.71C31.612 197.71 32.152 197.53 32.572 197.158C32.992 196.786 33.196 196.294 33.196 195.682C33.196 195.298 33.112 194.95 32.92 194.638ZM36.4 192.114L25.6 188.598V187.662L36.4 191.178V192.114ZM27.88 181.549H33.7C35.548 181.549 36.472 182.569 36.472 184.585C36.472 185.377 36.292 186.025 35.932 186.529C35.572 187.033 35.068 187.321 34.396 187.393V186.385C34.78 186.313 35.08 186.109 35.284 185.773C35.5 185.449 35.596 185.029 35.596 184.513C35.596 183.193 34.96 182.533 33.664 182.533H32.944C33.7 182.977 34.072 183.673 34.072 184.633C34.072 185.209 33.952 185.713 33.7 186.157C33.46 186.601 33.1 186.949 32.62 187.201C32.152 187.453 31.588 187.573 30.94 187.573C30.328 187.573 29.788 187.453 29.308 187.201C28.84 186.949 28.468 186.601 28.204 186.145C27.94 185.701 27.808 185.197 27.808 184.633C27.808 184.141 27.916 183.721 28.108 183.361C28.3 183.013 28.576 182.737 28.936 182.533L27.88 182.401V181.549ZM32.92 183.493C32.728 183.181 32.464 182.941 32.128 182.773C31.792 182.605 31.396 182.521 30.964 182.521C30.532 182.521 30.136 182.605 29.788 182.773C29.44 182.941 29.164 183.181 28.972 183.493C28.78 183.805 28.684 184.153 28.684 184.537C28.684 185.149 28.9 185.641 29.32 186.013C29.74 186.385 30.28 186.565 30.94 186.565C31.612 186.565 32.152 186.385 32.572 186.013C32.992 185.641 33.196 185.149 33.196 184.537C33.196 184.153 33.112 183.805 32.92 183.493ZM28.24 178.337C29.08 178.037 29.992 177.881 31 177.881C32.008 177.881 32.932 178.037 33.772 178.337C34.612 178.637 35.488 179.117 36.4 179.789V180.821C35.404 180.101 34.504 179.597 33.712 179.297C32.92 179.009 32.008 178.853 31 178.853C29.992 178.853 29.08 179.009 28.288 179.297C27.496 179.597 26.596 180.101 25.6 180.821V179.789C26.524 179.117 27.4 178.637 28.24 178.337Z" fill="#0094D3"/>
<path d="M30.12 33.4C30.984 33.4 31.758 33.58 32.424 33.904C33.072 34.228 33.594 34.696 33.954 35.308C34.314 35.92 34.512 36.622 34.512 37.414C34.512 38.26 34.278 38.998 33.846 39.628C33.396 40.276 32.802 40.726 32.064 40.978L34.728 46H32.424L30.03 41.428H27.222V46H25.152V33.4H30.12ZM27.222 39.628H29.958C30.696 39.628 31.29 39.43 31.722 39.034C32.154 38.638 32.388 38.098 32.388 37.414C32.388 36.748 32.154 36.208 31.722 35.812C31.29 35.416 30.696 35.2 29.958 35.2H27.222V39.628ZM44.3476 44.308V46H43.3216C42.7096 46 42.2776 45.874 42.0256 45.622C41.7556 45.37 41.6296 45.01 41.6296 44.524C40.9276 45.586 39.9196 46.108 38.5876 46.108C37.5436 46.108 36.7156 45.874 36.1036 45.388C35.4736 44.92 35.1676 44.254 35.1676 43.408C35.1676 42.472 35.4916 41.734 36.1756 41.23C36.8416 40.726 37.8136 40.456 39.1096 40.456H41.4316V39.898C41.4316 39.394 41.2516 38.98 40.8916 38.692C40.5316 38.404 40.0276 38.242 39.3976 38.242C38.8216 38.242 38.3536 38.368 37.9936 38.62C37.6336 38.872 37.4176 39.196 37.3456 39.592H35.4376C35.5276 38.674 35.9416 37.954 36.6616 37.45C37.3816 36.946 38.3176 36.676 39.4876 36.676C40.7116 36.676 41.6656 36.964 42.3496 37.54C43.0156 38.116 43.3576 38.944 43.3576 40.024V43.66C43.3576 44.092 43.5556 44.308 43.9696 44.308H44.3476ZM41.4316 41.896H39.0196C38.4076 41.896 37.9576 42.022 37.6336 42.256C37.3096 42.49 37.1476 42.832 37.1476 43.282C37.1476 43.678 37.2916 44.002 37.5976 44.236C37.9036 44.488 38.3176 44.596 38.8576 44.596C39.6496 44.596 40.2796 44.38 40.7296 43.948C41.1796 43.516 41.4136 42.94 41.4316 42.22V41.896ZM52.2285 37.252C52.8765 37.63 53.3985 38.17 53.7765 38.89C54.1365 39.61 54.3345 40.438 54.3345 41.392C54.3345 42.328 54.1365 43.156 53.7765 43.876C53.3985 44.596 52.8765 45.136 52.2285 45.532C51.5625 45.928 50.8065 46.108 49.9785 46.108C49.2945 46.108 48.7005 45.982 48.1965 45.73C47.6925 45.478 47.2785 45.136 46.9905 44.704V49.6H45.0465V36.784H46.7385L46.9725 38.152C47.7105 37.18 48.7185 36.676 49.9785 36.676C50.8065 36.676 51.5625 36.874 52.2285 37.252ZM51.5985 43.606C52.1025 43.03 52.3545 42.292 52.3545 41.392C52.3545 40.492 52.1025 39.754 51.5985 39.178C51.0945 38.62 50.4465 38.332 49.6545 38.332C48.8445 38.332 48.1965 38.62 47.7105 39.178C47.2065 39.736 46.9725 40.456 46.9725 41.356C46.9725 42.292 47.2065 43.03 47.7105 43.606C48.1965 44.182 48.8445 44.47 49.6545 44.47C50.4465 44.47 51.0945 44.182 51.5985 43.606ZM57.3502 33.436C57.5662 33.652 57.6922 33.94 57.6922 34.264C57.6922 34.606 57.5662 34.894 57.3502 35.11C57.1162 35.326 56.8282 35.434 56.5042 35.434C56.1622 35.434 55.8742 35.326 55.6582 35.11C55.4242 34.894 55.3162 34.606 55.3162 34.264C55.3162 33.94 55.4242 33.652 55.6582 33.436C55.8742 33.22 56.1622 33.094 56.5042 33.094C56.8282 33.094 57.1162 33.22 57.3502 33.436ZM55.5322 36.784H57.4762V46H55.5322V36.784ZM67.9678 33.4V46H66.2758L66.0418 44.614C65.3038 45.622 64.2958 46.108 63.0358 46.108C62.1898 46.108 61.4338 45.928 60.7858 45.55C60.1198 45.172 59.5978 44.632 59.2378 43.912C58.8598 43.192 58.6798 42.364 58.6798 41.392C58.6798 40.456 58.8598 39.646 59.2378 38.926C59.6158 38.206 60.1378 37.666 60.8038 37.27C61.4518 36.874 62.2078 36.676 63.0358 36.676C63.7018 36.676 64.2958 36.802 64.7998 37.054C65.3038 37.306 65.6998 37.63 66.0238 38.062V33.4H67.9678ZM65.3038 43.624C65.7898 43.066 66.0418 42.328 66.0418 41.428C66.0418 40.51 65.7898 39.772 65.3038 39.196C64.7998 38.62 64.1518 38.332 63.3598 38.332C62.5498 38.332 61.9018 38.62 61.4158 39.196C60.9118 39.772 60.6778 40.492 60.6778 41.392C60.6778 42.31 60.9118 43.048 61.4158 43.624C61.9018 44.2 62.5498 44.47 63.3598 44.47C64.1518 44.47 64.7998 44.2 65.3038 43.624ZM74.347 38.494H72.745V36.784H74.347V34.21H76.309V36.784H78.523V38.494H76.309V43.3C76.309 43.66 76.381 43.93 76.525 44.074C76.669 44.218 76.903 44.29 77.263 44.29H78.739V46H76.867C75.985 46 75.337 45.802 74.941 45.388C74.545 44.992 74.347 44.362 74.347 43.498V38.494ZM86.9463 37.684C87.6303 38.368 87.9903 39.448 87.9903 40.924V46H86.0463V41.032C86.0463 40.168 85.8483 39.502 85.4703 39.034C85.0923 38.584 84.5523 38.35 83.8323 38.35C83.0583 38.35 82.4463 38.62 82.0143 39.16C81.5823 39.7 81.3663 40.42 81.3663 41.338V46H79.4223V33.4H81.3663V38.116C82.0503 37.162 83.0223 36.676 84.2643 36.676C85.3623 36.676 86.2623 37.018 86.9463 37.684ZM89.6142 38.926C89.9922 38.206 90.5142 37.666 91.1982 37.27C91.8822 36.874 92.6562 36.676 93.5382 36.676C94.4202 36.676 95.1942 36.856 95.8782 37.216C96.5622 37.576 97.0842 38.098 97.4802 38.746C97.8762 39.412 98.0742 40.186 98.0922 41.068C98.0922 41.32 98.0742 41.554 98.0382 41.806H91.0902V41.914C91.1262 42.724 91.3782 43.354 91.8462 43.822C92.2962 44.29 92.9082 44.524 93.6642 44.524C94.2582 44.524 94.7622 44.398 95.1762 44.11C95.5722 43.822 95.8422 43.426 95.9862 42.904H97.9302C97.7502 43.84 97.3002 44.614 96.5622 45.208C95.8242 45.82 94.9062 46.108 93.8082 46.108C92.8362 46.108 92.0082 45.928 91.2882 45.532C90.5682 45.136 90.0282 44.596 89.6322 43.876C89.2362 43.174 89.0562 42.346 89.0562 41.41C89.0562 40.474 89.2362 39.646 89.6142 38.926ZM96.1122 40.384C96.0222 39.718 95.7522 39.196 95.3022 38.818C94.8522 38.44 94.2942 38.242 93.6102 38.242C92.9622 38.242 92.4222 38.44 91.9542 38.836C91.4862 39.232 91.2342 39.736 91.1622 40.384H96.1122ZM104.398 36.784V38.602H103.534C102.724 38.602 102.148 38.872 101.788 39.394C101.428 39.916 101.248 40.582 101.248 41.374V46H99.3038V36.784H101.032L101.248 38.17C101.5 37.738 101.842 37.414 102.274 37.162C102.688 36.91 103.246 36.784 103.966 36.784H104.398ZM118.376 37.666C119.006 38.314 119.33 39.358 119.33 40.798V46H117.386V40.816C117.386 40.024 117.224 39.412 116.9 38.98C116.576 38.566 116.09 38.35 115.46 38.35C114.776 38.35 114.254 38.602 113.858 39.07C113.462 39.538 113.282 40.186 113.282 41.014V46H111.32V40.816C111.32 40.006 111.14 39.394 110.816 38.98C110.492 38.566 110.006 38.35 109.376 38.35C108.71 38.35 108.188 38.602 107.792 39.088C107.396 39.592 107.216 40.24 107.216 41.068V46H105.272V36.784H106.964L107.18 37.99C107.828 37.126 108.728 36.694 109.88 36.676C110.528 36.676 111.086 36.82 111.59 37.09C112.076 37.378 112.454 37.792 112.724 38.35C113.048 37.828 113.462 37.414 114.002 37.126C114.524 36.838 115.154 36.676 115.91 36.676C116.918 36.676 117.728 37.018 118.376 37.666ZM129.552 44.308V46H128.526C127.914 46 127.482 45.874 127.23 45.622C126.96 45.37 126.834 45.01 126.834 44.524C126.132 45.586 125.124 46.108 123.792 46.108C122.748 46.108 121.92 45.874 121.308 45.388C120.678 44.92 120.372 44.254 120.372 43.408C120.372 42.472 120.696 41.734 121.38 41.23C122.046 40.726 123.018 40.456 124.314 40.456H126.636V39.898C126.636 39.394 126.456 38.98 126.096 38.692C125.736 38.404 125.232 38.242 124.602 38.242C124.026 38.242 123.558 38.368 123.198 38.62C122.838 38.872 122.622 39.196 122.55 39.592H120.642C120.732 38.674 121.146 37.954 121.866 37.45C122.586 36.946 123.522 36.676 124.692 36.676C125.916 36.676 126.87 36.964 127.554 37.54C128.22 38.116 128.562 38.944 128.562 40.024V43.66C128.562 44.092 128.76 44.308 129.174 44.308H129.552ZM126.636 41.896H124.224C123.612 41.896 123.162 42.022 122.838 42.256C122.514 42.49 122.352 42.832 122.352 43.282C122.352 43.678 122.496 44.002 122.802 44.236C123.108 44.488 123.522 44.596 124.062 44.596C124.854 44.596 125.484 44.38 125.934 43.948C126.384 43.516 126.618 42.94 126.636 42.22V41.896ZM130.251 33.4H132.195V46H130.251V33.4ZM145.096 45.208C144.34 45.82 143.386 46.108 142.234 46.108C141.316 46.108 140.506 45.928 139.822 45.532C139.12 45.136 138.58 44.578 138.202 43.858C137.824 43.138 137.644 42.31 137.644 41.374C137.644 40.438 137.824 39.628 138.22 38.908C138.598 38.206 139.138 37.666 139.84 37.27C140.542 36.874 141.352 36.676 142.288 36.676C143.44 36.676 144.376 36.982 145.114 37.594C145.834 38.206 146.302 39.016 146.482 40.06H144.484C144.34 39.538 144.088 39.124 143.692 38.8C143.296 38.494 142.81 38.332 142.234 38.332C141.442 38.332 140.812 38.62 140.344 39.178C139.876 39.754 139.642 40.474 139.642 41.374C139.642 42.292 139.876 43.03 140.344 43.606C140.812 44.182 141.442 44.452 142.234 44.452C142.828 44.452 143.332 44.308 143.728 43.984C144.124 43.66 144.376 43.228 144.502 42.688H146.482C146.302 43.768 145.834 44.596 145.096 45.208ZM148.446 36.784L151.02 43.894L153.522 36.784H155.592L151.416 47.44C151.2 47.998 151.002 48.43 150.822 48.718C150.642 49.006 150.408 49.24 150.156 49.384C149.886 49.528 149.526 49.6 149.094 49.6H147.006V47.89H148.374C148.734 47.89 149.004 47.836 149.148 47.728C149.292 47.62 149.436 47.35 149.598 46.954L149.976 46.072L146.376 36.784H148.446ZM162.974 45.208C162.218 45.82 161.264 46.108 160.112 46.108C159.194 46.108 158.384 45.928 157.7 45.532C156.998 45.136 156.458 44.578 156.08 43.858C155.702 43.138 155.522 42.31 155.522 41.374C155.522 40.438 155.702 39.628 156.098 38.908C156.476 38.206 157.016 37.666 157.718 37.27C158.42 36.874 159.23 36.676 160.166 36.676C161.318 36.676 162.254 36.982 162.992 37.594C163.712 38.206 164.18 39.016 164.36 40.06H162.362C162.218 39.538 161.966 39.124 161.57 38.8C161.174 38.494 160.688 38.332 160.112 38.332C159.32 38.332 158.69 38.62 158.222 39.178C157.754 39.754 157.52 40.474 157.52 41.374C157.52 42.292 157.754 43.03 158.222 43.606C158.69 44.182 159.32 44.452 160.112 44.452C160.706 44.452 161.21 44.308 161.606 43.984C162.002 43.66 162.254 43.228 162.38 42.688H164.36C164.18 43.768 163.712 44.596 162.974 45.208ZM165.559 33.4H167.503V46H165.559V33.4ZM170.866 33.436C171.082 33.652 171.208 33.94 171.208 34.264C171.208 34.606 171.082 34.894 170.866 35.11C170.632 35.326 170.344 35.434 170.02 35.434C169.678 35.434 169.39 35.326 169.174 35.11C168.94 34.894 168.832 34.606 168.832 34.264C168.832 33.94 168.94 33.652 169.174 33.436C169.39 33.22 169.678 33.094 170.02 33.094C170.344 33.094 170.632 33.22 170.866 33.436ZM169.048 36.784H170.992V46H169.048V36.784ZM180.062 37.684C180.746 38.368 181.106 39.448 181.106 40.924V46H179.144V41.032C179.144 40.168 178.946 39.502 178.586 39.034C178.208 38.584 177.668 38.35 176.948 38.35C176.174 38.35 175.562 38.62 175.13 39.16C174.698 39.7 174.482 40.42 174.482 41.356V46H172.538V36.784H174.23L174.446 37.99C175.13 37.126 176.12 36.676 177.398 36.676C178.478 36.676 179.378 37.018 180.062 37.684ZM191.46 36.784V45.622C191.46 46.918 191.064 47.926 190.308 48.646C189.534 49.366 188.346 49.708 186.744 49.708C185.484 49.708 184.476 49.438 183.702 48.88C182.91 48.322 182.478 47.53 182.406 46.504H184.386C184.494 47.026 184.782 47.422 185.214 47.71C185.646 47.998 186.204 48.124 186.888 48.124C188.652 48.124 189.534 47.278 189.534 45.55V44.524C188.85 45.532 187.86 46.036 186.528 46.036C185.682 46.036 184.926 45.856 184.278 45.478C183.612 45.1 183.09 44.56 182.73 43.858C182.352 43.156 182.172 42.328 182.172 41.356C182.172 40.438 182.352 39.628 182.73 38.908C183.108 38.206 183.63 37.666 184.296 37.27C184.944 36.874 185.7 36.676 186.528 36.676C187.212 36.676 187.824 36.82 188.328 37.09C188.832 37.378 189.228 37.756 189.552 38.224L189.768 36.784H191.46ZM188.796 43.57C189.282 43.012 189.534 42.292 189.534 41.392C189.534 40.492 189.282 39.754 188.796 39.178C188.292 38.602 187.644 38.314 186.852 38.314C186.042 38.314 185.394 38.602 184.908 39.16C184.404 39.736 184.17 40.456 184.17 41.356C184.17 42.256 184.404 42.994 184.908 43.552C185.394 44.128 186.042 44.398 186.852 44.398C187.644 44.398 188.292 44.128 188.796 43.57Z" fill="black"/>
</svg>
