<svg width="360" height="429" viewBox="0 0 360 429" fill="none" xmlns="http://www.w3.org/2000/svg">
<path opacity="0.2" d="M52 239L316 239" stroke="#0094D3" stroke-width="0.5" stroke-miterlimit="10"/>
<path d="M53 211L316 211" stroke="#0094D3" stroke-width="0.5" stroke-miterlimit="10"/>
<path opacity="0.2" d="M52 290L316 290" stroke="#0094D3" stroke-width="0.5" stroke-miterlimit="10"/>
<path opacity="0.2" d="M52 341L316 341" stroke="#0094D3" stroke-width="0.5" stroke-miterlimit="10"/>
<path opacity="0.2" d="M55 77L55 344" stroke="#0094D3" stroke-width="0.5" stroke-miterlimit="10"/>
<path opacity="0.2" d="M91.8571 208L91.8571 344" stroke="#0094D3" stroke-width="0.5" stroke-miterlimit="10"/>
<path opacity="0.2" d="M128.714 208L128.714 344" stroke="#0094D3" stroke-width="0.5" stroke-miterlimit="10"/>
<path opacity="0.2" d="M165.571 208L165.571 344" stroke="#0094D3" stroke-width="0.5" stroke-miterlimit="10"/>
<path opacity="0.2" d="M202.429 208L202.429 344" stroke="#0094D3" stroke-width="0.5" stroke-miterlimit="10"/>
<path opacity="0.2" d="M239.286 208L239.286 344" stroke="#0094D3" stroke-width="0.5" stroke-miterlimit="10"/>
<path opacity="0.2" d="M276.143 208L276.143 344" stroke="#0094D3" stroke-width="0.5" stroke-miterlimit="10"/>
<path opacity="0.2" d="M313 77L313 344" stroke="#0094D3" stroke-width="0.5" stroke-miterlimit="10"/>
<path d="M91.8571 338V344" stroke="#0094D3" stroke-width="0.5" stroke-miterlimit="10"/>
<path d="M128.714 338V344" stroke="#0094D3" stroke-width="0.5" stroke-miterlimit="10"/>
<path d="M165.571 338V344" stroke="#0094D3" stroke-width="0.5" stroke-miterlimit="10"/>
<path d="M202.429 338V344" stroke="#0094D3" stroke-width="0.5" stroke-miterlimit="10"/>
<path d="M239.286 338V344" stroke="#0094D3" stroke-width="0.5" stroke-miterlimit="10"/>
<path d="M276.143 338V344" stroke="#0094D3" stroke-width="0.5" stroke-miterlimit="10"/>
<path d="M313 338V344" stroke="#0094D3" stroke-width="0.5" stroke-miterlimit="10"/>
<path d="M91.8571 208V214" stroke="#0094D3" stroke-width="0.5" stroke-miterlimit="10"/>
<path d="M128.714 208V214" stroke="#0094D3" stroke-width="0.5" stroke-miterlimit="10"/>
<path d="M165.571 208V214" stroke="#0094D3" stroke-width="0.5" stroke-miterlimit="10"/>
<path d="M202.429 208V214" stroke="#0094D3" stroke-width="0.5" stroke-miterlimit="10"/>
<path d="M239.286 208V214" stroke="#0094D3" stroke-width="0.5" stroke-miterlimit="10"/>
<path d="M276.143 208V214" stroke="#0094D3" stroke-width="0.5" stroke-miterlimit="10"/>
<path d="M52 81H58" stroke="#0094D3" stroke-width="0.5" stroke-miterlimit="10"/>
<path d="M52 146H58" stroke="#0094D3" stroke-width="0.5" stroke-miterlimit="10"/>
<path d="M52 179H58" stroke="#0094D3" stroke-width="0.5" stroke-miterlimit="10"/>
<path d="M52 113H58" stroke="#0094D3" stroke-width="0.5" stroke-miterlimit="10"/>
<path d="M52 211H58" stroke="#0094D3" stroke-width="0.5" stroke-miterlimit="10"/>
<path d="M52 290H58" stroke="#0094D3" stroke-width="0.5" stroke-miterlimit="10"/>
<path d="M52 239H58" stroke="#0094D3" stroke-width="0.5" stroke-miterlimit="10"/>
<path d="M310 91H316" stroke="#FF7D38" stroke-width="0.5" stroke-miterlimit="10"/>
<path d="M310 131H316" stroke="#FF7D38" stroke-width="0.5" stroke-miterlimit="10"/>
<path d="M310 111H316" stroke="#FF7D38" stroke-width="0.5" stroke-miterlimit="10"/>
<path d="M310 171H316" stroke="#FF7D38" stroke-width="0.5" stroke-miterlimit="10"/>
<path d="M310 151H316" stroke="#FF7D38" stroke-width="0.5" stroke-miterlimit="10"/>
<path d="M310 191H316" stroke="#FF7D38" stroke-width="0.5" stroke-miterlimit="10"/>
<path d="M310 211H316" stroke="#FF7D38" stroke-width="0.5" stroke-miterlimit="10"/>
<path d="M310 290H316" stroke="#0094D3" stroke-width="0.5" stroke-miterlimit="10"/>
<path d="M310 239H316" stroke="#0094D3" stroke-width="0.5" stroke-miterlimit="10"/>
<path d="M310 341H316" stroke="#0094D3" stroke-width="0.5" stroke-miterlimit="10"/>
<path d="M52 341H58" stroke="#0094D3" stroke-width="0.5" stroke-miterlimit="10"/>
<path d="M322.1 94.06C320.49 94.06 319.54 93.24 319.54 92.07C319.54 91.17 320.1 90.57 320.8 90.36C320.22 90.16 319.73 89.61 319.73 88.82C319.73 87.7 320.66 86.94 322.1 86.94C323.54 86.94 324.47 87.7 324.47 88.82C324.47 89.58 323.98 90.16 323.39 90.36C324.08 90.56 324.66 91.14 324.66 92.07C324.66 93.24 323.71 94.06 322.1 94.06ZM322.1 93.19C322.95 93.19 323.53 92.71 323.53 92.03C323.53 91.35 322.95 90.87 322.1 90.87C321.26 90.87 320.67 91.35 320.67 92.03C320.67 92.71 321.26 93.19 322.1 93.19ZM322.1 89.89C322.86 89.89 323.36 89.47 323.36 88.84C323.36 88.23 322.86 87.81 322.1 87.81C321.35 87.81 320.84 88.23 320.84 88.84C320.84 89.47 321.35 89.89 322.1 89.89ZM328.101 94.06C326.521 94.06 325.541 92.8 325.541 90.66V90.34C325.541 88.22 326.521 86.94 328.101 86.94C329.681 86.94 330.661 88.22 330.661 90.34V90.66C330.661 92.8 329.681 94.06 328.101 94.06ZM326.691 91.47L329.251 88.61C329.001 88.12 328.611 87.86 328.101 87.86C327.151 87.86 326.631 88.76 326.631 90.38V90.62C326.631 90.93 326.651 91.21 326.691 91.47ZM328.101 93.13C329.051 93.13 329.571 92.24 329.571 90.62V90.38C329.571 90.07 329.551 89.78 329.511 89.52L326.961 92.39C327.211 92.88 327.591 93.13 328.101 93.13Z" fill="#FF7D38"/>
<path d="M29.7565 84V83.03H31.5165V79.29C31.4165 79.34 31.2965 79.36 31.1565 79.36H29.7765V78.42H31.0365C31.3665 78.42 31.5265 78.13 31.5265 77.77V77H32.6165V83.03H34.2865V84H29.7565ZM37.8977 84.06C36.3177 84.06 35.3377 82.8 35.3377 80.66V80.34C35.3377 78.22 36.3177 76.94 37.8977 76.94C39.4777 76.94 40.4577 78.22 40.4577 80.34V80.66C40.4577 82.8 39.4777 84.06 37.8977 84.06ZM36.4877 81.47L39.0477 78.61C38.7977 78.12 38.4077 77.86 37.8977 77.86C36.9477 77.86 36.4277 78.76 36.4277 80.38V80.62C36.4277 80.93 36.4477 81.21 36.4877 81.47ZM37.8977 83.13C38.8477 83.13 39.3677 82.24 39.3677 80.62V80.38C39.3677 80.07 39.3477 79.78 39.3077 79.52L36.7577 82.39C37.0077 82.88 37.3877 83.13 37.8977 83.13ZM43.8988 84.06C42.3188 84.06 41.3388 82.8 41.3388 80.66V80.34C41.3388 78.22 42.3188 76.94 43.8988 76.94C45.4788 76.94 46.4588 78.22 46.4588 80.34V80.66C46.4588 82.8 45.4788 84.06 43.8988 84.06ZM42.4888 81.47L45.0488 78.61C44.7988 78.12 44.4088 77.86 43.8988 77.86C42.9488 77.86 42.4288 78.76 42.4288 80.38V80.62C42.4288 80.93 42.4488 81.21 42.4888 81.47ZM43.8988 83.13C44.8488 83.13 45.3688 82.24 45.3688 80.62V80.38C45.3688 80.07 45.3488 79.78 45.3088 79.52L42.7588 82.39C43.0088 82.88 43.3888 83.13 43.8988 83.13Z" fill="#0094D3"/>
<path d="M322.74 174V172.38H319.37V171.44L322.51 167H323.84V171.42H324.77V172.38H323.84V174H322.74ZM320.5 171.42H322.74V168.27L320.5 171.42ZM328.101 174.06C326.521 174.06 325.541 172.8 325.541 170.66V170.34C325.541 168.22 326.521 166.94 328.101 166.94C329.681 166.94 330.661 168.22 330.661 170.34V170.66C330.661 172.8 329.681 174.06 328.101 174.06ZM326.691 171.47L329.251 168.61C329.001 168.12 328.611 167.86 328.101 167.86C327.151 167.86 326.631 168.76 326.631 170.38V170.62C326.631 170.93 326.651 171.21 326.691 171.47ZM328.101 173.13C329.051 173.13 329.571 172.24 329.571 170.62V170.38C329.571 170.07 329.551 169.78 329.511 169.52L326.961 172.39C327.211 172.88 327.591 173.13 328.101 173.13Z" fill="#FF7D38"/>
<path d="M322.22 134.06C321.29 134.06 320.56 133.64 320.11 132.93C319.75 132.35 319.54 131.51 319.54 130.55C319.54 128.28 320.56 126.94 322.23 126.94C323.48 126.94 324.39 127.69 324.56 128.91H323.46C323.32 128.26 322.89 127.86 322.18 127.86C321.14 127.86 320.59 128.95 320.59 130.18V130.45C320.82 129.8 321.54 129.34 322.37 129.34C323.72 129.34 324.66 130.28 324.66 131.7C324.66 133.08 323.67 134.06 322.22 134.06ZM322.21 133.15C323.02 133.15 323.55 132.55 323.55 131.7C323.55 130.85 323.04 130.25 322.24 130.25C321.42 130.25 320.87 130.84 320.87 131.71C320.87 132.56 321.41 133.15 322.21 133.15ZM328.101 134.06C326.521 134.06 325.541 132.8 325.541 130.66V130.34C325.541 128.22 326.521 126.94 328.101 126.94C329.681 126.94 330.661 128.22 330.661 130.34V130.66C330.661 132.8 329.681 134.06 328.101 134.06ZM326.691 131.47L329.251 128.61C329.001 128.12 328.611 127.86 328.101 127.86C327.151 127.86 326.631 128.76 326.631 130.38V130.62C326.631 130.93 326.651 131.21 326.691 131.47ZM328.101 133.13C329.051 133.13 329.571 132.24 329.571 130.62V130.38C329.571 130.07 329.551 129.78 329.511 129.52L326.961 132.39C327.211 132.88 327.591 133.13 328.101 133.13Z" fill="#FF7D38"/>
<path d="M37.9577 149.05C36.4077 149.05 35.4977 148.04 35.4277 146.79H36.5277C36.5977 147.52 37.1077 148.12 37.9577 148.12C38.6477 148.12 39.3077 147.62 39.3077 146.65C39.3077 145.8 38.7877 145.19 37.9677 145.19C37.5777 145.19 36.8777 145.33 36.6177 146.05L35.5477 146.03L35.7577 142H40.0177V142.97H36.7777L36.6577 144.86C37.0277 144.45 37.5477 144.28 38.1577 144.28C39.5077 144.28 40.4277 145.24 40.4277 146.65C40.4277 148.22 39.2877 149.05 37.9577 149.05ZM43.8988 149.06C42.3188 149.06 41.3388 147.8 41.3388 145.66V145.34C41.3388 143.22 42.3188 141.94 43.8988 141.94C45.4788 141.94 46.4588 143.22 46.4588 145.34V145.66C46.4588 147.8 45.4788 149.06 43.8988 149.06ZM42.4888 146.47L45.0488 143.61C44.7988 143.12 44.4088 142.86 43.8988 142.86C42.9488 142.86 42.4288 143.76 42.4288 145.38V145.62C42.4288 145.93 42.4488 146.21 42.4888 146.47ZM43.8988 148.13C44.8488 148.13 45.3688 147.24 45.3688 145.62V145.38C45.3688 145.07 45.3488 144.78 45.3088 144.52L42.7588 147.39C43.0088 147.88 43.3888 148.13 43.8988 148.13Z" fill="#0094D3"/>
<path d="M319.67 214V213.11L322.28 210.82C322.9 210.28 323.33 209.79 323.33 209.13C323.33 208.33 322.82 207.89 322.07 207.89C321.31 207.89 320.79 208.43 320.79 209.3V209.42H319.68V209.24C319.68 207.91 320.61 206.94 322.07 206.94C323.59 206.94 324.46 207.8 324.46 209.08C324.46 210.1 323.86 210.76 323.03 211.48L321.25 213.03H324.5V214H319.67ZM328.101 214.06C326.521 214.06 325.541 212.8 325.541 210.66V210.34C325.541 208.22 326.521 206.94 328.101 206.94C329.681 206.94 330.661 208.22 330.661 210.34V210.66C330.661 212.8 329.681 214.06 328.101 214.06ZM326.691 211.47L329.251 208.61C329.001 208.12 328.611 207.86 328.101 207.86C327.151 207.86 326.631 208.76 326.631 210.38V210.62C326.631 210.93 326.651 211.21 326.691 211.47ZM328.101 213.13C329.051 213.13 329.571 212.24 329.571 210.62V210.38C329.571 210.07 329.551 209.78 329.511 209.52L326.961 212.39C327.211 212.88 327.591 213.13 328.101 213.13Z" fill="#FF7D38"/>
<path d="M43.8988 214.06C42.3188 214.06 41.3388 212.8 41.3388 210.66V210.34C41.3388 208.22 42.3188 206.94 43.8988 206.94C45.4788 206.94 46.4588 208.22 46.4588 210.34V210.66C46.4588 212.8 45.4788 214.06 43.8988 214.06ZM42.4888 211.47L45.0488 208.61C44.7988 208.12 44.4088 207.86 43.8988 207.86C42.9488 207.86 42.4288 208.76 42.4288 210.38V210.62C42.4288 210.93 42.4488 211.21 42.4888 211.47ZM43.8988 213.13C44.8488 213.13 45.3688 212.24 45.3688 210.62V210.38C45.3688 210.07 45.3488 209.78 45.3088 209.52L42.7588 212.39C43.0088 212.88 43.3888 213.13 43.8988 213.13Z" fill="#0094D3"/>
<path d="M37.7677 293.06C36.5177 293.06 35.6077 292.31 35.4377 291.09H36.5377C36.6777 291.74 37.1077 292.14 37.8177 292.14C38.8577 292.14 39.4077 291.05 39.4077 289.82V289.55C39.1777 290.2 38.4577 290.66 37.6277 290.66C36.2777 290.66 35.3377 289.72 35.3377 288.3C35.3377 286.92 36.3277 285.94 37.7777 285.94C38.7077 285.94 39.4377 286.36 39.8877 287.07C40.2477 287.65 40.4577 288.49 40.4577 289.45C40.4577 291.72 39.4377 293.06 37.7677 293.06ZM37.7577 289.75C38.5777 289.75 39.1277 289.16 39.1277 288.29C39.1277 287.44 38.5877 286.85 37.7877 286.85C36.9777 286.85 36.4477 287.45 36.4477 288.3C36.4477 289.15 36.9577 289.75 37.7577 289.75ZM43.9588 293.05C42.4088 293.05 41.4988 292.04 41.4288 290.79H42.5288C42.5988 291.52 43.1088 292.12 43.9588 292.12C44.6488 292.12 45.3088 291.62 45.3088 290.65C45.3088 289.8 44.7888 289.19 43.9688 289.19C43.5788 289.19 42.8788 289.33 42.6188 290.05L41.5488 290.03L41.7588 286H46.0188V286.97H42.7788L42.6588 288.86C43.0288 288.45 43.5488 288.28 44.1588 288.28C45.5088 288.28 46.4288 289.24 46.4288 290.65C46.4288 292.22 45.2888 293.05 43.9588 293.05Z" fill="#0094D3"/>
<path d="M29.7565 241V240.03H31.5165V236.29C31.4165 236.34 31.2965 236.36 31.1565 236.36H29.7765V235.42H31.0365C31.3665 235.42 31.5265 235.13 31.5265 234.77V234H32.6165V240.03H34.2865V241H29.7565ZM37.8977 241.06C36.3177 241.06 35.3377 239.8 35.3377 237.66V237.34C35.3377 235.22 36.3177 233.94 37.8977 233.94C39.4777 233.94 40.4577 235.22 40.4577 237.34V237.66C40.4577 239.8 39.4777 241.06 37.8977 241.06ZM36.4877 238.47L39.0477 235.61C38.7977 235.12 38.4077 234.86 37.8977 234.86C36.9477 234.86 36.4277 235.76 36.4277 237.38V237.62C36.4277 237.93 36.4477 238.21 36.4877 238.47ZM37.8977 240.13C38.8477 240.13 39.3677 239.24 39.3677 237.62V237.38C39.3677 237.07 39.3477 236.78 39.3077 236.52L36.7577 239.39C37.0077 239.88 37.3877 240.13 37.8977 240.13ZM43.8988 241.06C42.3188 241.06 41.3388 239.8 41.3388 237.66V237.34C41.3388 235.22 42.3188 233.94 43.8988 233.94C45.4788 233.94 46.4588 235.22 46.4588 237.34V237.66C46.4588 239.8 45.4788 241.06 43.8988 241.06ZM42.4888 238.47L45.0488 235.61C44.7988 235.12 44.4088 234.86 43.8988 234.86C42.9488 234.86 42.4288 235.76 42.4288 237.38V237.62C42.4288 237.93 42.4488 238.21 42.4888 238.47ZM43.8988 240.13C44.8488 240.13 45.3688 239.24 45.3688 237.62V237.38C45.3688 237.07 45.3488 236.78 45.3088 236.52L42.7588 239.39C43.0088 239.88 43.3888 240.13 43.8988 240.13Z" fill="#0094D3"/>
<path d="M37.7677 345.06C36.5177 345.06 35.6077 344.31 35.4377 343.09H36.5377C36.6777 343.74 37.1077 344.14 37.8177 344.14C38.8577 344.14 39.4077 343.05 39.4077 341.82V341.55C39.1777 342.2 38.4577 342.66 37.6277 342.66C36.2777 342.66 35.3377 341.72 35.3377 340.3C35.3377 338.92 36.3277 337.94 37.7777 337.94C38.7077 337.94 39.4377 338.36 39.8877 339.07C40.2477 339.65 40.4577 340.49 40.4577 341.45C40.4577 343.72 39.4377 345.06 37.7677 345.06ZM37.7577 341.75C38.5777 341.75 39.1277 341.16 39.1277 340.29C39.1277 339.44 38.5877 338.85 37.7877 338.85C36.9777 338.85 36.4477 339.45 36.4477 340.3C36.4477 341.15 36.9577 341.75 37.7577 341.75ZM43.8988 345.06C42.3188 345.06 41.3388 343.8 41.3388 341.66V341.34C41.3388 339.22 42.3188 337.94 43.8988 337.94C45.4788 337.94 46.4588 339.22 46.4588 341.34V341.66C46.4588 343.8 45.4788 345.06 43.8988 345.06ZM42.4888 342.47L45.0488 339.61C44.7988 339.12 44.4088 338.86 43.8988 338.86C42.9488 338.86 42.4288 339.76 42.4288 341.38V341.62C42.4288 341.93 42.4488 342.21 42.4888 342.47ZM43.8988 344.13C44.8488 344.13 45.3688 343.24 45.3688 341.62V341.38C45.3688 341.07 45.3488 340.78 45.3088 340.52L42.7588 343.39C43.0088 343.88 43.3888 344.13 43.8988 344.13Z" fill="#0094D3"/>
<path d="M55.1 361.06C53.52 361.06 52.54 359.8 52.54 357.66V357.34C52.54 355.22 53.52 353.94 55.1 353.94C56.68 353.94 57.66 355.22 57.66 357.34V357.66C57.66 359.8 56.68 361.06 55.1 361.06ZM53.69 358.47L56.25 355.61C56 355.12 55.61 354.86 55.1 354.86C54.15 354.86 53.63 355.76 53.63 357.38V357.62C53.63 357.93 53.65 358.21 53.69 358.47ZM55.1 360.13C56.05 360.13 56.57 359.24 56.57 357.62V357.38C56.57 357.07 56.55 356.78 56.51 356.52L53.96 359.39C54.21 359.88 54.59 360.13 55.1 360.13Z" fill="#0094D3"/>
<path d="M128.16 361.05C126.61 361.05 125.7 360.04 125.63 358.79H126.73C126.8 359.52 127.31 360.12 128.16 360.12C128.85 360.12 129.51 359.62 129.51 358.65C129.51 357.8 128.99 357.19 128.17 357.19C127.78 357.19 127.08 357.33 126.82 358.05L125.75 358.03L125.96 354H130.22V354.97H126.98L126.86 356.86C127.23 356.45 127.75 356.28 128.36 356.28C129.71 356.28 130.63 357.24 130.63 358.65C130.63 360.22 129.49 361.05 128.16 361.05Z" fill="#0094D3"/>
<path d="M195.96 361V360.03H197.72V356.29C197.62 356.34 197.5 356.36 197.36 356.36H195.98V355.42H197.24C197.57 355.42 197.73 355.13 197.73 354.77V354H198.82V360.03H200.49V361H195.96ZM204.101 361.06C202.521 361.06 201.541 359.8 201.541 357.66V357.34C201.541 355.22 202.521 353.94 204.101 353.94C205.681 353.94 206.661 355.22 206.661 357.34V357.66C206.661 359.8 205.681 361.06 204.101 361.06ZM202.691 358.47L205.251 355.61C205.001 355.12 204.611 354.86 204.101 354.86C203.151 354.86 202.631 355.76 202.631 357.38V357.62C202.631 357.93 202.651 358.21 202.691 358.47ZM204.101 360.13C205.051 360.13 205.571 359.24 205.571 357.62V357.38C205.571 357.07 205.551 356.78 205.511 356.52L202.961 359.39C203.211 359.88 203.591 360.13 204.101 360.13Z" fill="#0094D3"/>
<path d="M269.96 361V360.03H271.72V356.29C271.62 356.34 271.5 356.36 271.36 356.36H269.98V355.42H271.24C271.57 355.42 271.73 355.13 271.73 354.77V354H272.82V360.03H274.49V361H269.96ZM278.161 361.05C276.611 361.05 275.701 360.04 275.631 358.79H276.731C276.801 359.52 277.311 360.12 278.161 360.12C278.851 360.12 279.511 359.62 279.511 358.65C279.511 357.8 278.991 357.19 278.171 357.19C277.781 357.19 277.081 357.33 276.821 358.05L275.751 358.03L275.961 354H280.221V354.97H276.981L276.861 356.86C277.231 356.45 277.751 356.28 278.361 356.28C279.711 356.28 280.631 357.24 280.631 358.65C280.631 360.22 279.491 361.05 278.161 361.05Z" fill="#0094D3"/>
<path opacity="0.56" d="M157.017 381.6H163.509V382.56H160.785V390H159.741V382.56H157.017V381.6ZM165.368 381.696C165.488 381.816 165.548 381.972 165.548 382.152C165.548 382.344 165.488 382.488 165.368 382.608C165.248 382.728 165.092 382.788 164.912 382.788C164.72 382.788 164.576 382.728 164.456 382.608C164.336 382.488 164.276 382.344 164.276 382.152C164.276 381.972 164.336 381.816 164.456 381.696C164.576 381.576 164.72 381.516 164.912 381.516C165.092 381.516 165.248 381.576 165.368 381.696ZM164.42 383.88H165.404V390H164.42V383.88ZM175.248 384.456C175.68 384.888 175.896 385.56 175.896 386.472V390H174.912V386.532C174.912 385.944 174.78 385.488 174.528 385.176C174.276 384.864 173.916 384.708 173.46 384.708C172.944 384.708 172.536 384.888 172.248 385.248C171.96 385.608 171.816 386.1 171.816 386.724V390H170.832V386.532C170.832 385.944 170.7 385.488 170.448 385.176C170.184 384.864 169.824 384.708 169.356 384.708C168.852 384.708 168.456 384.9 168.168 385.284C167.88 385.668 167.736 386.16 167.736 386.772V390H166.752V383.88H167.604L167.736 384.72C168.168 384.12 168.768 383.808 169.524 383.808C169.956 383.808 170.352 383.916 170.688 384.108C171.024 384.3 171.288 384.588 171.456 384.972C171.888 384.204 172.596 383.808 173.58 383.808C174.264 383.808 174.816 384.024 175.248 384.456ZM177.302 385.296C177.542 384.828 177.89 384.468 178.334 384.204C178.766 383.94 179.27 383.808 179.846 383.808C180.398 383.808 180.902 383.928 181.334 384.156C181.766 384.396 182.102 384.732 182.354 385.164C182.594 385.608 182.726 386.124 182.75 386.712C182.75 386.808 182.738 386.94 182.726 387.132H177.974V387.216C177.986 387.816 178.166 388.296 178.526 388.656C178.874 389.016 179.33 389.196 179.906 389.196C180.338 389.196 180.71 389.088 181.022 388.872C181.334 388.656 181.538 388.344 181.646 387.948H182.642C182.522 388.572 182.222 389.088 181.742 389.484C181.262 389.88 180.674 390.072 179.978 390.072C179.366 390.072 178.838 389.952 178.382 389.688C177.926 389.424 177.566 389.064 177.314 388.584C177.062 388.104 176.942 387.564 176.942 386.94C176.942 386.316 177.062 385.776 177.302 385.296ZM181.73 386.316C181.682 385.8 181.478 385.392 181.142 385.104C180.806 384.816 180.374 384.672 179.858 384.672C179.39 384.672 178.982 384.828 178.634 385.128C178.274 385.44 178.082 385.836 178.034 386.316H181.73ZM189.942 381.6C189.222 382.596 188.706 383.496 188.418 384.288C188.118 385.08 187.974 385.992 187.974 387C187.974 388.008 188.118 388.92 188.418 389.712C188.706 390.504 189.222 391.404 189.942 392.4H188.91C188.238 391.488 187.746 390.612 187.446 389.772C187.146 388.932 187.002 388.008 187.002 387C187.002 385.992 187.146 385.08 187.446 384.24C187.746 383.4 188.238 382.524 188.91 381.6H189.942ZM195.411 384.48C195.867 384.936 196.095 385.632 196.095 386.592V390H195.111V386.652C195.111 386.028 194.967 385.548 194.679 385.212C194.391 384.876 193.971 384.708 193.443 384.708C192.867 384.708 192.423 384.912 192.087 385.308C191.751 385.716 191.595 386.256 191.595 386.94V390H190.611V381.6H191.595V384.888C191.787 384.576 192.051 384.312 192.387 384.108C192.723 383.916 193.131 383.808 193.611 383.808C194.355 383.808 194.955 384.036 195.411 384.48ZM200.458 383.88V384.84H199.966C199.378 384.84 198.958 385.044 198.706 385.428C198.454 385.824 198.334 386.304 198.334 386.88V390H197.35V383.88H198.202L198.334 384.804C198.502 384.528 198.73 384.3 199.018 384.132C199.294 383.964 199.678 383.88 200.182 383.88H200.458ZM203.23 384.24C203.53 385.08 203.686 385.992 203.686 387C203.686 388.008 203.53 388.932 203.23 389.772C202.93 390.612 202.45 391.488 201.778 392.4H200.746C201.466 391.404 201.97 390.504 202.27 389.712C202.558 388.92 202.714 388.008 202.714 387C202.714 385.992 202.558 385.08 202.27 384.288C201.97 383.496 201.466 382.596 200.746 381.6H201.778C202.45 382.524 202.93 383.4 203.23 384.24Z" fill="#0094D3"/>
<path opacity="0.56" d="M13.6 266.02H18.472C20.236 266.02 21.112 265.312 21.112 263.872C21.112 262.432 20.236 261.7 18.472 261.7H13.6V260.656H18.412C19.612 260.656 20.524 260.932 21.148 261.484C21.772 262.036 22.072 262.828 22.072 263.872C22.072 264.928 21.772 265.72 21.148 266.26C20.524 266.8 19.612 267.064 18.412 267.064H13.6V266.02ZM16.18 254.619C16.432 254.175 16.792 253.827 17.26 253.575C17.74 253.323 18.292 253.191 18.94 253.191C19.564 253.191 20.104 253.323 20.572 253.575C21.052 253.827 21.412 254.175 21.676 254.619C21.94 255.075 22.072 255.579 22.072 256.131C22.072 256.635 21.988 257.055 21.808 257.403C21.628 257.763 21.376 258.039 21.064 258.231H24.4V259.215H15.88V258.363L16.864 258.231C16.168 257.727 15.808 257.019 15.808 256.131C15.808 255.567 15.94 255.063 16.18 254.619ZM20.572 254.763C20.152 254.391 19.612 254.199 18.94 254.199C18.28 254.199 17.74 254.391 17.32 254.763C16.9 255.135 16.684 255.627 16.684 256.227C16.684 256.623 16.78 256.971 16.972 257.283C17.164 257.595 17.428 257.823 17.764 257.991C18.1 258.159 18.484 258.243 18.916 258.243C19.36 258.243 19.756 258.159 20.104 257.991C20.452 257.823 20.716 257.595 20.908 257.283C21.1 256.971 21.196 256.623 21.196 256.227C21.196 255.627 20.992 255.135 20.572 254.763ZM16.78 251.729V252.833H15.88V251.729H14.164V250.745H15.88L15.88 249.197H16.78V250.745H20.392C20.656 250.745 20.836 250.697 20.944 250.601C21.052 250.505 21.1 250.325 21.1 250.073V249.005H22V250.133C22 250.709 21.88 251.129 21.616 251.369C21.364 251.609 20.956 251.729 20.404 251.729H16.78ZM21.1 242.674H22V243.214C22 243.61 21.928 243.886 21.76 244.054C21.604 244.222 21.364 244.318 21.052 244.318C21.736 244.798 22.072 245.482 22.072 246.37C22.072 247.054 21.916 247.606 21.592 248.014C21.28 248.422 20.836 248.626 20.284 248.626C19.672 248.626 19.204 248.422 18.868 248.002C18.544 247.582 18.376 246.97 18.376 246.166V244.366H17.956C17.56 244.366 17.248 244.51 17.02 244.774C16.804 245.038 16.684 245.41 16.684 245.89C16.684 246.322 16.78 246.67 16.972 246.946C17.164 247.222 17.404 247.39 17.716 247.45V248.434C17.116 248.362 16.648 248.098 16.312 247.642C15.976 247.186 15.808 246.586 15.808 245.842C15.808 245.062 16 244.462 16.384 244.03C16.768 243.598 17.308 243.382 18.016 243.382H20.656C20.956 243.382 21.1 243.25 21.1 242.974V242.674ZM19.204 244.366V246.262C19.204 247.174 19.552 247.63 20.224 247.63C20.536 247.63 20.776 247.51 20.956 247.27C21.148 247.03 21.232 246.706 21.232 246.298C21.232 245.698 21.076 245.23 20.764 244.882C20.452 244.546 20.032 244.366 19.504 244.366H19.204ZM13.6 241.918V240.934H19.168L15.88 237.826V236.65L18.388 239.002L22 236.482V237.67L19.096 239.71L20.38 240.934H22V241.918H13.6ZM17.296 235.926C16.828 235.686 16.468 235.338 16.204 234.894C15.94 234.462 15.808 233.958 15.808 233.382C15.808 232.83 15.928 232.326 16.156 231.894C16.396 231.462 16.732 231.126 17.164 230.874C17.608 230.634 18.124 230.502 18.712 230.478C18.808 230.478 18.94 230.49 19.132 230.502L19.132 235.254H19.216C19.816 235.242 20.296 235.062 20.656 234.702C21.016 234.354 21.196 233.898 21.196 233.322C21.196 232.89 21.088 232.518 20.872 232.206C20.656 231.894 20.344 231.69 19.948 231.582V230.586C20.572 230.706 21.088 231.006 21.484 231.486C21.88 231.966 22.072 232.554 22.072 233.25C22.072 233.862 21.952 234.39 21.688 234.846C21.424 235.302 21.064 235.662 20.584 235.914C20.104 236.166 19.564 236.286 18.94 236.286C18.316 236.286 17.776 236.166 17.296 235.926ZM18.316 231.498C17.8 231.546 17.392 231.75 17.104 232.086C16.816 232.422 16.672 232.854 16.672 233.37C16.672 233.838 16.828 234.246 17.128 234.594C17.44 234.954 17.836 235.146 18.316 235.194L18.316 231.498ZM13.6 223.287C14.596 224.007 15.496 224.523 16.288 224.811C17.08 225.111 17.992 225.255 19 225.255C20.008 225.255 20.92 225.111 21.712 224.811C22.504 224.523 23.404 224.007 24.4 223.287V224.319C23.488 224.991 22.612 225.483 21.772 225.783C20.932 226.083 20.008 226.227 19 226.227C17.992 226.227 17.08 226.083 16.24 225.783C15.4 225.483 14.524 224.991 13.6 224.319V223.287ZM16.48 217.829C16.936 217.373 17.632 217.145 18.592 217.145H22V218.129H18.652C18.028 218.129 17.548 218.273 17.212 218.561C16.876 218.849 16.708 219.257 16.708 219.785C16.708 220.361 16.912 220.817 17.308 221.141C17.716 221.477 18.256 221.633 18.94 221.633H22V222.617H15.88V221.765L16.708 221.633C16.108 221.177 15.808 220.505 15.808 219.617C15.808 218.873 16.036 218.285 16.48 217.829ZM21.676 214.654C21.412 215.11 21.052 215.47 20.572 215.722C20.104 215.986 19.564 216.106 18.94 216.106C18.328 216.106 17.788 215.986 17.308 215.722C16.84 215.47 16.468 215.11 16.204 214.654C15.94 214.198 15.808 213.67 15.808 213.07C15.808 212.482 15.94 211.954 16.204 211.498C16.468 211.042 16.84 210.682 17.308 210.418C17.788 210.166 18.328 210.034 18.94 210.034C19.564 210.034 20.104 210.166 20.572 210.418C21.052 210.682 21.412 211.042 21.676 211.498C21.94 211.954 22.072 212.482 22.072 213.07C22.072 213.67 21.94 214.198 21.676 214.654ZM20.908 212.014C20.716 211.702 20.452 211.462 20.104 211.294C19.768 211.126 19.372 211.042 18.94 211.042C18.508 211.042 18.124 211.126 17.776 211.294C17.44 211.462 17.164 211.702 16.972 212.014C16.78 212.326 16.684 212.674 16.684 213.07C16.684 213.479 16.78 213.826 16.972 214.138C17.164 214.45 17.44 214.678 17.776 214.846C18.124 215.014 18.508 215.098 18.94 215.098C19.372 215.098 19.768 215.014 20.104 214.846C20.452 214.678 20.716 214.45 20.908 214.138C21.1 213.826 21.196 213.479 21.196 213.07C21.196 212.674 21.1 212.326 20.908 212.014ZM15.88 205.798H16.84V206.29C16.84 206.878 17.044 207.298 17.428 207.55C17.824 207.802 18.304 207.922 18.88 207.922H22V208.906H15.88V208.054L16.804 207.922C16.528 207.754 16.3 207.526 16.132 207.238C15.964 206.962 15.88 206.578 15.88 206.074V205.798ZM16.456 196.402C16.888 195.97 17.56 195.754 18.472 195.754H22V196.738H18.532C17.944 196.738 17.488 196.87 17.176 197.122C16.864 197.374 16.708 197.734 16.708 198.19C16.708 198.706 16.888 199.114 17.248 199.402C17.608 199.69 18.1 199.834 18.724 199.834H22V200.818H18.532C17.944 200.818 17.488 200.95 17.176 201.202C16.864 201.466 16.708 201.826 16.708 202.294C16.708 202.798 16.9 203.194 17.284 203.482C17.668 203.77 18.16 203.914 18.772 203.914H22V204.898H15.88V204.046L16.72 203.914C16.12 203.482 15.808 202.882 15.808 202.126C15.808 201.694 15.916 201.298 16.108 200.962C16.3 200.626 16.588 200.362 16.972 200.194C16.204 199.762 15.808 199.054 15.808 198.07C15.808 197.386 16.024 196.834 16.456 196.402ZM21.1 188.768H22V189.308C22 189.704 21.928 189.98 21.76 190.148C21.604 190.316 21.364 190.412 21.052 190.412C21.736 190.892 22.072 191.576 22.072 192.464C22.072 193.148 21.916 193.7 21.592 194.108C21.28 194.516 20.836 194.72 20.284 194.72C19.672 194.72 19.204 194.516 18.868 194.096C18.544 193.676 18.376 193.064 18.376 192.26V190.46H17.956C17.56 190.46 17.248 190.604 17.02 190.868C16.804 191.132 16.684 191.504 16.684 191.984C16.684 192.416 16.78 192.764 16.972 193.04C17.164 193.316 17.404 193.484 17.716 193.544V194.528C17.116 194.456 16.648 194.192 16.312 193.736C15.976 193.28 15.808 192.68 15.808 191.936C15.808 191.156 16 190.556 16.384 190.124C16.768 189.692 17.308 189.476 18.016 189.476H20.656C20.956 189.476 21.1 189.344 21.1 189.068V188.768ZM19.204 190.46V192.356C19.204 193.268 19.552 193.724 20.224 193.724C20.536 193.724 20.776 193.604 20.956 193.364C21.148 193.124 21.232 192.8 21.232 192.392C21.232 191.792 21.076 191.324 20.764 190.976C20.452 190.64 20.032 190.46 19.504 190.46H19.204ZM13.6 188.012V187.028H22V188.012H13.6ZM13.696 184.732C13.816 184.612 13.972 184.552 14.152 184.552C14.344 184.552 14.488 184.612 14.608 184.732C14.728 184.852 14.788 185.008 14.788 185.188C14.788 185.38 14.728 185.524 14.608 185.644C14.488 185.764 14.344 185.824 14.152 185.824C13.972 185.824 13.816 185.764 13.696 185.644C13.576 185.524 13.516 185.38 13.516 185.188C13.516 185.008 13.576 184.852 13.696 184.732ZM15.88 185.68V184.696H22V185.68H15.88ZM15.88 183.6V178.728H16.624L21.1 182.448V178.572H22V183.756H21.256L16.78 180.048V183.6H15.88ZM17.296 177.813C16.828 177.573 16.468 177.225 16.204 176.781C15.94 176.349 15.808 175.845 15.808 175.269C15.808 174.717 15.928 174.213 16.156 173.781C16.396 173.349 16.732 173.013 17.164 172.761C17.608 172.521 18.124 172.389 18.712 172.365C18.808 172.365 18.94 172.377 19.132 172.389V177.141H19.216C19.816 177.129 20.296 176.949 20.656 176.589C21.016 176.241 21.196 175.785 21.196 175.209C21.196 174.777 21.088 174.405 20.872 174.093C20.656 173.781 20.344 173.577 19.948 173.469V172.473C20.572 172.593 21.088 172.893 21.484 173.373C21.88 173.853 22.072 174.441 22.072 175.137C22.072 175.749 21.952 176.277 21.688 176.733C21.424 177.189 21.064 177.549 20.584 177.801C20.104 178.053 19.564 178.173 18.94 178.173C18.316 178.173 17.776 178.053 17.296 177.813ZM18.316 173.385C17.8 173.433 17.392 173.637 17.104 173.973C16.816 174.309 16.672 174.741 16.672 175.257C16.672 175.725 16.828 176.133 17.128 176.481C17.44 176.841 17.836 177.033 18.316 177.081V173.385ZM13.6 165.434H22V166.286L21.016 166.418C21.724 166.934 22.072 167.63 22.072 168.518C22.072 169.094 21.952 169.598 21.7 170.042C21.46 170.486 21.1 170.834 20.62 171.086C20.152 171.338 19.588 171.458 18.94 171.458C18.328 171.458 17.788 171.338 17.308 171.086C16.84 170.834 16.468 170.486 16.204 170.03C15.94 169.586 15.808 169.082 15.808 168.518C15.808 168.026 15.904 167.606 16.084 167.246C16.264 166.898 16.504 166.622 16.816 166.418H13.6V165.434ZM20.92 167.378C20.728 167.066 20.464 166.826 20.128 166.658C19.792 166.49 19.396 166.406 18.964 166.406C18.532 166.406 18.136 166.49 17.788 166.658C17.44 166.826 17.164 167.066 16.972 167.378C16.78 167.69 16.684 168.038 16.684 168.422C16.684 169.034 16.9 169.526 17.32 169.898C17.74 170.27 18.28 170.45 18.94 170.45C19.612 170.45 20.152 170.27 20.572 169.898C20.992 169.526 21.196 169.034 21.196 168.422C21.196 168.038 21.112 167.69 20.92 167.378ZM16.24 162.222C17.08 161.922 17.992 161.766 19 161.766C20.008 161.766 20.932 161.922 21.772 162.222C22.612 162.522 23.488 163.002 24.4 163.674V164.706C23.404 163.986 22.504 163.482 21.712 163.182C20.92 162.894 20.008 162.738 19 162.738C17.992 162.738 17.08 162.894 16.288 163.182C15.496 163.482 14.596 163.986 13.6 164.706V163.674C14.524 163.002 15.4 162.522 16.24 162.222Z" fill="#0094D3"/>
<path d="M338.6 177.694V171.202H339.56V173.926H347V174.97H339.56V177.694H338.6ZM342.296 171.166C341.828 170.926 341.468 170.578 341.204 170.134C340.94 169.702 340.808 169.198 340.808 168.622C340.808 168.07 340.928 167.566 341.156 167.134C341.396 166.702 341.732 166.366 342.164 166.114C342.608 165.874 343.124 165.742 343.712 165.718C343.808 165.718 343.94 165.73 344.132 165.742V170.494H344.216C344.816 170.482 345.296 170.302 345.656 169.942C346.016 169.594 346.196 169.138 346.196 168.562C346.196 168.13 346.088 167.758 345.872 167.446C345.656 167.134 345.344 166.93 344.948 166.822V165.826C345.572 165.946 346.088 166.246 346.484 166.726C346.88 167.206 347.072 167.794 347.072 168.49C347.072 169.102 346.952 169.63 346.688 170.086C346.424 170.542 346.064 170.902 345.584 171.154C345.104 171.406 344.564 171.526 343.94 171.526C343.316 171.526 342.776 171.406 342.296 171.166ZM343.316 166.738C342.8 166.786 342.392 166.99 342.104 167.326C341.816 167.662 341.672 168.094 341.672 168.61C341.672 169.078 341.828 169.486 342.128 169.834C342.44 170.194 342.836 170.386 343.316 170.434V166.738ZM341.456 156.1C341.888 155.668 342.56 155.452 343.472 155.452H347V156.436H343.532C342.944 156.436 342.488 156.568 342.176 156.82C341.864 157.072 341.708 157.432 341.708 157.888C341.708 158.404 341.888 158.812 342.248 159.1C342.608 159.388 343.1 159.532 343.724 159.532H347V160.516H343.532C342.944 160.516 342.488 160.648 342.176 160.9C341.864 161.164 341.708 161.524 341.708 161.992C341.708 162.496 341.9 162.892 342.284 163.18C342.668 163.468 343.16 163.612 343.772 163.612H347V164.596H340.88V163.744L341.72 163.612C341.12 163.18 340.808 162.58 340.808 161.824C340.808 161.392 340.916 160.996 341.108 160.66C341.3 160.324 341.588 160.06 341.972 159.892C341.204 159.46 340.808 158.752 340.808 157.768C340.808 157.084 341.024 156.532 341.456 156.1ZM341.18 149.593C341.432 149.149 341.792 148.801 342.26 148.549C342.74 148.297 343.292 148.165 343.94 148.165C344.564 148.165 345.104 148.297 345.572 148.549C346.052 148.801 346.412 149.149 346.676 149.593C346.94 150.049 347.072 150.553 347.072 151.105C347.072 151.609 346.988 152.029 346.808 152.377C346.628 152.737 346.376 153.013 346.064 153.205H349.4V154.189H340.88V153.337L341.864 153.205C341.168 152.701 340.808 151.993 340.808 151.105C340.808 150.541 340.94 150.037 341.18 149.593ZM345.572 149.737C345.152 149.365 344.612 149.173 343.94 149.173C343.28 149.173 342.74 149.365 342.32 149.737C341.9 150.109 341.684 150.601 341.684 151.201C341.684 151.597 341.78 151.945 341.972 152.257C342.164 152.569 342.428 152.797 342.764 152.965C343.1 153.133 343.484 153.217 343.916 153.217C344.36 153.217 344.756 153.133 345.104 152.965C345.452 152.797 345.716 152.569 345.908 152.257C346.1 151.945 346.196 151.597 346.196 151.201C346.196 150.601 345.992 150.109 345.572 149.737ZM338.6 140.972C339.596 141.692 340.496 142.208 341.288 142.496C342.08 142.796 342.992 142.94 344 142.94C345.008 142.94 345.92 142.796 346.712 142.496C347.504 142.208 348.404 141.692 349.4 140.972V142.004C348.488 142.676 347.612 143.168 346.772 143.468C345.932 143.768 345.008 143.912 344 143.912C342.992 143.912 342.08 143.768 341.24 143.468C340.4 143.168 339.524 142.676 338.6 142.004V140.972ZM339.488 140.159C339.2 139.991 338.96 139.751 338.792 139.439C338.624 139.127 338.54 138.791 338.54 138.407C338.54 138.035 338.624 137.699 338.792 137.387C338.96 137.075 339.2 136.835 339.488 136.655C339.788 136.487 340.124 136.391 340.484 136.391C340.844 136.391 341.18 136.487 341.468 136.655C341.756 136.835 341.984 137.075 342.152 137.387C342.32 137.699 342.404 138.035 342.404 138.407C342.404 138.791 342.32 139.127 342.152 139.439C341.984 139.751 341.756 139.991 341.468 140.159C341.18 140.339 340.844 140.423 340.484 140.423C340.124 140.423 339.788 140.339 339.488 140.159ZM339.632 137.555C339.416 137.783 339.296 138.071 339.296 138.407C339.296 138.755 339.416 139.043 339.632 139.259C339.86 139.487 340.148 139.595 340.484 139.595C340.82 139.595 341.108 139.487 341.324 139.259C341.54 139.043 341.648 138.755 341.648 138.407C341.648 138.071 341.54 137.783 341.324 137.555C341.108 137.339 340.82 137.219 340.484 137.219C340.148 137.219 339.86 137.339 339.632 137.555ZM340.568 135.209C339.92 134.885 339.428 134.417 339.068 133.805C338.708 133.205 338.528 132.497 338.528 131.693C338.528 130.769 338.78 129.989 339.284 129.365C339.788 128.741 340.484 128.345 341.348 128.177V129.221C340.772 129.377 340.316 129.677 339.98 130.121C339.656 130.565 339.488 131.105 339.488 131.741C339.488 132.317 339.632 132.833 339.908 133.265C340.196 133.709 340.58 134.045 341.084 134.285C341.588 134.525 342.152 134.633 342.8 134.633C343.448 134.633 344.012 134.525 344.516 134.285C345.02 134.045 345.416 133.709 345.692 133.265C345.98 132.833 346.112 132.317 346.112 131.741C346.112 131.093 345.956 130.553 345.632 130.121C345.308 129.689 344.852 129.401 344.252 129.233V128.189C345.128 128.357 345.812 128.741 346.316 129.365C346.82 129.989 347.072 130.757 347.072 131.693C347.072 132.497 346.904 133.205 346.544 133.805C346.184 134.417 345.692 134.885 345.044 135.209C344.396 135.545 343.652 135.701 342.8 135.701C341.96 135.701 341.216 135.545 340.568 135.209ZM341.24 125.06C342.08 124.76 342.992 124.604 344 124.604C345.008 124.604 345.932 124.76 346.772 125.06C347.612 125.36 348.488 125.84 349.4 126.512V127.544C348.404 126.824 347.504 126.32 346.712 126.02C345.92 125.732 345.008 125.576 344 125.576C342.992 125.576 342.08 125.732 341.288 126.02C340.496 126.32 339.596 126.824 338.6 127.544V126.512C339.524 125.84 340.4 125.36 341.24 125.06Z" fill="#FF7D38"/>
<path d="M30.12 33.4C30.984 33.4 31.758 33.58 32.424 33.904C33.072 34.228 33.594 34.696 33.954 35.308C34.314 35.92 34.512 36.622 34.512 37.414C34.512 38.26 34.278 38.998 33.846 39.628C33.396 40.276 32.802 40.726 32.064 40.978L34.728 46H32.424L30.03 41.428H27.222V46H25.152V33.4H30.12ZM27.222 39.628H29.958C30.696 39.628 31.29 39.43 31.722 39.034C32.154 38.638 32.388 38.098 32.388 37.414C32.388 36.748 32.154 36.208 31.722 35.812C31.29 35.416 30.696 35.2 29.958 35.2H27.222V39.628ZM44.3476 44.308V46H43.3216C42.7096 46 42.2776 45.874 42.0256 45.622C41.7556 45.37 41.6296 45.01 41.6296 44.524C40.9276 45.586 39.9196 46.108 38.5876 46.108C37.5436 46.108 36.7156 45.874 36.1036 45.388C35.4736 44.92 35.1676 44.254 35.1676 43.408C35.1676 42.472 35.4916 41.734 36.1756 41.23C36.8416 40.726 37.8136 40.456 39.1096 40.456H41.4316V39.898C41.4316 39.394 41.2516 38.98 40.8916 38.692C40.5316 38.404 40.0276 38.242 39.3976 38.242C38.8216 38.242 38.3536 38.368 37.9936 38.62C37.6336 38.872 37.4176 39.196 37.3456 39.592H35.4376C35.5276 38.674 35.9416 37.954 36.6616 37.45C37.3816 36.946 38.3176 36.676 39.4876 36.676C40.7116 36.676 41.6656 36.964 42.3496 37.54C43.0156 38.116 43.3576 38.944 43.3576 40.024V43.66C43.3576 44.092 43.5556 44.308 43.9696 44.308H44.3476ZM41.4316 41.896H39.0196C38.4076 41.896 37.9576 42.022 37.6336 42.256C37.3096 42.49 37.1476 42.832 37.1476 43.282C37.1476 43.678 37.2916 44.002 37.5976 44.236C37.9036 44.488 38.3176 44.596 38.8576 44.596C39.6496 44.596 40.2796 44.38 40.7296 43.948C41.1796 43.516 41.4136 42.94 41.4316 42.22V41.896ZM52.2285 37.252C52.8765 37.63 53.3985 38.17 53.7765 38.89C54.1365 39.61 54.3345 40.438 54.3345 41.392C54.3345 42.328 54.1365 43.156 53.7765 43.876C53.3985 44.596 52.8765 45.136 52.2285 45.532C51.5625 45.928 50.8065 46.108 49.9785 46.108C49.2945 46.108 48.7005 45.982 48.1965 45.73C47.6925 45.478 47.2785 45.136 46.9905 44.704V49.6H45.0465V36.784H46.7385L46.9725 38.152C47.7105 37.18 48.7185 36.676 49.9785 36.676C50.8065 36.676 51.5625 36.874 52.2285 37.252ZM51.5985 43.606C52.1025 43.03 52.3545 42.292 52.3545 41.392C52.3545 40.492 52.1025 39.754 51.5985 39.178C51.0945 38.62 50.4465 38.332 49.6545 38.332C48.8445 38.332 48.1965 38.62 47.7105 39.178C47.2065 39.736 46.9725 40.456 46.9725 41.356C46.9725 42.292 47.2065 43.03 47.7105 43.606C48.1965 44.182 48.8445 44.47 49.6545 44.47C50.4465 44.47 51.0945 44.182 51.5985 43.606ZM57.3502 33.436C57.5662 33.652 57.6922 33.94 57.6922 34.264C57.6922 34.606 57.5662 34.894 57.3502 35.11C57.1162 35.326 56.8282 35.434 56.5042 35.434C56.1622 35.434 55.8742 35.326 55.6582 35.11C55.4242 34.894 55.3162 34.606 55.3162 34.264C55.3162 33.94 55.4242 33.652 55.6582 33.436C55.8742 33.22 56.1622 33.094 56.5042 33.094C56.8282 33.094 57.1162 33.22 57.3502 33.436ZM55.5322 36.784H57.4762V46H55.5322V36.784ZM67.9678 33.4V46H66.2758L66.0418 44.614C65.3038 45.622 64.2958 46.108 63.0358 46.108C62.1898 46.108 61.4338 45.928 60.7858 45.55C60.1198 45.172 59.5978 44.632 59.2378 43.912C58.8598 43.192 58.6798 42.364 58.6798 41.392C58.6798 40.456 58.8598 39.646 59.2378 38.926C59.6158 38.206 60.1378 37.666 60.8038 37.27C61.4518 36.874 62.2078 36.676 63.0358 36.676C63.7018 36.676 64.2958 36.802 64.7998 37.054C65.3038 37.306 65.6998 37.63 66.0238 38.062V33.4H67.9678ZM65.3038 43.624C65.7898 43.066 66.0418 42.328 66.0418 41.428C66.0418 40.51 65.7898 39.772 65.3038 39.196C64.7998 38.62 64.1518 38.332 63.3598 38.332C62.5498 38.332 61.9018 38.62 61.4158 39.196C60.9118 39.772 60.6778 40.492 60.6778 41.392C60.6778 42.31 60.9118 43.048 61.4158 43.624C61.9018 44.2 62.5498 44.47 63.3598 44.47C64.1518 44.47 64.7998 44.2 65.3038 43.624ZM74.347 38.494H72.745V36.784H74.347V34.21H76.309V36.784H78.523V38.494H76.309V43.3C76.309 43.66 76.381 43.93 76.525 44.074C76.669 44.218 76.903 44.29 77.263 44.29H78.739V46H76.867C75.985 46 75.337 45.802 74.941 45.388C74.545 44.992 74.347 44.362 74.347 43.498V38.494ZM86.9463 37.684C87.6303 38.368 87.9903 39.448 87.9903 40.924V46H86.0463V41.032C86.0463 40.168 85.8483 39.502 85.4703 39.034C85.0923 38.584 84.5523 38.35 83.8323 38.35C83.0583 38.35 82.4463 38.62 82.0143 39.16C81.5823 39.7 81.3663 40.42 81.3663 41.338V46H79.4223V33.4H81.3663V38.116C82.0503 37.162 83.0223 36.676 84.2643 36.676C85.3623 36.676 86.2623 37.018 86.9463 37.684ZM89.6142 38.926C89.9922 38.206 90.5142 37.666 91.1982 37.27C91.8822 36.874 92.6562 36.676 93.5382 36.676C94.4202 36.676 95.1942 36.856 95.8782 37.216C96.5622 37.576 97.0842 38.098 97.4802 38.746C97.8762 39.412 98.0742 40.186 98.0922 41.068C98.0922 41.32 98.0742 41.554 98.0382 41.806H91.0902V41.914C91.1262 42.724 91.3782 43.354 91.8462 43.822C92.2962 44.29 92.9082 44.524 93.6642 44.524C94.2582 44.524 94.7622 44.398 95.1762 44.11C95.5722 43.822 95.8422 43.426 95.9862 42.904H97.9302C97.7502 43.84 97.3002 44.614 96.5622 45.208C95.8242 45.82 94.9062 46.108 93.8082 46.108C92.8362 46.108 92.0082 45.928 91.2882 45.532C90.5682 45.136 90.0282 44.596 89.6322 43.876C89.2362 43.174 89.0562 42.346 89.0562 41.41C89.0562 40.474 89.2362 39.646 89.6142 38.926ZM96.1122 40.384C96.0222 39.718 95.7522 39.196 95.3022 38.818C94.8522 38.44 94.2942 38.242 93.6102 38.242C92.9622 38.242 92.4222 38.44 91.9542 38.836C91.4862 39.232 91.2342 39.736 91.1622 40.384H96.1122ZM104.398 36.784V38.602H103.534C102.724 38.602 102.148 38.872 101.788 39.394C101.428 39.916 101.248 40.582 101.248 41.374V46H99.3038V36.784H101.032L101.248 38.17C101.5 37.738 101.842 37.414 102.274 37.162C102.688 36.91 103.246 36.784 103.966 36.784H104.398ZM118.376 37.666C119.006 38.314 119.33 39.358 119.33 40.798V46H117.386V40.816C117.386 40.024 117.224 39.412 116.9 38.98C116.576 38.566 116.09 38.35 115.46 38.35C114.776 38.35 114.254 38.602 113.858 39.07C113.462 39.538 113.282 40.186 113.282 41.014V46H111.32V40.816C111.32 40.006 111.14 39.394 110.816 38.98C110.492 38.566 110.006 38.35 109.376 38.35C108.71 38.35 108.188 38.602 107.792 39.088C107.396 39.592 107.216 40.24 107.216 41.068V46H105.272V36.784H106.964L107.18 37.99C107.828 37.126 108.728 36.694 109.88 36.676C110.528 36.676 111.086 36.82 111.59 37.09C112.076 37.378 112.454 37.792 112.724 38.35C113.048 37.828 113.462 37.414 114.002 37.126C114.524 36.838 115.154 36.676 115.91 36.676C116.918 36.676 117.728 37.018 118.376 37.666ZM129.552 44.308V46H128.526C127.914 46 127.482 45.874 127.23 45.622C126.96 45.37 126.834 45.01 126.834 44.524C126.132 45.586 125.124 46.108 123.792 46.108C122.748 46.108 121.92 45.874 121.308 45.388C120.678 44.92 120.372 44.254 120.372 43.408C120.372 42.472 120.696 41.734 121.38 41.23C122.046 40.726 123.018 40.456 124.314 40.456H126.636V39.898C126.636 39.394 126.456 38.98 126.096 38.692C125.736 38.404 125.232 38.242 124.602 38.242C124.026 38.242 123.558 38.368 123.198 38.62C122.838 38.872 122.622 39.196 122.55 39.592H120.642C120.732 38.674 121.146 37.954 121.866 37.45C122.586 36.946 123.522 36.676 124.692 36.676C125.916 36.676 126.87 36.964 127.554 37.54C128.22 38.116 128.562 38.944 128.562 40.024V43.66C128.562 44.092 128.76 44.308 129.174 44.308H129.552ZM126.636 41.896H124.224C123.612 41.896 123.162 42.022 122.838 42.256C122.514 42.49 122.352 42.832 122.352 43.282C122.352 43.678 122.496 44.002 122.802 44.236C123.108 44.488 123.522 44.596 124.062 44.596C124.854 44.596 125.484 44.38 125.934 43.948C126.384 43.516 126.618 42.94 126.636 42.22V41.896ZM130.251 33.4H132.195V46H130.251V33.4ZM145.096 45.208C144.34 45.82 143.386 46.108 142.234 46.108C141.316 46.108 140.506 45.928 139.822 45.532C139.12 45.136 138.58 44.578 138.202 43.858C137.824 43.138 137.644 42.31 137.644 41.374C137.644 40.438 137.824 39.628 138.22 38.908C138.598 38.206 139.138 37.666 139.84 37.27C140.542 36.874 141.352 36.676 142.288 36.676C143.44 36.676 144.376 36.982 145.114 37.594C145.834 38.206 146.302 39.016 146.482 40.06H144.484C144.34 39.538 144.088 39.124 143.692 38.8C143.296 38.494 142.81 38.332 142.234 38.332C141.442 38.332 140.812 38.62 140.344 39.178C139.876 39.754 139.642 40.474 139.642 41.374C139.642 42.292 139.876 43.03 140.344 43.606C140.812 44.182 141.442 44.452 142.234 44.452C142.828 44.452 143.332 44.308 143.728 43.984C144.124 43.66 144.376 43.228 144.502 42.688H146.482C146.302 43.768 145.834 44.596 145.096 45.208ZM148.446 36.784L151.02 43.894L153.522 36.784H155.592L151.416 47.44C151.2 47.998 151.002 48.43 150.822 48.718C150.642 49.006 150.408 49.24 150.156 49.384C149.886 49.528 149.526 49.6 149.094 49.6H147.006V47.89H148.374C148.734 47.89 149.004 47.836 149.148 47.728C149.292 47.62 149.436 47.35 149.598 46.954L149.976 46.072L146.376 36.784H148.446ZM162.974 45.208C162.218 45.82 161.264 46.108 160.112 46.108C159.194 46.108 158.384 45.928 157.7 45.532C156.998 45.136 156.458 44.578 156.08 43.858C155.702 43.138 155.522 42.31 155.522 41.374C155.522 40.438 155.702 39.628 156.098 38.908C156.476 38.206 157.016 37.666 157.718 37.27C158.42 36.874 159.23 36.676 160.166 36.676C161.318 36.676 162.254 36.982 162.992 37.594C163.712 38.206 164.18 39.016 164.36 40.06H162.362C162.218 39.538 161.966 39.124 161.57 38.8C161.174 38.494 160.688 38.332 160.112 38.332C159.32 38.332 158.69 38.62 158.222 39.178C157.754 39.754 157.52 40.474 157.52 41.374C157.52 42.292 157.754 43.03 158.222 43.606C158.69 44.182 159.32 44.452 160.112 44.452C160.706 44.452 161.21 44.308 161.606 43.984C162.002 43.66 162.254 43.228 162.38 42.688H164.36C164.18 43.768 163.712 44.596 162.974 45.208ZM165.559 33.4H167.503V46H165.559V33.4ZM170.866 33.436C171.082 33.652 171.208 33.94 171.208 34.264C171.208 34.606 171.082 34.894 170.866 35.11C170.632 35.326 170.344 35.434 170.02 35.434C169.678 35.434 169.39 35.326 169.174 35.11C168.94 34.894 168.832 34.606 168.832 34.264C168.832 33.94 168.94 33.652 169.174 33.436C169.39 33.22 169.678 33.094 170.02 33.094C170.344 33.094 170.632 33.22 170.866 33.436ZM169.048 36.784H170.992V46H169.048V36.784ZM180.062 37.684C180.746 38.368 181.106 39.448 181.106 40.924V46H179.144V41.032C179.144 40.168 178.946 39.502 178.586 39.034C178.208 38.584 177.668 38.35 176.948 38.35C176.174 38.35 175.562 38.62 175.13 39.16C174.698 39.7 174.482 40.42 174.482 41.356V46H172.538V36.784H174.23L174.446 37.99C175.13 37.126 176.12 36.676 177.398 36.676C178.478 36.676 179.378 37.018 180.062 37.684ZM191.46 36.784V45.622C191.46 46.918 191.064 47.926 190.308 48.646C189.534 49.366 188.346 49.708 186.744 49.708C185.484 49.708 184.476 49.438 183.702 48.88C182.91 48.322 182.478 47.53 182.406 46.504H184.386C184.494 47.026 184.782 47.422 185.214 47.71C185.646 47.998 186.204 48.124 186.888 48.124C188.652 48.124 189.534 47.278 189.534 45.55V44.524C188.85 45.532 187.86 46.036 186.528 46.036C185.682 46.036 184.926 45.856 184.278 45.478C183.612 45.1 183.09 44.56 182.73 43.858C182.352 43.156 182.172 42.328 182.172 41.356C182.172 40.438 182.352 39.628 182.73 38.908C183.108 38.206 183.63 37.666 184.296 37.27C184.944 36.874 185.7 36.676 186.528 36.676C187.212 36.676 187.824 36.82 188.328 37.09C188.832 37.378 189.228 37.756 189.552 38.224L189.768 36.784H191.46ZM188.796 43.57C189.282 43.012 189.534 42.292 189.534 41.392C189.534 40.492 189.282 39.754 188.796 39.178C188.292 38.602 187.644 38.314 186.852 38.314C186.042 38.314 185.394 38.602 184.908 39.16C184.404 39.736 184.17 40.456 184.17 41.356C184.17 42.256 184.404 42.994 184.908 43.552C185.394 44.128 186.042 44.398 186.852 44.398C187.644 44.398 188.292 44.128 188.796 43.57Z" fill="black"/>
<path d="M322.822 306.084C320.302 306.084 318.902 304.306 318.902 301.1C318.902 297.88 320.316 296.116 322.878 296.116C324.796 296.116 326.084 297.348 326.392 299.532H324.754C324.474 298.174 323.858 297.53 322.85 297.53C321.324 297.53 320.512 298.762 320.512 301.1C320.512 303.466 321.296 304.67 322.822 304.67C323.872 304.67 324.46 304.04 324.74 302.668H326.392C326.07 304.852 324.796 306.084 322.822 306.084ZM330.999 306.084C328.703 306.084 327.303 304.194 327.303 301.1C327.303 298.006 328.703 296.116 330.999 296.116C333.295 296.116 334.695 298.006 334.695 301.1C334.695 304.194 333.295 306.084 330.999 306.084ZM330.999 304.67C332.399 304.67 333.085 303.48 333.085 301.1C333.085 298.72 332.399 297.53 330.999 297.53C329.599 297.53 328.913 298.706 328.913 301.1C328.913 303.494 329.599 304.67 330.999 304.67ZM337.469 307.4V306.49L339.513 304.964C339.891 304.67 340.213 304.362 340.213 303.9C340.213 303.452 339.849 303.158 339.359 303.158C338.813 303.158 338.463 303.48 338.463 304.096V304.152H337.441V304.054C337.441 302.934 338.281 302.22 339.345 302.22C340.521 302.22 341.277 302.878 341.277 303.872C341.277 304.628 340.815 305.062 340.311 305.454L339.023 306.434H341.333V307.4H337.469Z" fill="#8FD356"/>
<path d="M319.252 277V267.2H320.848V271.316H324.348V267.2H325.944V277H324.348V272.744H320.848V277H319.252ZM329.067 278.4V277.49L331.111 275.964C331.489 275.67 331.811 275.362 331.811 274.9C331.811 274.452 331.447 274.158 330.957 274.158C330.411 274.158 330.061 274.48 330.061 275.096V275.152H329.039V275.054C329.039 273.934 329.879 273.22 330.943 273.22C332.119 273.22 332.875 273.878 332.875 274.872C332.875 275.628 332.413 276.062 331.909 276.454L330.621 277.434H332.931V278.4H329.067ZM339.401 277.084C337.105 277.084 335.705 275.194 335.705 272.1C335.705 269.006 337.105 267.116 339.401 267.116C341.697 267.116 343.097 269.006 343.097 272.1C343.097 275.194 341.697 277.084 339.401 277.084ZM339.401 275.67C340.801 275.67 341.487 274.48 341.487 272.1C341.487 269.72 340.801 268.53 339.401 268.53C338.001 268.53 337.315 269.706 337.315 272.1C337.315 274.494 338.001 275.67 339.401 275.67Z" fill="#0094D3"/>
</svg>
