<svg width="700" height="429" viewBox="0 0 700 429" fill="none" xmlns="http://www.w3.org/2000/svg">
<path opacity="0.2" d="M63 239L636 239" stroke="#0094D3" stroke-width="0.5" stroke-miterlimit="10"/>
<path d="M64 211L636 211" stroke="#0094D3" stroke-width="0.5" stroke-miterlimit="10"/>
<path opacity="0.2" d="M63 290L636 290" stroke="#0094D3" stroke-width="0.5" stroke-miterlimit="10"/>
<path opacity="0.2" d="M63 341L636 341" stroke="#0094D3" stroke-width="0.5" stroke-miterlimit="10"/>
<path opacity="0.2" d="M66 77L66 344" stroke="#0094D3" stroke-width="0.5" stroke-miterlimit="10"/>
<path opacity="0.2" d="M147 208L147 344" stroke="#0094D3" stroke-width="0.5" stroke-miterlimit="10"/>
<path opacity="0.2" d="M228 208L228 344" stroke="#0094D3" stroke-width="0.5" stroke-miterlimit="10"/>
<path opacity="0.2" d="M309 208L309 344" stroke="#0094D3" stroke-width="0.5" stroke-miterlimit="10"/>
<path opacity="0.2" d="M390 208L390 344" stroke="#0094D3" stroke-width="0.5" stroke-miterlimit="10"/>
<path opacity="0.2" d="M471 208L471 344" stroke="#0094D3" stroke-width="0.5" stroke-miterlimit="10"/>
<path opacity="0.2" d="M552 208L552 344" stroke="#0094D3" stroke-width="0.5" stroke-miterlimit="10"/>
<path opacity="0.2" d="M633 77L633 344" stroke="#0094D3" stroke-width="0.5" stroke-miterlimit="10"/>
<path d="M147 338V344" stroke="#0094D3" stroke-width="0.5" stroke-miterlimit="10"/>
<path d="M228 338V344" stroke="#0094D3" stroke-width="0.5" stroke-miterlimit="10"/>
<path d="M309 338V344" stroke="#0094D3" stroke-width="0.5" stroke-miterlimit="10"/>
<path d="M390 338V344" stroke="#0094D3" stroke-width="0.5" stroke-miterlimit="10"/>
<path d="M471 338V344" stroke="#0094D3" stroke-width="0.5" stroke-miterlimit="10"/>
<path d="M552 338V344" stroke="#0094D3" stroke-width="0.5" stroke-miterlimit="10"/>
<path d="M633 338V344" stroke="#0094D3" stroke-width="0.5" stroke-miterlimit="10"/>
<path d="M147 208V214" stroke="#0094D3" stroke-width="0.5" stroke-miterlimit="10"/>
<path d="M228 208V214" stroke="#0094D3" stroke-width="0.5" stroke-miterlimit="10"/>
<path d="M309 208V214" stroke="#0094D3" stroke-width="0.5" stroke-miterlimit="10"/>
<path d="M390 208V214" stroke="#0094D3" stroke-width="0.5" stroke-miterlimit="10"/>
<path d="M471 208V214" stroke="#0094D3" stroke-width="0.5" stroke-miterlimit="10"/>
<path d="M552 208V214" stroke="#0094D3" stroke-width="0.5" stroke-miterlimit="10"/>
<path d="M63 81H69" stroke="#0094D3" stroke-width="0.5" stroke-miterlimit="10"/>
<path d="M63 146H69" stroke="#0094D3" stroke-width="0.5" stroke-miterlimit="10"/>
<path d="M63 179H69" stroke="#0094D3" stroke-width="0.5" stroke-miterlimit="10"/>
<path d="M63 113H69" stroke="#0094D3" stroke-width="0.5" stroke-miterlimit="10"/>
<path d="M630 91H636" stroke="#FF7D38" stroke-width="0.5" stroke-miterlimit="10"/>
<path d="M630 131H636" stroke="#FF7D38" stroke-width="0.5" stroke-miterlimit="10"/>
<path d="M630 111H636" stroke="#FF7D38" stroke-width="0.5" stroke-miterlimit="10"/>
<path d="M630 171H636" stroke="#FF7D38" stroke-width="0.5" stroke-miterlimit="10"/>
<path d="M630 151H636" stroke="#FF7D38" stroke-width="0.5" stroke-miterlimit="10"/>
<path d="M630 191H636" stroke="#FF7D38" stroke-width="0.5" stroke-miterlimit="10"/>
<path d="M630 211H636" stroke="#FF7D38" stroke-width="0.5" stroke-miterlimit="10"/>
<path d="M63 211H69" stroke="#0094D3" stroke-width="0.5" stroke-miterlimit="10"/>
<path d="M630 290H636" stroke="#0094D3" stroke-width="0.5" stroke-miterlimit="10"/>
<path d="M63 290H69" stroke="#0094D3" stroke-width="0.5" stroke-miterlimit="10"/>
<path d="M630 239H636" stroke="#0094D3" stroke-width="0.5" stroke-miterlimit="10"/>
<path d="M63 239H69" stroke="#0094D3" stroke-width="0.5" stroke-miterlimit="10"/>
<path d="M630 341H636" stroke="#0094D3" stroke-width="0.5" stroke-miterlimit="10"/>
<path d="M63 341H69" stroke="#0094D3" stroke-width="0.5" stroke-miterlimit="10"/>
<path d="M647.1 94.06C645.49 94.06 644.54 93.24 644.54 92.07C644.54 91.17 645.1 90.57 645.8 90.36C645.22 90.16 644.73 89.61 644.73 88.82C644.73 87.7 645.66 86.94 647.1 86.94C648.54 86.94 649.47 87.7 649.47 88.82C649.47 89.58 648.98 90.16 648.39 90.36C649.08 90.56 649.66 91.14 649.66 92.07C649.66 93.24 648.71 94.06 647.1 94.06ZM647.1 93.19C647.95 93.19 648.53 92.71 648.53 92.03C648.53 91.35 647.95 90.87 647.1 90.87C646.26 90.87 645.67 91.35 645.67 92.03C645.67 92.71 646.26 93.19 647.1 93.19ZM647.1 89.89C647.86 89.89 648.36 89.47 648.36 88.84C648.36 88.23 647.86 87.81 647.1 87.81C646.35 87.81 645.84 88.23 645.84 88.84C645.84 89.47 646.35 89.89 647.1 89.89ZM653.101 94.06C651.521 94.06 650.541 92.8 650.541 90.66V90.34C650.541 88.22 651.521 86.94 653.101 86.94C654.681 86.94 655.661 88.22 655.661 90.34V90.66C655.661 92.8 654.681 94.06 653.101 94.06ZM651.691 91.47L654.251 88.61C654.001 88.12 653.611 87.86 653.101 87.86C652.151 87.86 651.631 88.76 651.631 90.38V90.62C651.631 90.93 651.651 91.21 651.691 91.47ZM653.101 93.13C654.051 93.13 654.571 92.24 654.571 90.62V90.38C654.571 90.07 654.551 89.78 654.511 89.52L651.961 92.39C652.211 92.88 652.591 93.13 653.101 93.13Z" fill="#FF7D38"/>
<path d="M37.7565 84V83.03H39.5165V79.29C39.4165 79.34 39.2965 79.36 39.1565 79.36H37.7765V78.42H39.0365C39.3665 78.42 39.5265 78.13 39.5265 77.77V77H40.6165V83.03H42.2865V84H37.7565ZM45.8977 84.06C44.3177 84.06 43.3377 82.8 43.3377 80.66V80.34C43.3377 78.22 44.3177 76.94 45.8977 76.94C47.4777 76.94 48.4577 78.22 48.4577 80.34V80.66C48.4577 82.8 47.4777 84.06 45.8977 84.06ZM44.4877 81.47L47.0477 78.61C46.7977 78.12 46.4077 77.86 45.8977 77.86C44.9477 77.86 44.4277 78.76 44.4277 80.38V80.62C44.4277 80.93 44.4477 81.21 44.4877 81.47ZM45.8977 83.13C46.8477 83.13 47.3677 82.24 47.3677 80.62V80.38C47.3677 80.07 47.3477 79.78 47.3077 79.52L44.7577 82.39C45.0077 82.88 45.3877 83.13 45.8977 83.13ZM51.8988 84.06C50.3188 84.06 49.3388 82.8 49.3388 80.66V80.34C49.3388 78.22 50.3188 76.94 51.8988 76.94C53.4788 76.94 54.4588 78.22 54.4588 80.34V80.66C54.4588 82.8 53.4788 84.06 51.8988 84.06ZM50.4888 81.47L53.0488 78.61C52.7988 78.12 52.4088 77.86 51.8988 77.86C50.9488 77.86 50.4288 78.76 50.4288 80.38V80.62C50.4288 80.93 50.4488 81.21 50.4888 81.47ZM51.8988 83.13C52.8488 83.13 53.3688 82.24 53.3688 80.62V80.38C53.3688 80.07 53.3488 79.78 53.3088 79.52L50.7588 82.39C51.0088 82.88 51.3888 83.13 51.8988 83.13Z" fill="#0094D3"/>
<path d="M647.74 174V172.38H644.37V171.44L647.51 167H648.84V171.42H649.77V172.38H648.84V174H647.74ZM645.5 171.42H647.74V168.27L645.5 171.42ZM653.101 174.06C651.521 174.06 650.541 172.8 650.541 170.66V170.34C650.541 168.22 651.521 166.94 653.101 166.94C654.681 166.94 655.661 168.22 655.661 170.34V170.66C655.661 172.8 654.681 174.06 653.101 174.06ZM651.691 171.47L654.251 168.61C654.001 168.12 653.611 167.86 653.101 167.86C652.151 167.86 651.631 168.76 651.631 170.38V170.62C651.631 170.93 651.651 171.21 651.691 171.47ZM653.101 173.13C654.051 173.13 654.571 172.24 654.571 170.62V170.38C654.571 170.07 654.551 169.78 654.511 169.52L651.961 172.39C652.211 172.88 652.591 173.13 653.101 173.13Z" fill="#FF7D38"/>
<path d="M647.22 134.06C646.29 134.06 645.56 133.64 645.11 132.93C644.75 132.35 644.54 131.51 644.54 130.55C644.54 128.28 645.56 126.94 647.23 126.94C648.48 126.94 649.39 127.69 649.56 128.91H648.46C648.32 128.26 647.89 127.86 647.18 127.86C646.14 127.86 645.59 128.95 645.59 130.18V130.45C645.82 129.8 646.54 129.34 647.37 129.34C648.72 129.34 649.66 130.28 649.66 131.7C649.66 133.08 648.67 134.06 647.22 134.06ZM647.21 133.15C648.02 133.15 648.55 132.55 648.55 131.7C648.55 130.85 648.04 130.25 647.24 130.25C646.42 130.25 645.87 130.84 645.87 131.71C645.87 132.56 646.41 133.15 647.21 133.15ZM653.101 134.06C651.521 134.06 650.541 132.8 650.541 130.66V130.34C650.541 128.22 651.521 126.94 653.101 126.94C654.681 126.94 655.661 128.22 655.661 130.34V130.66C655.661 132.8 654.681 134.06 653.101 134.06ZM651.691 131.47L654.251 128.61C654.001 128.12 653.611 127.86 653.101 127.86C652.151 127.86 651.631 128.76 651.631 130.38V130.62C651.631 130.93 651.651 131.21 651.691 131.47ZM653.101 133.13C654.051 133.13 654.571 132.24 654.571 130.62V130.38C654.571 130.07 654.551 129.78 654.511 129.52L651.961 132.39C652.211 132.88 652.591 133.13 653.101 133.13Z" fill="#FF7D38"/>
<path d="M45.9577 149.05C44.4077 149.05 43.4977 148.04 43.4277 146.79H44.5277C44.5977 147.52 45.1077 148.12 45.9577 148.12C46.6477 148.12 47.3077 147.62 47.3077 146.65C47.3077 145.8 46.7877 145.19 45.9677 145.19C45.5777 145.19 44.8777 145.33 44.6177 146.05L43.5477 146.03L43.7577 142H48.0177V142.97H44.7777L44.6577 144.86C45.0277 144.45 45.5477 144.28 46.1577 144.28C47.5077 144.28 48.4277 145.24 48.4277 146.65C48.4277 148.22 47.2877 149.05 45.9577 149.05ZM51.8988 149.06C50.3188 149.06 49.3388 147.8 49.3388 145.66V145.34C49.3388 143.22 50.3188 141.94 51.8988 141.94C53.4788 141.94 54.4588 143.22 54.4588 145.34V145.66C54.4588 147.8 53.4788 149.06 51.8988 149.06ZM50.4888 146.47L53.0488 143.61C52.7988 143.12 52.4088 142.86 51.8988 142.86C50.9488 142.86 50.4288 143.76 50.4288 145.38V145.62C50.4288 145.93 50.4488 146.21 50.4888 146.47ZM51.8988 148.13C52.8488 148.13 53.3688 147.24 53.3688 145.62V145.38C53.3688 145.07 53.3488 144.78 53.3088 144.52L50.7588 147.39C51.0088 147.88 51.3888 148.13 51.8988 148.13Z" fill="#0094D3"/>
<path d="M644.67 214V213.11L647.28 210.82C647.9 210.28 648.33 209.79 648.33 209.13C648.33 208.33 647.82 207.89 647.07 207.89C646.31 207.89 645.79 208.43 645.79 209.3V209.42H644.68V209.24C644.68 207.91 645.61 206.94 647.07 206.94C648.59 206.94 649.46 207.8 649.46 209.08C649.46 210.1 648.86 210.76 648.03 211.48L646.25 213.03H649.5V214H644.67ZM653.101 214.06C651.521 214.06 650.541 212.8 650.541 210.66V210.34C650.541 208.22 651.521 206.94 653.101 206.94C654.681 206.94 655.661 208.22 655.661 210.34V210.66C655.661 212.8 654.681 214.06 653.101 214.06ZM651.691 211.47L654.251 208.61C654.001 208.12 653.611 207.86 653.101 207.86C652.151 207.86 651.631 208.76 651.631 210.38V210.62C651.631 210.93 651.651 211.21 651.691 211.47ZM653.101 213.13C654.051 213.13 654.571 212.24 654.571 210.62V210.38C654.571 210.07 654.551 209.78 654.511 209.52L651.961 212.39C652.211 212.88 652.591 213.13 653.101 213.13Z" fill="#FF7D38"/>
<path d="M51.8988 214.06C50.3188 214.06 49.3388 212.8 49.3388 210.66V210.34C49.3388 208.22 50.3188 206.94 51.8988 206.94C53.4788 206.94 54.4588 208.22 54.4588 210.34V210.66C54.4588 212.8 53.4788 214.06 51.8988 214.06ZM50.4888 211.47L53.0488 208.61C52.7988 208.12 52.4088 207.86 51.8988 207.86C50.9488 207.86 50.4288 208.76 50.4288 210.38V210.62C50.4288 210.93 50.4488 211.21 50.4888 211.47ZM51.8988 213.13C52.8488 213.13 53.3688 212.24 53.3688 210.62V210.38C53.3688 210.07 53.3488 209.78 53.3088 209.52L50.7588 212.39C51.0088 212.88 51.3888 213.13 51.8988 213.13Z" fill="#0094D3"/>
<path d="M45.7677 293.06C44.5177 293.06 43.6077 292.31 43.4377 291.09H44.5377C44.6777 291.74 45.1077 292.14 45.8177 292.14C46.8577 292.14 47.4077 291.05 47.4077 289.82V289.55C47.1777 290.2 46.4577 290.66 45.6277 290.66C44.2777 290.66 43.3377 289.72 43.3377 288.3C43.3377 286.92 44.3277 285.94 45.7777 285.94C46.7077 285.94 47.4377 286.36 47.8877 287.07C48.2477 287.65 48.4577 288.49 48.4577 289.45C48.4577 291.72 47.4377 293.06 45.7677 293.06ZM45.7577 289.75C46.5777 289.75 47.1277 289.16 47.1277 288.29C47.1277 287.44 46.5877 286.85 45.7877 286.85C44.9777 286.85 44.4477 287.45 44.4477 288.3C44.4477 289.15 44.9577 289.75 45.7577 289.75ZM51.9588 293.05C50.4088 293.05 49.4988 292.04 49.4288 290.79H50.5288C50.5988 291.52 51.1088 292.12 51.9588 292.12C52.6488 292.12 53.3088 291.62 53.3088 290.65C53.3088 289.8 52.7888 289.19 51.9688 289.19C51.5788 289.19 50.8788 289.33 50.6188 290.05L49.5488 290.03L49.7588 286H54.0188V286.97H50.7788L50.6588 288.86C51.0288 288.45 51.5488 288.28 52.1588 288.28C53.5088 288.28 54.4288 289.24 54.4288 290.65C54.4288 292.22 53.2888 293.05 51.9588 293.05Z" fill="#0094D3"/>
<path d="M37.7565 241V240.03H39.5165V236.29C39.4165 236.34 39.2965 236.36 39.1565 236.36H37.7765V235.42H39.0365C39.3665 235.42 39.5265 235.13 39.5265 234.77V234H40.6165V240.03H42.2865V241H37.7565ZM45.8977 241.06C44.3177 241.06 43.3377 239.8 43.3377 237.66V237.34C43.3377 235.22 44.3177 233.94 45.8977 233.94C47.4777 233.94 48.4577 235.22 48.4577 237.34V237.66C48.4577 239.8 47.4777 241.06 45.8977 241.06ZM44.4877 238.47L47.0477 235.61C46.7977 235.12 46.4077 234.86 45.8977 234.86C44.9477 234.86 44.4277 235.76 44.4277 237.38V237.62C44.4277 237.93 44.4477 238.21 44.4877 238.47ZM45.8977 240.13C46.8477 240.13 47.3677 239.24 47.3677 237.62V237.38C47.3677 237.07 47.3477 236.78 47.3077 236.52L44.7577 239.39C45.0077 239.88 45.3877 240.13 45.8977 240.13ZM51.8988 241.06C50.3188 241.06 49.3388 239.8 49.3388 237.66V237.34C49.3388 235.22 50.3188 233.94 51.8988 233.94C53.4788 233.94 54.4588 235.22 54.4588 237.34V237.66C54.4588 239.8 53.4788 241.06 51.8988 241.06ZM50.4888 238.47L53.0488 235.61C52.7988 235.12 52.4088 234.86 51.8988 234.86C50.9488 234.86 50.4288 235.76 50.4288 237.38V237.62C50.4288 237.93 50.4488 238.21 50.4888 238.47ZM51.8988 240.13C52.8488 240.13 53.3688 239.24 53.3688 237.62V237.38C53.3688 237.07 53.3488 236.78 53.3088 236.52L50.7588 239.39C51.0088 239.88 51.3888 240.13 51.8988 240.13Z" fill="#0094D3"/>
<path d="M45.7677 345.06C44.5177 345.06 43.6077 344.31 43.4377 343.09H44.5377C44.6777 343.74 45.1077 344.14 45.8177 344.14C46.8577 344.14 47.4077 343.05 47.4077 341.82V341.55C47.1777 342.2 46.4577 342.66 45.6277 342.66C44.2777 342.66 43.3377 341.72 43.3377 340.3C43.3377 338.92 44.3277 337.94 45.7777 337.94C46.7077 337.94 47.4377 338.36 47.8877 339.07C48.2477 339.65 48.4577 340.49 48.4577 341.45C48.4577 343.72 47.4377 345.06 45.7677 345.06ZM45.7577 341.75C46.5777 341.75 47.1277 341.16 47.1277 340.29C47.1277 339.44 46.5877 338.85 45.7877 338.85C44.9777 338.85 44.4477 339.45 44.4477 340.3C44.4477 341.15 44.9577 341.75 45.7577 341.75ZM51.8988 345.06C50.3188 345.06 49.3388 343.8 49.3388 341.66V341.34C49.3388 339.22 50.3188 337.94 51.8988 337.94C53.4788 337.94 54.4588 339.22 54.4588 341.34V341.66C54.4588 343.8 53.4788 345.06 51.8988 345.06ZM50.4888 342.47L53.0488 339.61C52.7988 339.12 52.4088 338.86 51.8988 338.86C50.9488 338.86 50.4288 339.76 50.4288 341.38V341.62C50.4288 341.93 50.4488 342.21 50.4888 342.47ZM51.8988 344.13C52.8488 344.13 53.3688 343.24 53.3688 341.62V341.38C53.3688 341.07 53.3488 340.78 53.3088 340.52L50.7588 343.39C51.0088 343.88 51.3888 344.13 51.8988 344.13Z" fill="#0094D3"/>
<path d="M66.1 361.06C64.52 361.06 63.54 359.8 63.54 357.66V357.34C63.54 355.22 64.52 353.94 66.1 353.94C67.68 353.94 68.66 355.22 68.66 357.34V357.66C68.66 359.8 67.68 361.06 66.1 361.06ZM64.69 358.47L67.25 355.61C67 355.12 66.61 354.86 66.1 354.86C65.15 354.86 64.63 355.76 64.63 357.38V357.62C64.63 357.93 64.65 358.21 64.69 358.47ZM66.1 360.13C67.05 360.13 67.57 359.24 67.57 357.62V357.38C67.57 357.07 67.55 356.78 67.51 356.52L64.96 359.39C65.21 359.88 65.59 360.13 66.1 360.13Z" fill="#0094D3"/>
<path d="M227.16 361.05C225.61 361.05 224.7 360.04 224.63 358.79H225.73C225.8 359.52 226.31 360.12 227.16 360.12C227.85 360.12 228.51 359.62 228.51 358.65C228.51 357.8 227.99 357.19 227.17 357.19C226.78 357.19 226.08 357.33 225.82 358.05L224.75 358.03L224.96 354H229.22V354.97H225.98L225.86 356.86C226.23 356.45 226.75 356.28 227.36 356.28C228.71 356.28 229.63 357.24 229.63 358.65C229.63 360.22 228.49 361.05 227.16 361.05Z" fill="#0094D3"/>
<path d="M383.96 361V360.03H385.72V356.29C385.62 356.34 385.5 356.36 385.36 356.36H383.98V355.42H385.24C385.57 355.42 385.73 355.13 385.73 354.77V354H386.82V360.03H388.49V361H383.96ZM392.101 361.06C390.521 361.06 389.541 359.8 389.541 357.66V357.34C389.541 355.22 390.521 353.94 392.101 353.94C393.681 353.94 394.661 355.22 394.661 357.34V357.66C394.661 359.8 393.681 361.06 392.101 361.06ZM390.691 358.47L393.251 355.61C393.001 355.12 392.611 354.86 392.101 354.86C391.151 354.86 390.631 355.76 390.631 357.38V357.62C390.631 357.93 390.651 358.21 390.691 358.47ZM392.101 360.13C393.051 360.13 393.571 359.24 393.571 357.62V357.38C393.571 357.07 393.551 356.78 393.511 356.52L390.961 359.39C391.211 359.88 391.591 360.13 392.101 360.13Z" fill="#0094D3"/>
<path d="M546.96 361V360.03H548.72V356.29C548.62 356.34 548.5 356.36 548.36 356.36H546.98V355.42H548.24C548.57 355.42 548.73 355.13 548.73 354.77V354H549.82V360.03H551.49V361H546.96ZM555.161 361.05C553.611 361.05 552.701 360.04 552.631 358.79H553.731C553.801 359.52 554.311 360.12 555.161 360.12C555.851 360.12 556.511 359.62 556.511 358.65C556.511 357.8 555.991 357.19 555.171 357.19C554.781 357.19 554.081 357.33 553.821 358.05L552.751 358.03L552.961 354H557.221V354.97H553.981L553.861 356.86C554.231 356.45 554.751 356.28 555.361 356.28C556.711 356.28 557.631 357.24 557.631 358.65C557.631 360.22 556.491 361.05 555.161 361.05Z" fill="#0094D3"/>
<path opacity="0.56" d="M325.517 381.6H332.009V382.56H329.285V390H328.241V382.56H325.517V381.6ZM333.868 381.696C333.988 381.816 334.048 381.972 334.048 382.152C334.048 382.344 333.988 382.488 333.868 382.608C333.748 382.728 333.592 382.788 333.412 382.788C333.22 382.788 333.076 382.728 332.956 382.608C332.836 382.488 332.776 382.344 332.776 382.152C332.776 381.972 332.836 381.816 332.956 381.696C333.076 381.576 333.22 381.516 333.412 381.516C333.592 381.516 333.748 381.576 333.868 381.696ZM332.92 383.88H333.904V390H332.92V383.88ZM343.748 384.456C344.18 384.888 344.396 385.56 344.396 386.472V390H343.412V386.532C343.412 385.944 343.28 385.488 343.028 385.176C342.776 384.864 342.416 384.708 341.96 384.708C341.444 384.708 341.036 384.888 340.748 385.248C340.46 385.608 340.316 386.1 340.316 386.724V390H339.332V386.532C339.332 385.944 339.2 385.488 338.948 385.176C338.684 384.864 338.324 384.708 337.856 384.708C337.352 384.708 336.956 384.9 336.668 385.284C336.38 385.668 336.236 386.16 336.236 386.772V390H335.252V383.88H336.104L336.236 384.72C336.668 384.12 337.268 383.808 338.024 383.808C338.456 383.808 338.852 383.916 339.188 384.108C339.524 384.3 339.788 384.588 339.956 384.972C340.388 384.204 341.096 383.808 342.08 383.808C342.764 383.808 343.316 384.024 343.748 384.456ZM345.802 385.296C346.042 384.828 346.39 384.468 346.834 384.204C347.266 383.94 347.77 383.808 348.346 383.808C348.898 383.808 349.402 383.928 349.834 384.156C350.266 384.396 350.602 384.732 350.854 385.164C351.094 385.608 351.226 386.124 351.25 386.712C351.25 386.808 351.238 386.94 351.226 387.132H346.474V387.216C346.486 387.816 346.666 388.296 347.026 388.656C347.374 389.016 347.83 389.196 348.406 389.196C348.838 389.196 349.21 389.088 349.522 388.872C349.834 388.656 350.038 388.344 350.146 387.948H351.142C351.022 388.572 350.722 389.088 350.242 389.484C349.762 389.88 349.174 390.072 348.478 390.072C347.866 390.072 347.338 389.952 346.882 389.688C346.426 389.424 346.066 389.064 345.814 388.584C345.562 388.104 345.442 387.564 345.442 386.94C345.442 386.316 345.562 385.776 345.802 385.296ZM350.23 386.316C350.182 385.8 349.978 385.392 349.642 385.104C349.306 384.816 348.874 384.672 348.358 384.672C347.89 384.672 347.482 384.828 347.134 385.128C346.774 385.44 346.582 385.836 346.534 386.316H350.23ZM358.442 381.6C357.722 382.596 357.206 383.496 356.918 384.288C356.618 385.08 356.474 385.992 356.474 387C356.474 388.008 356.618 388.92 356.918 389.712C357.206 390.504 357.722 391.404 358.442 392.4H357.41C356.738 391.488 356.246 390.612 355.946 389.772C355.646 388.932 355.502 388.008 355.502 387C355.502 385.992 355.646 385.08 355.946 384.24C356.246 383.4 356.738 382.524 357.41 381.6H358.442ZM363.911 384.48C364.367 384.936 364.595 385.632 364.595 386.592V390H363.611V386.652C363.611 386.028 363.467 385.548 363.179 385.212C362.891 384.876 362.471 384.708 361.943 384.708C361.367 384.708 360.923 384.912 360.587 385.308C360.251 385.716 360.095 386.256 360.095 386.94V390H359.111V381.6H360.095V384.888C360.287 384.576 360.551 384.312 360.887 384.108C361.223 383.916 361.631 383.808 362.111 383.808C362.855 383.808 363.455 384.036 363.911 384.48ZM368.958 383.88V384.84H368.466C367.878 384.84 367.458 385.044 367.206 385.428C366.954 385.824 366.834 386.304 366.834 386.88V390H365.85V383.88H366.702L366.834 384.804C367.002 384.528 367.23 384.3 367.518 384.132C367.794 383.964 368.178 383.88 368.682 383.88H368.958ZM371.73 384.24C372.03 385.08 372.186 385.992 372.186 387C372.186 388.008 372.03 388.932 371.73 389.772C371.43 390.612 370.95 391.488 370.278 392.4H369.246C369.966 391.404 370.47 390.504 370.77 389.712C371.058 388.92 371.214 388.008 371.214 387C371.214 385.992 371.058 385.08 370.77 384.288C370.47 383.496 369.966 382.596 369.246 381.6H370.278C370.95 382.524 371.43 383.4 371.73 384.24Z" fill="#0094D3"/>
<path opacity="0.56" d="M18.6 262.02H23.472C25.236 262.02 26.112 261.312 26.112 259.872C26.112 258.432 25.236 257.7 23.472 257.7H18.6V256.656H23.412C24.612 256.656 25.524 256.932 26.148 257.484C26.772 258.036 27.072 258.828 27.072 259.872C27.072 260.928 26.772 261.72 26.148 262.26C25.524 262.8 24.612 263.064 23.412 263.064H18.6V262.02ZM21.18 250.619C21.432 250.175 21.792 249.827 22.26 249.575C22.74 249.323 23.292 249.191 23.94 249.191C24.564 249.191 25.104 249.323 25.572 249.575C26.052 249.827 26.412 250.175 26.676 250.619C26.94 251.075 27.072 251.579 27.072 252.131C27.072 252.635 26.988 253.055 26.808 253.403C26.628 253.763 26.376 254.039 26.064 254.231H29.4V255.215H20.88V254.363L21.864 254.231C21.168 253.727 20.808 253.019 20.808 252.131C20.808 251.567 20.94 251.063 21.18 250.619ZM25.572 250.763C25.152 250.391 24.612 250.199 23.94 250.199C23.28 250.199 22.74 250.391 22.32 250.763C21.9 251.135 21.684 251.627 21.684 252.227C21.684 252.623 21.78 252.971 21.972 253.283C22.164 253.595 22.428 253.823 22.764 253.991C23.1 254.159 23.484 254.243 23.916 254.243C24.36 254.243 24.756 254.159 25.104 253.991C25.452 253.823 25.716 253.595 25.908 253.283C26.1 252.971 26.196 252.623 26.196 252.227C26.196 251.627 25.992 251.135 25.572 250.763ZM21.78 247.729V248.833H20.88V247.729H19.164V246.745H20.88V245.197H21.78V246.745H25.392C25.656 246.745 25.836 246.697 25.944 246.601C26.052 246.505 26.1 246.325 26.1 246.073V245.005H27V246.133C27 246.709 26.88 247.129 26.616 247.369C26.364 247.609 25.956 247.729 25.404 247.729H21.78ZM26.1 238.674H27V239.214C27 239.61 26.928 239.886 26.76 240.054C26.604 240.222 26.364 240.318 26.052 240.318C26.736 240.798 27.072 241.482 27.072 242.37C27.072 243.054 26.916 243.606 26.592 244.014C26.28 244.422 25.836 244.626 25.284 244.626C24.672 244.626 24.204 244.422 23.868 244.002C23.544 243.582 23.376 242.97 23.376 242.166V240.366H22.956C22.56 240.366 22.248 240.51 22.02 240.774C21.804 241.038 21.684 241.41 21.684 241.89C21.684 242.322 21.78 242.67 21.972 242.946C22.164 243.222 22.404 243.39 22.716 243.45V244.434C22.116 244.362 21.648 244.098 21.312 243.642C20.976 243.186 20.808 242.586 20.808 241.842C20.808 241.062 21 240.462 21.384 240.03C21.768 239.598 22.308 239.382 23.016 239.382H25.656C25.956 239.382 26.1 239.25 26.1 238.974V238.674ZM24.204 240.366V242.262C24.204 243.174 24.552 243.63 25.224 243.63C25.536 243.63 25.776 243.51 25.956 243.27C26.148 243.03 26.232 242.706 26.232 242.298C26.232 241.698 26.076 241.23 25.764 240.882C25.452 240.546 25.032 240.366 24.504 240.366H24.204ZM18.6 237.918V236.934H24.168L20.88 233.826V232.65L23.388 235.002L27 232.482V233.67L24.096 235.71L25.38 236.934H27V237.918H18.6ZM22.296 231.926C21.828 231.686 21.468 231.338 21.204 230.894C20.94 230.462 20.808 229.958 20.808 229.382C20.808 228.83 20.928 228.326 21.156 227.894C21.396 227.462 21.732 227.126 22.164 226.874C22.608 226.634 23.124 226.502 23.712 226.478C23.808 226.478 23.94 226.49 24.132 226.502L24.132 231.254H24.216C24.816 231.242 25.296 231.062 25.656 230.702C26.016 230.354 26.196 229.898 26.196 229.322C26.196 228.89 26.088 228.518 25.872 228.206C25.656 227.894 25.344 227.69 24.948 227.582V226.586C25.572 226.706 26.088 227.006 26.484 227.486C26.88 227.966 27.072 228.554 27.072 229.25C27.072 229.862 26.952 230.39 26.688 230.846C26.424 231.302 26.064 231.662 25.584 231.914C25.104 232.166 24.564 232.286 23.94 232.286C23.316 232.286 22.776 232.166 22.296 231.926ZM23.316 227.498C22.8 227.546 22.392 227.75 22.104 228.086C21.816 228.422 21.672 228.854 21.672 229.37C21.672 229.838 21.828 230.246 22.128 230.594C22.44 230.954 22.836 231.146 23.316 231.194L23.316 227.498ZM18.6 219.287C19.596 220.007 20.496 220.523 21.288 220.811C22.08 221.111 22.992 221.255 24 221.255C25.008 221.255 25.92 221.111 26.712 220.811C27.504 220.523 28.404 220.007 29.4 219.287V220.319C28.488 220.991 27.612 221.483 26.772 221.783C25.932 222.083 25.008 222.227 24 222.227C22.992 222.227 22.08 222.083 21.24 221.783C20.4 221.483 19.524 220.991 18.6 220.319V219.287ZM21.48 213.829C21.936 213.373 22.632 213.145 23.592 213.145H27V214.129H23.652C23.028 214.129 22.548 214.273 22.212 214.561C21.876 214.849 21.708 215.257 21.708 215.785C21.708 216.361 21.912 216.817 22.308 217.141C22.716 217.477 23.256 217.633 23.94 217.633H27V218.617H20.88V217.765L21.708 217.633C21.108 217.177 20.808 216.505 20.808 215.617C20.808 214.873 21.036 214.285 21.48 213.829ZM26.676 210.654C26.412 211.11 26.052 211.47 25.572 211.722C25.104 211.986 24.564 212.106 23.94 212.106C23.328 212.106 22.788 211.986 22.308 211.722C21.84 211.47 21.468 211.11 21.204 210.654C20.94 210.198 20.808 209.67 20.808 209.07C20.808 208.482 20.94 207.954 21.204 207.498C21.468 207.042 21.84 206.682 22.308 206.418C22.788 206.166 23.328 206.034 23.94 206.034C24.564 206.034 25.104 206.166 25.572 206.418C26.052 206.682 26.412 207.042 26.676 207.498C26.94 207.954 27.072 208.482 27.072 209.07C27.072 209.67 26.94 210.198 26.676 210.654ZM25.908 208.014C25.716 207.702 25.452 207.462 25.104 207.294C24.768 207.126 24.372 207.042 23.94 207.042C23.508 207.042 23.124 207.126 22.776 207.294C22.44 207.462 22.164 207.702 21.972 208.014C21.78 208.326 21.684 208.674 21.684 209.07C21.684 209.479 21.78 209.826 21.972 210.138C22.164 210.45 22.44 210.678 22.776 210.846C23.124 211.014 23.508 211.098 23.94 211.098C24.372 211.098 24.768 211.014 25.104 210.846C25.452 210.678 25.716 210.45 25.908 210.138C26.1 209.826 26.196 209.479 26.196 209.07C26.196 208.674 26.1 208.326 25.908 208.014ZM20.88 201.798H21.84V202.29C21.84 202.878 22.044 203.298 22.428 203.55C22.824 203.802 23.304 203.922 23.88 203.922H27V204.906H20.88V204.054L21.804 203.922C21.528 203.754 21.3 203.526 21.132 203.238C20.964 202.962 20.88 202.578 20.88 202.074V201.798ZM21.456 192.402C21.888 191.97 22.56 191.754 23.472 191.754H27V192.738H23.532C22.944 192.738 22.488 192.87 22.176 193.122C21.864 193.374 21.708 193.734 21.708 194.19C21.708 194.706 21.888 195.114 22.248 195.402C22.608 195.69 23.1 195.834 23.724 195.834H27V196.818H23.532C22.944 196.818 22.488 196.95 22.176 197.202C21.864 197.466 21.708 197.826 21.708 198.294C21.708 198.798 21.9 199.194 22.284 199.482C22.668 199.77 23.16 199.914 23.772 199.914H27V200.898H20.88V200.046L21.72 199.914C21.12 199.482 20.808 198.882 20.808 198.126C20.808 197.694 20.916 197.298 21.108 196.962C21.3 196.626 21.588 196.362 21.972 196.194C21.204 195.762 20.808 195.054 20.808 194.07C20.808 193.386 21.024 192.834 21.456 192.402ZM26.1 184.768H27V185.308C27 185.704 26.928 185.98 26.76 186.148C26.604 186.316 26.364 186.412 26.052 186.412C26.736 186.892 27.072 187.576 27.072 188.464C27.072 189.148 26.916 189.7 26.592 190.108C26.28 190.516 25.836 190.72 25.284 190.72C24.672 190.72 24.204 190.516 23.868 190.096C23.544 189.676 23.376 189.064 23.376 188.26V186.46H22.956C22.56 186.46 22.248 186.604 22.02 186.868C21.804 187.132 21.684 187.504 21.684 187.984C21.684 188.416 21.78 188.764 21.972 189.04C22.164 189.316 22.404 189.484 22.716 189.544V190.528C22.116 190.456 21.648 190.192 21.312 189.736C20.976 189.28 20.808 188.68 20.808 187.936C20.808 187.156 21 186.556 21.384 186.124C21.768 185.692 22.308 185.476 23.016 185.476H25.656C25.956 185.476 26.1 185.344 26.1 185.068V184.768ZM24.204 186.46V188.356C24.204 189.268 24.552 189.724 25.224 189.724C25.536 189.724 25.776 189.604 25.956 189.364C26.148 189.124 26.232 188.8 26.232 188.392C26.232 187.792 26.076 187.324 25.764 186.976C25.452 186.64 25.032 186.46 24.504 186.46H24.204ZM18.6 184.012V183.028H27V184.012H18.6ZM18.696 180.732C18.816 180.612 18.972 180.552 19.152 180.552C19.344 180.552 19.488 180.612 19.608 180.732C19.728 180.852 19.788 181.008 19.788 181.188C19.788 181.38 19.728 181.524 19.608 181.644C19.488 181.764 19.344 181.824 19.152 181.824C18.972 181.824 18.816 181.764 18.696 181.644C18.576 181.524 18.516 181.38 18.516 181.188C18.516 181.008 18.576 180.852 18.696 180.732ZM20.88 181.68V180.696H27V181.68H20.88ZM20.88 179.6V174.728H21.624L26.1 178.448V174.572H27V179.756H26.256L21.78 176.048V179.6H20.88ZM22.296 173.813C21.828 173.573 21.468 173.225 21.204 172.781C20.94 172.349 20.808 171.845 20.808 171.269C20.808 170.717 20.928 170.213 21.156 169.781C21.396 169.349 21.732 169.013 22.164 168.761C22.608 168.521 23.124 168.389 23.712 168.365C23.808 168.365 23.94 168.377 24.132 168.389V173.141H24.216C24.816 173.129 25.296 172.949 25.656 172.589C26.016 172.241 26.196 171.785 26.196 171.209C26.196 170.777 26.088 170.405 25.872 170.093C25.656 169.781 25.344 169.577 24.948 169.469V168.473C25.572 168.593 26.088 168.893 26.484 169.373C26.88 169.853 27.072 170.441 27.072 171.137C27.072 171.749 26.952 172.277 26.688 172.733C26.424 173.189 26.064 173.549 25.584 173.801C25.104 174.053 24.564 174.173 23.94 174.173C23.316 174.173 22.776 174.053 22.296 173.813ZM23.316 169.385C22.8 169.433 22.392 169.637 22.104 169.973C21.816 170.309 21.672 170.741 21.672 171.257C21.672 171.725 21.828 172.133 22.128 172.481C22.44 172.841 22.836 173.033 23.316 173.081V169.385ZM18.6 161.434H27V162.286L26.016 162.418C26.724 162.934 27.072 163.63 27.072 164.518C27.072 165.094 26.952 165.598 26.7 166.042C26.46 166.486 26.1 166.834 25.62 167.086C25.152 167.338 24.588 167.458 23.94 167.458C23.328 167.458 22.788 167.338 22.308 167.086C21.84 166.834 21.468 166.486 21.204 166.03C20.94 165.586 20.808 165.082 20.808 164.518C20.808 164.026 20.904 163.606 21.084 163.246C21.264 162.898 21.504 162.622 21.816 162.418H18.6V161.434ZM25.92 163.378C25.728 163.066 25.464 162.826 25.128 162.658C24.792 162.49 24.396 162.406 23.964 162.406C23.532 162.406 23.136 162.49 22.788 162.658C22.44 162.826 22.164 163.066 21.972 163.378C21.78 163.69 21.684 164.038 21.684 164.422C21.684 165.034 21.9 165.526 22.32 165.898C22.74 166.27 23.28 166.45 23.94 166.45C24.612 166.45 25.152 166.27 25.572 165.898C25.992 165.526 26.196 165.034 26.196 164.422C26.196 164.038 26.112 163.69 25.92 163.378ZM21.24 158.222C22.08 157.922 22.992 157.766 24 157.766C25.008 157.766 25.932 157.922 26.772 158.222C27.612 158.522 28.488 159.002 29.4 159.674V160.706C28.404 159.986 27.504 159.482 26.712 159.182C25.92 158.894 25.008 158.738 24 158.738C22.992 158.738 22.08 158.894 21.288 159.182C20.496 159.482 19.596 159.986 18.6 160.706V159.674C19.524 159.002 20.4 158.522 21.24 158.222Z" fill="#0094D3"/>
<path d="M670.6 177.694V171.202H671.56V173.926H679V174.97H671.56V177.694H670.6ZM674.296 171.166C673.828 170.926 673.468 170.578 673.204 170.134C672.94 169.702 672.808 169.198 672.808 168.622C672.808 168.07 672.928 167.566 673.156 167.134C673.396 166.702 673.732 166.366 674.164 166.114C674.608 165.874 675.124 165.742 675.712 165.718C675.808 165.718 675.94 165.73 676.132 165.742V170.494H676.216C676.816 170.482 677.296 170.302 677.656 169.942C678.016 169.594 678.196 169.138 678.196 168.562C678.196 168.13 678.088 167.758 677.872 167.446C677.656 167.134 677.344 166.93 676.948 166.822V165.826C677.572 165.946 678.088 166.246 678.484 166.726C678.88 167.206 679.072 167.794 679.072 168.49C679.072 169.102 678.952 169.63 678.688 170.086C678.424 170.542 678.064 170.902 677.584 171.154C677.104 171.406 676.564 171.526 675.94 171.526C675.316 171.526 674.776 171.406 674.296 171.166ZM675.316 166.738C674.8 166.786 674.392 166.99 674.104 167.326C673.816 167.662 673.672 168.094 673.672 168.61C673.672 169.078 673.828 169.486 674.128 169.834C674.44 170.194 674.836 170.386 675.316 170.434V166.738ZM673.456 156.1C673.888 155.668 674.56 155.452 675.472 155.452H679V156.436H675.532C674.944 156.436 674.488 156.568 674.176 156.82C673.864 157.072 673.708 157.432 673.708 157.888C673.708 158.404 673.888 158.812 674.248 159.1C674.608 159.388 675.1 159.532 675.724 159.532H679V160.516H675.532C674.944 160.516 674.488 160.648 674.176 160.9C673.864 161.164 673.708 161.524 673.708 161.992C673.708 162.496 673.9 162.892 674.284 163.18C674.668 163.468 675.16 163.612 675.772 163.612H679V164.596H672.88V163.744L673.72 163.612C673.12 163.18 672.808 162.58 672.808 161.824C672.808 161.392 672.916 160.996 673.108 160.66C673.3 160.324 673.588 160.06 673.972 159.892C673.204 159.46 672.808 158.752 672.808 157.768C672.808 157.084 673.024 156.532 673.456 156.1ZM673.18 149.593C673.432 149.149 673.792 148.801 674.26 148.549C674.74 148.297 675.292 148.165 675.94 148.165C676.564 148.165 677.104 148.297 677.572 148.549C678.052 148.801 678.412 149.149 678.676 149.593C678.94 150.049 679.072 150.553 679.072 151.105C679.072 151.609 678.988 152.029 678.808 152.377C678.628 152.737 678.376 153.013 678.064 153.205H681.4V154.189H672.88V153.337L673.864 153.205C673.168 152.701 672.808 151.993 672.808 151.105C672.808 150.541 672.94 150.037 673.18 149.593ZM677.572 149.737C677.152 149.365 676.612 149.173 675.94 149.173C675.28 149.173 674.74 149.365 674.32 149.737C673.9 150.109 673.684 150.601 673.684 151.201C673.684 151.597 673.78 151.945 673.972 152.257C674.164 152.569 674.428 152.797 674.764 152.965C675.1 153.133 675.484 153.217 675.916 153.217C676.36 153.217 676.756 153.133 677.104 152.965C677.452 152.797 677.716 152.569 677.908 152.257C678.1 151.945 678.196 151.597 678.196 151.201C678.196 150.601 677.992 150.109 677.572 149.737ZM670.6 140.972C671.596 141.692 672.496 142.208 673.288 142.496C674.08 142.796 674.992 142.94 676 142.94C677.008 142.94 677.92 142.796 678.712 142.496C679.504 142.208 680.404 141.692 681.4 140.972V142.004C680.488 142.676 679.612 143.168 678.772 143.468C677.932 143.768 677.008 143.912 676 143.912C674.992 143.912 674.08 143.768 673.24 143.468C672.4 143.168 671.524 142.676 670.6 142.004V140.972ZM671.488 140.159C671.2 139.991 670.96 139.751 670.792 139.439C670.624 139.127 670.54 138.791 670.54 138.407C670.54 138.035 670.624 137.699 670.792 137.387C670.96 137.075 671.2 136.835 671.488 136.655C671.788 136.487 672.124 136.391 672.484 136.391C672.844 136.391 673.18 136.487 673.468 136.655C673.756 136.835 673.984 137.075 674.152 137.387C674.32 137.699 674.404 138.035 674.404 138.407C674.404 138.791 674.32 139.127 674.152 139.439C673.984 139.751 673.756 139.991 673.468 140.159C673.18 140.339 672.844 140.423 672.484 140.423C672.124 140.423 671.788 140.339 671.488 140.159ZM671.632 137.555C671.416 137.783 671.296 138.071 671.296 138.407C671.296 138.755 671.416 139.043 671.632 139.259C671.86 139.487 672.148 139.595 672.484 139.595C672.82 139.595 673.108 139.487 673.324 139.259C673.54 139.043 673.648 138.755 673.648 138.407C673.648 138.071 673.54 137.783 673.324 137.555C673.108 137.339 672.82 137.219 672.484 137.219C672.148 137.219 671.86 137.339 671.632 137.555ZM672.568 135.209C671.92 134.885 671.428 134.417 671.068 133.805C670.708 133.205 670.528 132.497 670.528 131.693C670.528 130.769 670.78 129.989 671.284 129.365C671.788 128.741 672.484 128.345 673.348 128.177V129.221C672.772 129.377 672.316 129.677 671.98 130.121C671.656 130.565 671.488 131.105 671.488 131.741C671.488 132.317 671.632 132.833 671.908 133.265C672.196 133.709 672.58 134.045 673.084 134.285C673.588 134.525 674.152 134.633 674.8 134.633C675.448 134.633 676.012 134.525 676.516 134.285C677.02 134.045 677.416 133.709 677.692 133.265C677.98 132.833 678.112 132.317 678.112 131.741C678.112 131.093 677.956 130.553 677.632 130.121C677.308 129.689 676.852 129.401 676.252 129.233V128.189C677.128 128.357 677.812 128.741 678.316 129.365C678.82 129.989 679.072 130.757 679.072 131.693C679.072 132.497 678.904 133.205 678.544 133.805C678.184 134.417 677.692 134.885 677.044 135.209C676.396 135.545 675.652 135.701 674.8 135.701C673.96 135.701 673.216 135.545 672.568 135.209ZM673.24 125.06C674.08 124.76 674.992 124.604 676 124.604C677.008 124.604 677.932 124.76 678.772 125.06C679.612 125.36 680.488 125.84 681.4 126.512V127.544C680.404 126.824 679.504 126.32 678.712 126.02C677.92 125.732 677.008 125.576 676 125.576C674.992 125.576 674.08 125.732 673.288 126.02C672.496 126.32 671.596 126.824 670.6 127.544V126.512C671.524 125.84 672.4 125.36 673.24 125.06Z" fill="#FF7D38"/>
<path d="M649.715 306.084C647.195 306.084 645.795 304.306 645.795 301.1C645.795 297.88 647.209 296.116 649.771 296.116C651.689 296.116 652.977 297.348 653.285 299.532H651.647C651.367 298.174 650.751 297.53 649.743 297.53C648.217 297.53 647.405 298.762 647.405 301.1C647.405 303.466 648.189 304.67 649.715 304.67C650.765 304.67 651.353 304.04 651.633 302.668H653.285C652.963 304.852 651.689 306.084 649.715 306.084ZM657.893 306.084C655.597 306.084 654.197 304.194 654.197 301.1C654.197 298.006 655.597 296.116 657.893 296.116C660.189 296.116 661.589 298.006 661.589 301.1C661.589 304.194 660.189 306.084 657.893 306.084ZM657.893 304.67C659.293 304.67 659.979 303.48 659.979 301.1C659.979 298.72 659.293 297.53 657.893 297.53C656.493 297.53 655.807 298.706 655.807 301.1C655.807 303.494 656.493 304.67 657.893 304.67ZM666.238 307.82H662.29V307.064L663.9 305.496C664.283 305.132 664.568 304.838 664.754 304.614C664.95 304.381 665.081 304.175 665.146 303.998C665.221 303.811 665.258 303.615 665.258 303.41C665.258 303.111 665.17 302.887 664.992 302.738C664.824 302.589 664.6 302.514 664.32 302.514C664.04 302.514 663.784 302.57 663.55 302.682C663.326 302.785 663.093 302.929 662.85 303.116L662.36 302.472C662.631 302.239 662.925 302.052 663.242 301.912C663.569 301.772 663.933 301.702 664.334 301.702C664.932 301.702 665.398 301.851 665.734 302.15C666.08 302.439 666.252 302.841 666.252 303.354C666.252 303.662 666.187 303.947 666.056 304.208C665.935 304.46 665.753 304.721 665.51 304.992C665.277 305.253 664.988 305.547 664.642 305.874L663.508 306.952H666.238V307.82Z" fill="#8FD356"/>
<path d="M646.145 277V267.2H647.741V271.316H651.241V267.2H652.837V277H651.241V272.744H647.741V277H646.145ZM657.837 278.82H653.889V278.064L655.499 276.496C655.881 276.132 656.166 275.838 656.353 275.614C656.549 275.381 656.679 275.175 656.745 274.998C656.819 274.811 656.857 274.615 656.857 274.41C656.857 274.111 656.768 273.887 656.591 273.738C656.423 273.589 656.199 273.514 655.919 273.514C655.639 273.514 655.382 273.57 655.149 273.682C654.925 273.785 654.691 273.929 654.449 274.116L653.959 273.472C654.229 273.239 654.523 273.052 654.841 272.912C655.167 272.772 655.531 272.702 655.933 272.702C656.53 272.702 656.997 272.851 657.333 273.15C657.678 273.439 657.851 273.841 657.851 274.354C657.851 274.662 657.785 274.947 657.655 275.208C657.533 275.46 657.351 275.721 657.109 275.992C656.875 276.253 656.586 276.547 656.241 276.874L655.107 277.952H657.837V278.82ZM662.507 277.084C660.211 277.084 658.811 275.194 658.811 272.1C658.811 269.006 660.211 267.116 662.507 267.116C664.803 267.116 666.203 269.006 666.203 272.1C666.203 275.194 664.803 277.084 662.507 277.084ZM662.507 275.67C663.907 275.67 664.593 274.48 664.593 272.1C664.593 269.72 663.907 268.53 662.507 268.53C661.107 268.53 660.421 269.706 660.421 272.1C660.421 274.494 661.107 275.67 662.507 275.67Z" fill="#0094D3"/>
<path d="M72.16 34.2C73.312 34.2 74.344 34.44 75.232 34.872C76.096 35.304 76.792 35.928 77.272 36.744C77.752 37.56 78.016 38.496 78.016 39.552C78.016 40.68 77.704 41.664 77.128 42.504C76.528 43.368 75.736 43.968 74.752 44.304L78.304 51H75.232L72.04 44.904H68.296V51H65.536V34.2H72.16ZM68.296 42.504H71.944C72.928 42.504 73.72 42.24 74.296 41.712C74.872 41.184 75.184 40.464 75.184 39.552C75.184 38.664 74.872 37.944 74.296 37.416C73.72 36.888 72.928 36.6 71.944 36.6H68.296V42.504ZM91.1301 48.744V51H89.7621C88.9461 51 88.3701 50.832 88.0341 50.496C87.6741 50.16 87.5061 49.68 87.5061 49.032C86.5701 50.448 85.2261 51.144 83.4501 51.144C82.0581 51.144 80.9541 50.832 80.1381 50.184C79.2981 49.56 78.8901 48.672 78.8901 47.544C78.8901 46.296 79.3221 45.312 80.2341 44.64C81.1221 43.968 82.4181 43.608 84.1461 43.608H87.2421V42.864C87.2421 42.192 87.0021 41.64 86.5221 41.256C86.0421 40.872 85.3701 40.656 84.5301 40.656C83.7621 40.656 83.1381 40.824 82.6581 41.16C82.1781 41.496 81.8901 41.928 81.7941 42.456H79.2501C79.3701 41.232 79.9221 40.272 80.8821 39.6C81.8421 38.928 83.0901 38.568 84.6501 38.568C86.2821 38.568 87.5541 38.952 88.4661 39.72C89.3541 40.488 89.8101 41.592 89.8101 43.032V47.88C89.8101 48.456 90.0741 48.744 90.6261 48.744H91.1301ZM87.2421 45.528H84.0261C83.2101 45.528 82.6101 45.696 82.1781 46.008C81.7461 46.32 81.5301 46.776 81.5301 47.376C81.5301 47.904 81.7221 48.336 82.1301 48.648C82.5381 48.984 83.0901 49.128 83.8101 49.128C84.8661 49.128 85.7061 48.84 86.3061 48.264C86.9061 47.688 87.2181 46.92 87.2421 45.96V45.528ZM101.638 39.336C102.502 39.84 103.198 40.56 103.702 41.52C104.182 42.48 104.446 43.584 104.446 44.856C104.446 46.104 104.182 47.208 103.702 48.168C103.198 49.128 102.502 49.848 101.638 50.376C100.75 50.904 99.742 51.144 98.638 51.144C97.726 51.144 96.934 50.976 96.262 50.64C95.59 50.304 95.038 49.848 94.654 49.272V55.8H92.062V38.712H94.318L94.63 40.536C95.614 39.24 96.958 38.568 98.638 38.568C99.742 38.568 100.75 38.832 101.638 39.336ZM100.798 47.808C101.47 47.04 101.806 46.056 101.806 44.856C101.806 43.656 101.47 42.672 100.798 41.904C100.126 41.16 99.262 40.776 98.206 40.776C97.126 40.776 96.262 41.16 95.614 41.904C94.942 42.648 94.63 43.608 94.63 44.808C94.63 46.056 94.942 47.04 95.614 47.808C96.262 48.576 97.126 48.96 98.206 48.96C99.262 48.96 100.126 48.576 100.798 47.808ZM108.467 34.248C108.755 34.536 108.923 34.92 108.923 35.352C108.923 35.808 108.755 36.192 108.467 36.48C108.155 36.768 107.771 36.912 107.339 36.912C106.883 36.912 106.499 36.768 106.211 36.48C105.899 36.192 105.755 35.808 105.755 35.352C105.755 34.92 105.899 34.536 106.211 34.248C106.499 33.96 106.883 33.792 107.339 33.792C107.771 33.792 108.155 33.96 108.467 34.248ZM106.043 38.712H108.635V51H106.043V38.712ZM122.624 34.2V51H120.368L120.056 49.152C119.072 50.496 117.728 51.144 116.048 51.144C114.92 51.144 113.912 50.904 113.048 50.4C112.16 49.896 111.464 49.176 110.984 48.216C110.48 47.256 110.24 46.152 110.24 44.856C110.24 43.608 110.48 42.528 110.984 41.568C111.488 40.608 112.184 39.888 113.072 39.36C113.936 38.832 114.944 38.568 116.048 38.568C116.936 38.568 117.728 38.736 118.4 39.072C119.072 39.408 119.6 39.84 120.032 40.416V34.2H122.624ZM119.072 47.832C119.72 47.088 120.056 46.104 120.056 44.904C120.056 43.68 119.72 42.696 119.072 41.928C118.4 41.16 117.536 40.776 116.48 40.776C115.4 40.776 114.536 41.16 113.888 41.928C113.216 42.696 112.904 43.656 112.904 44.856C112.904 46.08 113.216 47.064 113.888 47.832C114.536 48.6 115.4 48.96 116.48 48.96C117.536 48.96 118.4 48.6 119.072 47.832ZM131.129 40.992H128.993V38.712H131.129V35.28H133.745V38.712H136.697V40.992H133.745V47.4C133.745 47.88 133.841 48.24 134.033 48.432C134.225 48.624 134.537 48.72 135.017 48.72H136.985V51H134.489C133.313 51 132.449 50.736 131.921 50.184C131.393 49.656 131.129 48.816 131.129 47.664V40.992ZM147.928 39.912C148.84 40.824 149.32 42.264 149.32 44.232V51H146.728V44.376C146.728 43.224 146.464 42.336 145.96 41.712C145.456 41.112 144.736 40.8 143.776 40.8C142.744 40.8 141.928 41.16 141.352 41.88C140.776 42.6 140.488 43.56 140.488 44.784V51H137.896V34.2H140.488V40.488C141.4 39.216 142.696 38.568 144.352 38.568C145.816 38.568 147.016 39.024 147.928 39.912ZM151.486 41.568C151.99 40.608 152.686 39.888 153.598 39.36C154.51 38.832 155.542 38.568 156.718 38.568C157.894 38.568 158.926 38.808 159.838 39.288C160.75 39.768 161.446 40.464 161.974 41.328C162.502 42.216 162.766 43.248 162.79 44.424C162.79 44.76 162.766 45.072 162.718 45.408H153.454V45.552C153.502 46.632 153.838 47.472 154.462 48.096C155.062 48.72 155.878 49.032 156.886 49.032C157.678 49.032 158.35 48.864 158.902 48.48C159.43 48.096 159.79 47.568 159.982 46.872H162.574C162.334 48.12 161.734 49.152 160.75 49.944C159.766 50.76 158.542 51.144 157.078 51.144C155.782 51.144 154.678 50.904 153.718 50.376C152.758 49.848 152.038 49.128 151.51 48.168C150.982 47.232 150.742 46.128 150.742 44.88C150.742 43.632 150.982 42.528 151.486 41.568ZM160.15 43.512C160.03 42.624 159.67 41.928 159.07 41.424C158.47 40.92 157.726 40.656 156.814 40.656C155.95 40.656 155.23 40.92 154.606 41.448C153.982 41.976 153.646 42.648 153.55 43.512H160.15ZM171.197 38.712V41.136H170.045C168.965 41.136 168.197 41.496 167.717 42.192C167.237 42.888 166.997 43.776 166.997 44.832V51H164.405V38.712H166.709L166.997 40.56C167.333 39.984 167.789 39.552 168.365 39.216C168.917 38.88 169.661 38.712 170.621 38.712H171.197ZM189.835 39.888C190.675 40.752 191.107 42.144 191.107 44.064V51H188.515V44.088C188.515 43.032 188.299 42.216 187.867 41.64C187.435 41.088 186.787 40.8 185.947 40.8C185.035 40.8 184.339 41.136 183.811 41.76C183.283 42.384 183.043 43.248 183.043 44.352V51H180.427V44.088C180.427 43.008 180.187 42.192 179.755 41.64C179.323 41.088 178.675 40.8 177.835 40.8C176.947 40.8 176.251 41.136 175.723 41.784C175.195 42.456 174.955 43.32 174.955 44.424V51H172.363V38.712H174.619L174.907 40.32C175.771 39.168 176.971 38.592 178.507 38.568C179.371 38.568 180.115 38.76 180.787 39.12C181.435 39.504 181.939 40.056 182.299 40.8C182.731 40.104 183.283 39.552 184.003 39.168C184.699 38.784 185.539 38.568 186.547 38.568C187.891 38.568 188.971 39.024 189.835 39.888ZM204.736 48.744V51H203.368C202.552 51 201.976 50.832 201.64 50.496C201.28 50.16 201.112 49.68 201.112 49.032C200.176 50.448 198.832 51.144 197.056 51.144C195.664 51.144 194.56 50.832 193.744 50.184C192.904 49.56 192.496 48.672 192.496 47.544C192.496 46.296 192.928 45.312 193.84 44.64C194.728 43.968 196.024 43.608 197.752 43.608H200.848V42.864C200.848 42.192 200.608 41.64 200.128 41.256C199.648 40.872 198.976 40.656 198.136 40.656C197.368 40.656 196.744 40.824 196.264 41.16C195.784 41.496 195.496 41.928 195.4 42.456H192.856C192.976 41.232 193.528 40.272 194.488 39.6C195.448 38.928 196.696 38.568 198.256 38.568C199.888 38.568 201.16 38.952 202.072 39.72C202.96 40.488 203.416 41.592 203.416 43.032V47.88C203.416 48.456 203.68 48.744 204.232 48.744H204.736ZM200.848 45.528H197.632C196.816 45.528 196.216 45.696 195.784 46.008C195.352 46.32 195.136 46.776 195.136 47.376C195.136 47.904 195.328 48.336 195.736 48.648C196.144 48.984 196.696 49.128 197.416 49.128C198.472 49.128 199.312 48.84 199.912 48.264C200.512 47.688 200.824 46.92 200.848 45.96V45.528ZM205.668 34.2H208.26V51H205.668V34.2ZM225.462 49.944C224.454 50.76 223.182 51.144 221.646 51.144C220.422 51.144 219.342 50.904 218.43 50.376C217.494 49.848 216.774 49.104 216.27 48.144C215.766 47.184 215.526 46.08 215.526 44.832C215.526 43.584 215.766 42.504 216.294 41.544C216.798 40.608 217.518 39.888 218.454 39.36C219.39 38.832 220.47 38.568 221.718 38.568C223.254 38.568 224.502 38.976 225.486 39.792C226.446 40.608 227.07 41.688 227.31 43.08H224.646C224.454 42.384 224.118 41.832 223.59 41.4C223.062 40.992 222.414 40.776 221.646 40.776C220.59 40.776 219.75 41.16 219.126 41.904C218.502 42.672 218.19 43.632 218.19 44.832C218.19 46.056 218.502 47.04 219.126 47.808C219.75 48.576 220.59 48.936 221.646 48.936C222.438 48.936 223.11 48.744 223.638 48.312C224.166 47.88 224.502 47.304 224.67 46.584H227.31C227.07 48.024 226.446 49.128 225.462 49.944ZM229.928 38.712L233.36 48.192L236.696 38.712H239.456L233.888 52.92C233.6 53.664 233.336 54.24 233.096 54.624C232.856 55.008 232.544 55.32 232.208 55.512C231.848 55.704 231.368 55.8 230.792 55.8H228.008V53.52H229.832C230.312 53.52 230.672 53.448 230.864 53.304C231.056 53.16 231.248 52.8 231.464 52.272L231.968 51.096L227.168 38.712H229.928ZM249.299 49.944C248.291 50.76 247.019 51.144 245.483 51.144C244.259 51.144 243.179 50.904 242.267 50.376C241.331 49.848 240.611 49.104 240.107 48.144C239.603 47.184 239.363 46.08 239.363 44.832C239.363 43.584 239.603 42.504 240.131 41.544C240.635 40.608 241.355 39.888 242.291 39.36C243.227 38.832 244.307 38.568 245.555 38.568C247.091 38.568 248.339 38.976 249.323 39.792C250.283 40.608 250.907 41.688 251.147 43.08H248.483C248.291 42.384 247.955 41.832 247.427 41.4C246.899 40.992 246.251 40.776 245.483 40.776C244.427 40.776 243.587 41.16 242.963 41.904C242.339 42.672 242.027 43.632 242.027 44.832C242.027 46.056 242.339 47.04 242.963 47.808C243.587 48.576 244.427 48.936 245.483 48.936C246.275 48.936 246.947 48.744 247.475 48.312C248.003 47.88 248.339 47.304 248.507 46.584H251.147C250.907 48.024 250.283 49.128 249.299 49.944ZM252.745 34.2H255.337V51H252.745V34.2ZM259.822 34.248C260.11 34.536 260.278 34.92 260.278 35.352C260.278 35.808 260.11 36.192 259.822 36.48C259.51 36.768 259.126 36.912 258.694 36.912C258.238 36.912 257.854 36.768 257.566 36.48C257.254 36.192 257.11 35.808 257.11 35.352C257.11 34.92 257.254 34.536 257.566 34.248C257.854 33.96 258.238 33.792 258.694 33.792C259.126 33.792 259.51 33.96 259.822 34.248ZM257.398 38.712H259.99V51H257.398V38.712ZM272.082 39.912C272.994 40.824 273.474 42.264 273.474 44.232V51H270.858V44.376C270.858 43.224 270.594 42.336 270.114 41.712C269.61 41.112 268.89 40.8 267.93 40.8C266.898 40.8 266.082 41.16 265.506 41.88C264.93 42.6 264.642 43.56 264.642 44.808V51H262.05V38.712H264.306L264.594 40.32C265.506 39.168 266.826 38.568 268.53 38.568C269.97 38.568 271.17 39.024 272.082 39.912ZM287.28 38.712V50.496C287.28 52.224 286.752 53.568 285.744 54.528C284.712 55.488 283.128 55.944 280.992 55.944C279.312 55.944 277.968 55.584 276.936 54.84C275.88 54.096 275.304 53.04 275.208 51.672H277.848C277.992 52.368 278.376 52.896 278.952 53.28C279.528 53.664 280.272 53.832 281.184 53.832C283.536 53.832 284.712 52.704 284.712 50.4V49.032C283.8 50.376 282.48 51.048 280.704 51.048C279.576 51.048 278.568 50.808 277.704 50.304C276.816 49.8 276.12 49.08 275.64 48.144C275.136 47.208 274.896 46.104 274.896 44.808C274.896 43.584 275.136 42.504 275.64 41.544C276.144 40.608 276.84 39.888 277.728 39.36C278.592 38.832 279.6 38.568 280.704 38.568C281.616 38.568 282.432 38.76 283.104 39.12C283.776 39.504 284.304 40.008 284.736 40.632L285.024 38.712H287.28ZM283.728 47.76C284.376 47.016 284.712 46.056 284.712 44.856C284.712 43.656 284.376 42.672 283.728 41.904C283.056 41.136 282.192 40.752 281.136 40.752C280.056 40.752 279.192 41.136 278.544 41.88C277.872 42.648 277.56 43.608 277.56 44.808C277.56 46.008 277.872 46.992 278.544 47.736C279.192 48.504 280.056 48.864 281.136 48.864C282.192 48.864 283.056 48.504 283.728 47.76Z" fill="black"/>
</svg>
