<svg width="701" height="429" viewBox="0 0 701 429" fill="none" xmlns="http://www.w3.org/2000/svg">
<path opacity="0.2" d="M66 77L66 344" stroke="#0094D3" stroke-width="0.5" stroke-miterlimit="10"/>
<path opacity="0.2" d="M147 77L147 344" stroke="#0094D3" stroke-width="0.5" stroke-miterlimit="10"/>
<path opacity="0.2" d="M228 77L228 344" stroke="#0094D3" stroke-width="0.5" stroke-miterlimit="10"/>
<path opacity="0.2" d="M309 77L309 344" stroke="#0094D3" stroke-width="0.5" stroke-miterlimit="10"/>
<path opacity="0.2" d="M390 77L390 344" stroke="#0094D3" stroke-width="0.5" stroke-miterlimit="10"/>
<path opacity="0.2" d="M471 77L471 344" stroke="#0094D3" stroke-width="0.5" stroke-miterlimit="10"/>
<path opacity="0.2" d="M552 77L552 344" stroke="#0094D3" stroke-width="0.5" stroke-miterlimit="10"/>
<path opacity="0.2" d="M633 77L633 344" stroke="#0094D3" stroke-width="0.5" stroke-miterlimit="10"/>
<path opacity="0.2" d="M60.0001 341L636 341" stroke="#0094D3" stroke-width="0.5" stroke-miterlimit="10"/>
<path opacity="0.2" d="M62 276L636 276" stroke="#0094D3" stroke-width="0.5" stroke-miterlimit="10"/>
<path opacity="0.2" d="M62 211L636 211" stroke="#0094D3" stroke-width="0.5" stroke-miterlimit="10"/>
<path opacity="0.2" d="M62 146L636 146" stroke="#0094D3" stroke-width="0.5" stroke-miterlimit="10"/>
<path opacity="0.2" d="M62 81L636 81.0001" stroke="#0094D3" stroke-width="0.5" stroke-miterlimit="10"/>
<path d="M147 338V344" stroke="#0094D3" stroke-width="0.5" stroke-miterlimit="10"/>
<path d="M228 338V344" stroke="#0094D3" stroke-width="0.5" stroke-miterlimit="10"/>
<path d="M309 338V344" stroke="#0094D3" stroke-width="0.5" stroke-miterlimit="10"/>
<path d="M390 338V344" stroke="#0094D3" stroke-width="0.5" stroke-miterlimit="10"/>
<path d="M471 338V344" stroke="#0094D3" stroke-width="0.5" stroke-miterlimit="10"/>
<path d="M552 338V344" stroke="#0094D3" stroke-width="0.5" stroke-miterlimit="10"/>
<path d="M633 338V344" stroke="#0094D3" stroke-width="0.5" stroke-miterlimit="10"/>
<path d="M630 81H636" stroke="#0094D3" stroke-width="0.5" stroke-miterlimit="10"/>
<path d="M630 146H636" stroke="#0094D3" stroke-width="0.5" stroke-miterlimit="10"/>
<path d="M630 211H636" stroke="#0094D3" stroke-width="0.5" stroke-miterlimit="10"/>
<path d="M630 276H636" stroke="#0094D3" stroke-width="0.5" stroke-miterlimit="10"/>
<path d="M630 341H636" stroke="#0094D3" stroke-width="0.5" stroke-miterlimit="10"/>
<path d="M648.1 84.06C646.52 84.06 645.54 82.8 645.54 80.66V80.34C645.54 78.22 646.52 76.94 648.1 76.94C649.68 76.94 650.66 78.22 650.66 80.34V80.66C650.66 82.8 649.68 84.06 648.1 84.06ZM646.69 81.47L649.25 78.61C649 78.12 648.61 77.86 648.1 77.86C647.15 77.86 646.63 78.76 646.63 80.38V80.62C646.63 80.93 646.65 81.21 646.69 81.47ZM648.1 83.13C649.05 83.13 649.57 82.24 649.57 80.62V80.38C649.57 80.07 649.55 79.78 649.51 79.52L646.96 82.39C647.21 82.88 647.59 83.13 648.1 83.13ZM654.101 84.05C653.661 84.05 653.331 83.74 653.331 83.3C653.331 82.86 653.661 82.55 654.101 82.55C654.541 82.55 654.871 82.86 654.871 83.3C654.871 83.74 654.541 84.05 654.101 84.05ZM657.672 84V83.11L660.282 80.82C660.902 80.28 661.332 79.79 661.332 79.13C661.332 78.33 660.822 77.89 660.072 77.89C659.312 77.89 658.792 78.43 658.792 79.3V79.42H657.682V79.24C657.682 77.91 658.612 76.94 660.072 76.94C661.592 76.94 662.462 77.8 662.462 79.08C662.462 80.1 661.862 80.76 661.032 81.48L659.252 83.03H662.502V84H657.672ZM666.104 84.06C664.524 84.06 663.544 82.8 663.544 80.66V80.34C663.544 78.22 664.524 76.94 666.104 76.94C667.684 76.94 668.664 78.22 668.664 80.34V80.66C668.664 82.8 667.684 84.06 666.104 84.06ZM664.694 81.47L667.254 78.61C667.004 78.12 666.614 77.86 666.104 77.86C665.154 77.86 664.634 78.76 664.634 80.38V80.62C664.634 80.93 664.654 81.21 664.694 81.47ZM666.104 83.13C667.054 83.13 667.574 82.24 667.574 80.62V80.38C667.574 80.07 667.554 79.78 667.514 79.52L664.964 82.39C665.214 82.88 665.594 83.13 666.104 83.13Z" fill="#0094D3"/>
<path d="M648.1 149.06C646.52 149.06 645.54 147.8 645.54 145.66V145.34C645.54 143.22 646.52 141.94 648.1 141.94C649.68 141.94 650.66 143.22 650.66 145.34V145.66C650.66 147.8 649.68 149.06 648.1 149.06ZM646.69 146.47L649.25 143.61C649 143.12 648.61 142.86 648.1 142.86C647.15 142.86 646.63 143.76 646.63 145.38V145.62C646.63 145.93 646.65 146.21 646.69 146.47ZM648.1 148.13C649.05 148.13 649.57 147.24 649.57 145.62V145.38C649.57 145.07 649.55 144.78 649.51 144.52L646.96 147.39C647.21 147.88 647.59 148.13 648.1 148.13ZM654.101 149.05C653.661 149.05 653.331 148.74 653.331 148.3C653.331 147.86 653.661 147.55 654.101 147.55C654.541 147.55 654.871 147.86 654.871 148.3C654.871 148.74 654.541 149.05 654.101 149.05ZM657.962 149V148.03H659.722V144.29C659.622 144.34 659.502 144.36 659.362 144.36H657.982V143.42H659.242C659.572 143.42 659.732 143.13 659.732 142.77V142H660.822V148.03H662.492V149H657.962ZM666.164 149.05C664.614 149.05 663.704 148.04 663.634 146.79H664.734C664.804 147.52 665.314 148.12 666.164 148.12C666.854 148.12 667.514 147.62 667.514 146.65C667.514 145.8 666.994 145.19 666.174 145.19C665.784 145.19 665.084 145.33 664.824 146.05L663.754 146.03L663.964 142H668.224V142.97H664.984L664.864 144.86C665.234 144.45 665.754 144.28 666.364 144.28C667.714 144.28 668.634 145.24 668.634 146.65C668.634 148.22 667.494 149.05 666.164 149.05Z" fill="#0094D3"/>
<path d="M648.1 214.06C646.52 214.06 645.54 212.8 645.54 210.66V210.34C645.54 208.22 646.52 206.94 648.1 206.94C649.68 206.94 650.66 208.22 650.66 210.34V210.66C650.66 212.8 649.68 214.06 648.1 214.06ZM646.69 211.47L649.25 208.61C649 208.12 648.61 207.86 648.1 207.86C647.15 207.86 646.63 208.76 646.63 210.38V210.62C646.63 210.93 646.65 211.21 646.69 211.47ZM648.1 213.13C649.05 213.13 649.57 212.24 649.57 210.62V210.38C649.57 210.07 649.55 209.78 649.51 209.52L646.96 212.39C647.21 212.88 647.59 213.13 648.1 213.13ZM654.101 214.05C653.661 214.05 653.331 213.74 653.331 213.3C653.331 212.86 653.661 212.55 654.101 212.55C654.541 212.55 654.871 212.86 654.871 213.3C654.871 213.74 654.541 214.05 654.101 214.05ZM657.962 214V213.03H659.722V209.29C659.622 209.34 659.502 209.36 659.362 209.36H657.982V208.42H659.242C659.572 208.42 659.732 208.13 659.732 207.77V207H660.822V213.03H662.492V214H657.962ZM666.104 214.06C664.524 214.06 663.544 212.8 663.544 210.66V210.34C663.544 208.22 664.524 206.94 666.104 206.94C667.684 206.94 668.664 208.22 668.664 210.34V210.66C668.664 212.8 667.684 214.06 666.104 214.06ZM664.694 211.47L667.254 208.61C667.004 208.12 666.614 207.86 666.104 207.86C665.154 207.86 664.634 208.76 664.634 210.38V210.62C664.634 210.93 664.654 211.21 664.694 211.47ZM666.104 213.13C667.054 213.13 667.574 212.24 667.574 210.62V210.38C667.574 210.07 667.554 209.78 667.514 209.52L664.964 212.39C665.214 212.88 665.594 213.13 666.104 213.13Z" fill="#0094D3"/>
<path d="M648.1 279.06C646.52 279.06 645.54 277.8 645.54 275.66V275.34C645.54 273.22 646.52 271.94 648.1 271.94C649.68 271.94 650.66 273.22 650.66 275.34V275.66C650.66 277.8 649.68 279.06 648.1 279.06ZM646.69 276.47L649.25 273.61C649 273.12 648.61 272.86 648.1 272.86C647.15 272.86 646.63 273.76 646.63 275.38V275.62C646.63 275.93 646.65 276.21 646.69 276.47ZM648.1 278.13C649.05 278.13 649.57 277.24 649.57 275.62V275.38C649.57 275.07 649.55 274.78 649.51 274.52L646.96 277.39C647.21 277.88 647.59 278.13 648.1 278.13ZM654.101 279.05C653.661 279.05 653.331 278.74 653.331 278.3C653.331 277.86 653.661 277.55 654.101 277.55C654.541 277.55 654.871 277.86 654.871 278.3C654.871 278.74 654.541 279.05 654.101 279.05ZM660.102 279.06C658.522 279.06 657.542 277.8 657.542 275.66V275.34C657.542 273.22 658.522 271.94 660.102 271.94C661.682 271.94 662.662 273.22 662.662 275.34V275.66C662.662 277.8 661.682 279.06 660.102 279.06ZM658.692 276.47L661.252 273.61C661.002 273.12 660.612 272.86 660.102 272.86C659.152 272.86 658.632 273.76 658.632 275.38V275.62C658.632 275.93 658.652 276.21 658.692 276.47ZM660.102 278.13C661.052 278.13 661.572 277.24 661.572 275.62V275.38C661.572 275.07 661.552 274.78 661.512 274.52L658.962 277.39C659.212 277.88 659.592 278.13 660.102 278.13ZM666.164 279.05C664.614 279.05 663.704 278.04 663.634 276.79H664.734C664.804 277.52 665.314 278.12 666.164 278.12C666.854 278.12 667.514 277.62 667.514 276.65C667.514 275.8 666.994 275.19 666.174 275.19C665.784 275.19 665.084 275.33 664.824 276.05L663.754 276.03L663.964 272H668.224V272.97H664.984L664.864 274.86C665.234 274.45 665.754 274.28 666.364 274.28C667.714 274.28 668.634 275.24 668.634 276.65C668.634 278.22 667.494 279.05 666.164 279.05Z" fill="#0094D3"/>
<path d="M648.1 344.06C646.52 344.06 645.54 342.8 645.54 340.66V340.34C645.54 338.22 646.52 336.94 648.1 336.94C649.68 336.94 650.66 338.22 650.66 340.34V340.66C650.66 342.8 649.68 344.06 648.1 344.06ZM646.69 341.47L649.25 338.61C649 338.12 648.61 337.86 648.1 337.86C647.15 337.86 646.63 338.76 646.63 340.38V340.62C646.63 340.93 646.65 341.21 646.69 341.47ZM648.1 343.13C649.05 343.13 649.57 342.24 649.57 340.62V340.38C649.57 340.07 649.55 339.78 649.51 339.52L646.96 342.39C647.21 342.88 647.59 343.13 648.1 343.13ZM654.101 344.05C653.661 344.05 653.331 343.74 653.331 343.3C653.331 342.86 653.661 342.55 654.101 342.55C654.541 342.55 654.871 342.86 654.871 343.3C654.871 343.74 654.541 344.05 654.101 344.05ZM660.102 344.06C658.522 344.06 657.542 342.8 657.542 340.66V340.34C657.542 338.22 658.522 336.94 660.102 336.94C661.682 336.94 662.662 338.22 662.662 340.34V340.66C662.662 342.8 661.682 344.06 660.102 344.06ZM658.692 341.47L661.252 338.61C661.002 338.12 660.612 337.86 660.102 337.86C659.152 337.86 658.632 338.76 658.632 340.38V340.62C658.632 340.93 658.652 341.21 658.692 341.47ZM660.102 343.13C661.052 343.13 661.572 342.24 661.572 340.62V340.38C661.572 340.07 661.552 339.78 661.512 339.52L658.962 342.39C659.212 342.88 659.592 343.13 660.102 343.13ZM666.104 344.06C664.524 344.06 663.544 342.8 663.544 340.66V340.34C663.544 338.22 664.524 336.94 666.104 336.94C667.684 336.94 668.664 338.22 668.664 340.34V340.66C668.664 342.8 667.684 344.06 666.104 344.06ZM664.694 341.47L667.254 338.61C667.004 338.12 666.614 337.86 666.104 337.86C665.154 337.86 664.634 338.76 664.634 340.38V340.62C664.634 340.93 664.654 341.21 664.694 341.47ZM666.104 343.13C667.054 343.13 667.574 342.24 667.574 340.62V340.38C667.574 340.07 667.554 339.78 667.514 339.52L664.964 342.39C665.214 342.88 665.594 343.13 666.104 343.13Z" fill="#0094D3"/>
<path d="M66.1 361.06C64.52 361.06 63.54 359.8 63.54 357.66V357.34C63.54 355.22 64.52 353.94 66.1 353.94C67.68 353.94 68.66 355.22 68.66 357.34V357.66C68.66 359.8 67.68 361.06 66.1 361.06ZM64.69 358.47L67.25 355.61C67 355.12 66.61 354.86 66.1 354.86C65.15 354.86 64.63 355.76 64.63 357.38V357.62C64.63 357.93 64.65 358.21 64.69 358.47ZM66.1 360.13C67.05 360.13 67.57 359.24 67.57 357.62V357.38C67.57 357.07 67.55 356.78 67.51 356.52L64.96 359.39C65.21 359.88 65.59 360.13 66.1 360.13Z" fill="#0094D3"/>
<path d="M220.67 361V360.11L223.28 357.82C223.9 357.28 224.33 356.79 224.33 356.13C224.33 355.33 223.82 354.89 223.07 354.89C222.31 354.89 221.79 355.43 221.79 356.3V356.42H220.68V356.24C220.68 354.91 221.61 353.94 223.07 353.94C224.59 353.94 225.46 354.8 225.46 356.08C225.46 357.1 224.86 357.76 224.03 358.48L222.25 360.03H225.5V361H220.67ZM229.101 361.06C227.521 361.06 226.541 359.8 226.541 357.66V357.34C226.541 355.22 227.521 353.94 229.101 353.94C230.681 353.94 231.661 355.22 231.661 357.34V357.66C231.661 359.8 230.681 361.06 229.101 361.06ZM227.691 358.47L230.251 355.61C230.001 355.12 229.611 354.86 229.101 354.86C228.151 354.86 227.631 355.76 227.631 357.38V357.62C227.631 357.93 227.651 358.21 227.691 358.47ZM229.101 360.13C230.051 360.13 230.571 359.24 230.571 357.62V357.38C230.571 357.07 230.551 356.78 230.511 356.52L227.961 359.39C228.211 359.88 228.591 360.13 229.101 360.13Z" fill="#0094D3"/>
<path d="M386.74 361V359.38H383.37V358.44L386.51 354H387.84V358.42H388.77V359.38H387.84V361H386.74ZM384.5 358.42H386.74V355.27L384.5 358.42ZM392.101 361.06C390.521 361.06 389.541 359.8 389.541 357.66V357.34C389.541 355.22 390.521 353.94 392.101 353.94C393.681 353.94 394.661 355.22 394.661 357.34V357.66C394.661 359.8 393.681 361.06 392.101 361.06ZM390.691 358.47L393.251 355.61C393.001 355.12 392.611 354.86 392.101 354.86C391.151 354.86 390.631 355.76 390.631 357.38V357.62C390.631 357.93 390.651 358.21 390.691 358.47ZM392.101 360.13C393.051 360.13 393.571 359.24 393.571 357.62V357.38C393.571 357.07 393.551 356.78 393.511 356.52L390.961 359.39C391.211 359.88 391.591 360.13 392.101 360.13Z" fill="#0094D3"/>
<path d="M549.22 361.06C548.29 361.06 547.56 360.64 547.11 359.93C546.75 359.35 546.54 358.51 546.54 357.55C546.54 355.28 547.56 353.94 549.23 353.94C550.48 353.94 551.39 354.69 551.56 355.91H550.46C550.32 355.26 549.89 354.86 549.18 354.86C548.14 354.86 547.59 355.95 547.59 357.18V357.45C547.82 356.8 548.54 356.34 549.37 356.34C550.72 356.34 551.66 357.28 551.66 358.7C551.66 360.08 550.67 361.06 549.22 361.06ZM549.21 360.15C550.02 360.15 550.55 359.55 550.55 358.7C550.55 357.85 550.04 357.25 549.24 357.25C548.42 357.25 547.87 357.84 547.87 358.71C547.87 359.56 548.41 360.15 549.21 360.15ZM555.101 361.06C553.521 361.06 552.541 359.8 552.541 357.66V357.34C552.541 355.22 553.521 353.94 555.101 353.94C556.681 353.94 557.661 355.22 557.661 357.34V357.66C557.661 359.8 556.681 361.06 555.101 361.06ZM553.691 358.47L556.251 355.61C556.001 355.12 555.611 354.86 555.101 354.86C554.151 354.86 553.631 355.76 553.631 357.38V357.62C553.631 357.93 553.651 358.21 553.691 358.47ZM555.101 360.13C556.051 360.13 556.571 359.24 556.571 357.62V357.38C556.571 357.07 556.551 356.78 556.511 356.52L553.961 359.39C554.211 359.88 554.591 360.13 555.101 360.13Z" fill="#0094D3"/>
<path opacity="0.56" d="M297.19 381.6C297.742 381.6 298.222 381.708 298.654 381.924C299.074 382.14 299.398 382.44 299.638 382.824C299.866 383.208 299.986 383.664 299.986 384.18C299.986 384.768 299.818 385.272 299.494 385.704C299.17 386.136 298.738 386.424 298.198 386.568L300.082 390H298.906L297.166 386.772H295.018V390H293.974V381.6H297.19ZM295.018 385.812H297.106C297.658 385.812 298.09 385.668 298.426 385.368C298.75 385.08 298.918 384.684 298.918 384.18C298.918 383.7 298.75 383.304 298.426 383.004C298.09 382.716 297.658 382.56 297.118 382.56H295.018V385.812ZM300.994 385.296C301.234 384.828 301.582 384.468 302.026 384.204C302.458 383.94 302.962 383.808 303.538 383.808C304.09 383.808 304.594 383.928 305.026 384.156C305.458 384.396 305.794 384.732 306.046 385.164C306.286 385.608 306.418 386.124 306.442 386.712C306.442 386.808 306.43 386.94 306.418 387.132H301.666V387.216C301.678 387.816 301.858 388.296 302.218 388.656C302.566 389.016 303.022 389.196 303.598 389.196C304.03 389.196 304.402 389.088 304.714 388.872C305.026 388.656 305.23 388.344 305.338 387.948H306.334C306.214 388.572 305.914 389.088 305.434 389.484C304.954 389.88 304.366 390.072 303.67 390.072C303.058 390.072 302.53 389.952 302.074 389.688C301.618 389.424 301.258 389.064 301.006 388.584C300.754 388.104 300.634 387.564 300.634 386.94C300.634 386.316 300.754 385.776 300.994 385.296ZM305.422 386.316C305.374 385.8 305.17 385.392 304.834 385.104C304.498 384.816 304.066 384.672 303.55 384.672C303.082 384.672 302.674 384.828 302.326 385.128C301.966 385.44 301.774 385.836 301.726 386.316H305.422ZM307.565 381.6H308.549V390H307.565V381.6ZM315.621 389.1V390H315.081C314.685 390 314.409 389.928 314.241 389.76C314.073 389.604 313.977 389.364 313.977 389.052C313.497 389.736 312.813 390.072 311.925 390.072C311.241 390.072 310.689 389.916 310.281 389.592C309.873 389.28 309.669 388.836 309.669 388.284C309.669 387.672 309.873 387.204 310.293 386.868C310.713 386.544 311.325 386.376 312.129 386.376H313.929V385.956C313.929 385.56 313.785 385.248 313.521 385.02C313.257 384.804 312.885 384.684 312.405 384.684C311.973 384.684 311.625 384.78 311.349 384.972C311.073 385.164 310.905 385.404 310.845 385.716H309.861C309.933 385.116 310.197 384.648 310.653 384.312C311.109 383.976 311.709 383.808 312.453 383.808C313.233 383.808 313.833 384 314.265 384.384C314.697 384.768 314.913 385.308 314.913 386.016V388.656C314.913 388.956 315.045 389.1 315.321 389.1H315.621ZM313.929 387.204H312.033C311.121 387.204 310.665 387.552 310.665 388.224C310.665 388.536 310.785 388.776 311.025 388.956C311.265 389.148 311.589 389.232 311.997 389.232C312.597 389.232 313.065 389.076 313.413 388.764C313.749 388.452 313.929 388.032 313.929 387.504V387.204ZM316.785 384.78H315.681V383.88H316.785V382.164H317.769V383.88H319.317V384.78H317.769V388.392C317.769 388.656 317.817 388.836 317.913 388.944C318.009 389.052 318.189 389.1 318.441 389.1H319.509V390H318.381C317.805 390 317.385 389.88 317.145 389.616C316.905 389.364 316.785 388.956 316.785 388.404V384.78ZM321.157 381.696C321.277 381.816 321.337 381.972 321.337 382.152C321.337 382.344 321.277 382.488 321.157 382.608C321.037 382.728 320.881 382.788 320.701 382.788C320.509 382.788 320.365 382.728 320.245 382.608C320.125 382.488 320.065 382.344 320.065 382.152C320.065 381.972 320.125 381.816 320.245 381.696C320.365 381.576 320.509 381.516 320.701 381.516C320.881 381.516 321.037 381.576 321.157 381.696ZM320.209 383.88H321.193V390H320.209V383.88ZM321.929 383.88H322.985L324.833 388.884L326.669 383.88H327.701L325.409 390H324.221L321.929 383.88ZM328.345 385.296C328.585 384.828 328.933 384.468 329.377 384.204C329.809 383.94 330.313 383.808 330.889 383.808C331.441 383.808 331.945 383.928 332.377 384.156C332.809 384.396 333.145 384.732 333.397 385.164C333.637 385.608 333.769 386.124 333.793 386.712C333.793 386.808 333.781 386.94 333.769 387.132H329.017V387.216C329.029 387.816 329.209 388.296 329.569 388.656C329.917 389.016 330.373 389.196 330.949 389.196C331.381 389.196 331.753 389.088 332.065 388.872C332.377 388.656 332.581 388.344 332.689 387.948H333.685C333.565 388.572 333.265 389.088 332.785 389.484C332.305 389.88 331.717 390.072 331.021 390.072C330.409 390.072 329.881 389.952 329.425 389.688C328.969 389.424 328.609 389.064 328.357 388.584C328.105 388.104 327.985 387.564 327.985 386.94C327.985 386.316 328.105 385.776 328.345 385.296ZM332.773 386.316C332.725 385.8 332.521 385.392 332.185 385.104C331.849 384.816 331.417 384.672 330.901 384.672C330.433 384.672 330.025 384.828 329.677 385.128C329.317 385.44 329.125 385.836 329.077 386.316H332.773ZM342.857 384.48C343.313 384.936 343.541 385.632 343.541 386.592V390H342.557V386.652C342.557 386.028 342.413 385.548 342.125 385.212C341.837 384.876 341.417 384.708 340.889 384.708C340.313 384.708 339.869 384.912 339.533 385.308C339.197 385.716 339.041 386.256 339.041 386.94V390H338.057V381.6H339.041V384.888C339.233 384.576 339.497 384.312 339.833 384.108C340.169 383.916 340.577 383.808 341.057 383.808C341.801 383.808 342.401 384.036 342.857 384.48ZM350.063 383.88V390H349.211L349.079 389.184C348.611 389.784 347.963 390.072 347.123 390.072C346.391 390.072 345.803 389.856 345.371 389.4C344.927 388.956 344.711 388.248 344.711 387.288V383.88H345.695V387.228C345.695 387.864 345.827 388.344 346.103 388.68C346.379 389.016 346.775 389.172 347.291 389.172C347.843 389.172 348.287 388.98 348.599 388.572C348.911 388.176 349.079 387.636 349.079 386.94V383.88H350.063ZM359.9 384.456C360.332 384.888 360.548 385.56 360.548 386.472V390H359.564V386.532C359.564 385.944 359.432 385.488 359.18 385.176C358.928 384.864 358.568 384.708 358.112 384.708C357.596 384.708 357.188 384.888 356.9 385.248C356.612 385.608 356.468 386.1 356.468 386.724V390H355.484V386.532C355.484 385.944 355.352 385.488 355.1 385.176C354.836 384.864 354.476 384.708 354.008 384.708C353.504 384.708 353.108 384.9 352.82 385.284C352.532 385.668 352.388 386.16 352.388 386.772V390H351.404V383.88H352.256L352.388 384.72C352.82 384.12 353.42 383.808 354.176 383.808C354.608 383.808 355.004 383.916 355.34 384.108C355.676 384.3 355.94 384.588 356.108 384.972C356.54 384.204 357.248 383.808 358.232 383.808C358.916 383.808 359.468 384.024 359.9 384.456ZM362.759 381.696C362.879 381.816 362.939 381.972 362.939 382.152C362.939 382.344 362.879 382.488 362.759 382.608C362.639 382.728 362.483 382.788 362.303 382.788C362.111 382.788 361.967 382.728 361.847 382.608C361.727 382.488 361.667 382.344 361.667 382.152C361.667 381.972 361.727 381.816 361.847 381.696C361.967 381.576 362.111 381.516 362.303 381.516C362.483 381.516 362.639 381.576 362.759 381.696ZM361.811 383.88H362.795V390H361.811V383.88ZM369.951 381.6V390H369.099L368.967 389.016C368.451 389.724 367.755 390.072 366.867 390.072C366.291 390.072 365.787 389.952 365.343 389.7C364.899 389.46 364.551 389.1 364.299 388.62C364.047 388.152 363.927 387.588 363.927 386.94C363.927 386.328 364.047 385.788 364.299 385.308C364.551 384.84 364.899 384.468 365.355 384.204C365.799 383.94 366.303 383.808 366.867 383.808C367.359 383.808 367.779 383.904 368.139 384.084C368.487 384.264 368.763 384.504 368.967 384.816V381.6H369.951ZM368.007 388.92C368.319 388.728 368.559 388.464 368.727 388.128C368.895 387.792 368.979 387.396 368.979 386.964C368.979 386.532 368.895 386.136 368.727 385.788C368.559 385.44 368.319 385.164 368.007 384.972C367.695 384.78 367.347 384.684 366.963 384.684C366.351 384.684 365.859 384.9 365.487 385.32C365.115 385.74 364.935 386.28 364.935 386.94C364.935 387.612 365.115 388.152 365.487 388.572C365.859 388.992 366.351 389.196 366.963 389.196C367.347 389.196 367.695 389.112 368.007 388.92ZM372.239 381.696C372.359 381.816 372.419 381.972 372.419 382.152C372.419 382.344 372.359 382.488 372.239 382.608C372.119 382.728 371.963 382.788 371.783 382.788C371.591 382.788 371.447 382.728 371.327 382.608C371.207 382.488 371.147 382.344 371.147 382.152C371.147 381.972 371.207 381.816 371.327 381.696C371.447 381.576 371.591 381.516 371.783 381.516C371.963 381.516 372.119 381.576 372.239 381.696ZM371.291 383.88H372.275V390H371.291V383.88ZM374.031 384.78H372.927V383.88H374.031V382.164H375.015V383.88H376.563V384.78H375.015V388.392C375.015 388.656 375.063 388.836 375.159 388.944C375.255 389.052 375.435 389.1 375.687 389.1H376.755V390H375.627C375.051 390 374.631 389.88 374.391 389.616C374.151 389.364 374.031 388.956 374.031 388.404V384.78ZM377.887 383.88L379.771 388.872L381.595 383.88H382.639L379.819 391.032C379.675 391.404 379.543 391.68 379.435 391.86C379.315 392.052 379.183 392.184 379.015 392.268C378.847 392.364 378.619 392.4 378.343 392.4H377.167V391.5H378.043C378.235 391.5 378.379 391.488 378.475 391.44C378.571 391.404 378.643 391.344 378.703 391.248C378.763 391.152 378.835 390.996 378.931 390.78L379.243 390.048L376.843 383.88H377.887ZM389.442 381.6C388.722 382.596 388.206 383.496 387.918 384.288C387.618 385.08 387.474 385.992 387.474 387C387.474 388.008 387.618 388.92 387.918 389.712C388.206 390.504 388.722 391.404 389.442 392.4H388.41C387.738 391.488 387.246 390.612 386.946 389.772C386.646 388.932 386.502 388.008 386.502 387C386.502 385.992 386.646 385.08 386.946 384.24C387.246 383.4 387.738 382.524 388.41 381.6H389.442ZM390.363 382.524C390.543 382.212 390.795 381.972 391.119 381.792C391.431 381.624 391.791 381.528 392.199 381.528C392.595 381.528 392.955 381.624 393.279 381.792C393.591 381.972 393.843 382.212 394.035 382.524C394.215 382.836 394.311 383.184 394.311 383.568C394.311 383.952 394.215 384.3 394.035 384.612C393.843 384.924 393.591 385.164 393.279 385.332C392.955 385.5 392.595 385.584 392.199 385.584C391.791 385.584 391.431 385.5 391.119 385.332C390.795 385.164 390.543 384.924 390.363 384.612C390.171 384.3 390.087 383.952 390.087 383.568C390.087 383.184 390.171 382.836 390.363 382.524ZM391.503 390L397.227 381.6H398.199L392.475 390H391.503ZM393.075 382.68C392.835 382.44 392.547 382.32 392.199 382.32C391.839 382.32 391.551 382.44 391.323 382.68C391.083 382.92 390.975 383.208 390.975 383.568C390.975 383.928 391.083 384.216 391.323 384.444C391.551 384.684 391.839 384.792 392.199 384.792C392.547 384.792 392.835 384.684 393.075 384.444C393.303 384.216 393.423 383.928 393.423 383.568C393.423 383.208 393.303 382.92 393.075 382.68ZM395.643 387.012C395.823 386.7 396.075 386.46 396.399 386.28C396.711 386.112 397.071 386.016 397.479 386.016C397.875 386.016 398.235 386.112 398.559 386.28C398.871 386.46 399.123 386.7 399.315 387.012C399.495 387.324 399.591 387.672 399.591 388.056C399.591 388.44 399.495 388.788 399.315 389.1C399.123 389.412 398.871 389.652 398.559 389.82C398.235 389.988 397.875 390.072 397.479 390.072C397.071 390.072 396.711 389.988 396.399 389.82C396.075 389.652 395.823 389.412 395.643 389.1C395.451 388.788 395.367 388.44 395.367 388.056C395.367 387.672 395.451 387.324 395.643 387.012ZM398.355 387.168C398.115 386.928 397.827 386.808 397.479 386.808C397.119 386.808 396.831 386.928 396.603 387.168C396.363 387.408 396.255 387.696 396.255 388.056C396.255 388.416 396.363 388.704 396.603 388.932C396.831 389.172 397.119 389.28 397.479 389.28C397.827 389.28 398.115 389.172 398.355 388.932C398.583 388.704 398.703 388.416 398.703 388.056C398.703 387.696 398.583 387.408 398.355 387.168ZM402.788 384.24C403.088 385.08 403.244 385.992 403.244 387C403.244 388.008 403.088 388.932 402.788 389.772C402.488 390.612 402.008 391.488 401.336 392.4H400.304C401.024 391.404 401.528 390.504 401.828 389.712C402.116 388.92 402.272 388.008 402.272 387C402.272 385.992 402.116 385.08 401.828 384.288C401.528 383.496 401.024 382.596 400.304 381.6H401.336C402.008 382.524 402.488 383.4 402.788 384.24Z" fill="#0094D3"/>
<path opacity="0.56" d="M42.6 241.905H47.472C49.236 241.905 50.112 241.197 50.112 239.757C50.112 238.317 49.236 237.585 47.472 237.585H42.6V236.541H47.412C48.612 236.541 49.524 236.817 50.148 237.369C50.772 237.921 51.072 238.713 51.072 239.757C51.072 240.813 50.772 241.605 50.148 242.145C49.524 242.685 48.612 242.949 47.412 242.949H42.6V241.905ZM45.18 230.503C45.432 230.059 45.792 229.711 46.26 229.459C46.74 229.207 47.292 229.075 47.94 229.075C48.564 229.075 49.104 229.207 49.572 229.459C50.052 229.711 50.412 230.059 50.676 230.503C50.94 230.959 51.072 231.463 51.072 232.015C51.072 232.519 50.988 232.939 50.808 233.287C50.628 233.647 50.376 233.923 50.064 234.115H53.4V235.099H44.88V234.247L45.864 234.115C45.168 233.611 44.808 232.903 44.808 232.015C44.808 231.451 44.94 230.947 45.18 230.503ZM49.572 230.647C49.152 230.275 48.612 230.083 47.94 230.083C47.28 230.083 46.74 230.275 46.32 230.647C45.9 231.019 45.684 231.511 45.684 232.111C45.684 232.507 45.78 232.855 45.972 233.167C46.164 233.479 46.428 233.707 46.764 233.875C47.1 234.043 47.484 234.127 47.916 234.127C48.36 234.127 48.756 234.043 49.104 233.875C49.452 233.707 49.716 233.479 49.908 233.167C50.1 232.855 50.196 232.507 50.196 232.111C50.196 231.511 49.992 231.019 49.572 230.647ZM45.78 227.613V228.717H44.88V227.613H43.164V226.629H44.88V225.081H45.78V226.629H49.392C49.656 226.629 49.836 226.581 49.944 226.485C50.052 226.389 50.1 226.209 50.1 225.957V224.889H51V226.017C51 226.593 50.88 227.013 50.616 227.253C50.364 227.493 49.956 227.613 49.404 227.613H45.78ZM50.1 218.559H51V219.099C51 219.495 50.928 219.771 50.76 219.939C50.604 220.107 50.364 220.203 50.052 220.203C50.736 220.683 51.072 221.367 51.072 222.255C51.072 222.939 50.916 223.491 50.592 223.899C50.28 224.307 49.836 224.511 49.284 224.511C48.672 224.511 48.204 224.307 47.868 223.887C47.544 223.467 47.376 222.855 47.376 222.051V220.251H46.956C46.56 220.251 46.248 220.395 46.02 220.659C45.804 220.923 45.684 221.295 45.684 221.775C45.684 222.207 45.78 222.555 45.972 222.831C46.164 223.107 46.404 223.275 46.716 223.335V224.319C46.116 224.247 45.648 223.983 45.312 223.527C44.976 223.071 44.808 222.471 44.808 221.727C44.808 220.947 45 220.347 45.384 219.915C45.768 219.483 46.308 219.267 47.016 219.267H49.656C49.956 219.267 50.1 219.135 50.1 218.859V218.559ZM48.204 220.251V222.147C48.204 223.059 48.552 223.515 49.224 223.515C49.536 223.515 49.776 223.395 49.956 223.155C50.148 222.915 50.232 222.591 50.232 222.183C50.232 221.583 50.076 221.115 49.764 220.767C49.452 220.431 49.032 220.251 48.504 220.251H48.204ZM42.6 217.803V216.819H48.168L44.88 213.711V212.535L47.388 214.887L51 212.367V213.555L48.096 215.595L49.38 216.819H51V217.803H42.6ZM46.296 211.811C45.828 211.571 45.468 211.223 45.204 210.779C44.94 210.347 44.808 209.843 44.808 209.267C44.808 208.715 44.928 208.211 45.156 207.779C45.396 207.347 45.732 207.011 46.164 206.759C46.608 206.519 47.124 206.387 47.712 206.363C47.808 206.363 47.94 206.375 48.132 206.387V211.139H48.216C48.816 211.127 49.296 210.947 49.656 210.587C50.016 210.239 50.196 209.783 50.196 209.207C50.196 208.775 50.088 208.403 49.872 208.091C49.656 207.779 49.344 207.575 48.948 207.467V206.471C49.572 206.591 50.088 206.891 50.484 207.371C50.88 207.851 51.072 208.439 51.072 209.135C51.072 209.747 50.952 210.275 50.688 210.731C50.424 211.187 50.064 211.547 49.584 211.799C49.104 212.051 48.564 212.171 47.94 212.171C47.316 212.171 46.776 212.051 46.296 211.811ZM47.316 207.383C46.8 207.431 46.392 207.635 46.104 207.971C45.816 208.307 45.672 208.739 45.672 209.255C45.672 209.723 45.828 210.131 46.128 210.479C46.44 210.839 46.836 211.031 47.316 211.079V207.383ZM42.6 199.171C43.596 199.891 44.496 200.407 45.288 200.695C46.08 200.995 46.992 201.139 48 201.139C49.008 201.139 49.92 200.995 50.712 200.695C51.504 200.407 52.404 199.891 53.4 199.171V200.203C52.488 200.875 51.612 201.367 50.772 201.667C49.932 201.967 49.008 202.111 48 202.111C46.992 202.111 46.08 201.967 45.24 201.667C44.4 201.367 43.524 200.875 42.6 200.203V199.171ZM44.88 192.694H50.7C52.548 192.694 53.472 193.714 53.472 195.73C53.472 196.522 53.292 197.17 52.932 197.674C52.572 198.178 52.068 198.466 51.396 198.538V197.53C51.78 197.458 52.08 197.254 52.284 196.918C52.5 196.594 52.596 196.174 52.596 195.658C52.596 194.338 51.96 193.678 50.664 193.678H49.944C50.7 194.122 51.072 194.818 51.072 195.778C51.072 196.354 50.952 196.858 50.7 197.302C50.46 197.746 50.1 198.094 49.62 198.346C49.152 198.598 48.588 198.718 47.94 198.718C47.328 198.718 46.788 198.598 46.308 198.346C45.84 198.094 45.468 197.746 45.204 197.29C44.94 196.846 44.808 196.342 44.808 195.778C44.808 195.286 44.916 194.866 45.108 194.506C45.3 194.158 45.576 193.882 45.936 193.678L44.88 193.546V192.694ZM49.92 194.638C49.728 194.326 49.464 194.086 49.128 193.918C48.792 193.75 48.396 193.666 47.964 193.666C47.532 193.666 47.136 193.75 46.788 193.918C46.44 194.086 46.164 194.326 45.972 194.638C45.78 194.95 45.684 195.298 45.684 195.682C45.684 196.294 45.9 196.786 46.32 197.158C46.74 197.53 47.28 197.71 47.94 197.71C48.612 197.71 49.152 197.53 49.572 197.158C49.992 196.786 50.196 196.294 50.196 195.682C50.196 195.298 50.112 194.95 49.92 194.638ZM53.4 192.114L42.6 188.598V187.662L53.4 191.178V192.114ZM44.88 181.549H50.7C52.548 181.549 53.472 182.569 53.472 184.585C53.472 185.377 53.292 186.025 52.932 186.529C52.572 187.033 52.068 187.321 51.396 187.393V186.385C51.78 186.313 52.08 186.109 52.284 185.773C52.5 185.449 52.596 185.029 52.596 184.513C52.596 183.193 51.96 182.533 50.664 182.533H49.944C50.7 182.977 51.072 183.673 51.072 184.633C51.072 185.209 50.952 185.713 50.7 186.157C50.46 186.601 50.1 186.949 49.62 187.201C49.152 187.453 48.588 187.573 47.94 187.573C47.328 187.573 46.788 187.453 46.308 187.201C45.84 186.949 45.468 186.601 45.204 186.145C44.94 185.701 44.808 185.197 44.808 184.633C44.808 184.141 44.916 183.721 45.108 183.361C45.3 183.013 45.576 182.737 45.936 182.533L44.88 182.401L44.88 181.549ZM49.92 183.493C49.728 183.181 49.464 182.941 49.128 182.773C48.792 182.605 48.396 182.521 47.964 182.521C47.532 182.521 47.136 182.605 46.788 182.773C46.44 182.941 46.164 183.181 45.972 183.493C45.78 183.805 45.684 184.153 45.684 184.537C45.684 185.149 45.9 185.641 46.32 186.013C46.74 186.385 47.28 186.565 47.94 186.565C48.612 186.565 49.152 186.385 49.572 186.013C49.992 185.641 50.196 185.149 50.196 184.537C50.196 184.153 50.112 183.805 49.92 183.493ZM45.24 178.337C46.08 178.037 46.992 177.881 48 177.881C49.008 177.881 49.932 178.037 50.772 178.337C51.612 178.637 52.488 179.117 53.4 179.789V180.821C52.404 180.101 51.504 179.597 50.712 179.297C49.92 179.009 49.008 178.853 48 178.853C46.992 178.853 46.08 179.009 45.288 179.297C44.496 179.597 43.596 180.101 42.6 180.821V179.789C43.524 179.117 44.4 178.637 45.24 178.337Z" fill="#0094D3"/>
<path d="M72.16 34.2C73.312 34.2 74.344 34.44 75.232 34.872C76.096 35.304 76.792 35.928 77.272 36.744C77.752 37.56 78.016 38.496 78.016 39.552C78.016 40.68 77.704 41.664 77.128 42.504C76.528 43.368 75.736 43.968 74.752 44.304L78.304 51H75.232L72.04 44.904H68.296V51H65.536V34.2H72.16ZM68.296 42.504H71.944C72.928 42.504 73.72 42.24 74.296 41.712C74.872 41.184 75.184 40.464 75.184 39.552C75.184 38.664 74.872 37.944 74.296 37.416C73.72 36.888 72.928 36.6 71.944 36.6H68.296V42.504ZM91.1301 48.744V51H89.7621C88.9461 51 88.3701 50.832 88.0341 50.496C87.6741 50.16 87.5061 49.68 87.5061 49.032C86.5701 50.448 85.2261 51.144 83.4501 51.144C82.0581 51.144 80.9541 50.832 80.1381 50.184C79.2981 49.56 78.8901 48.672 78.8901 47.544C78.8901 46.296 79.3221 45.312 80.2341 44.64C81.1221 43.968 82.4181 43.608 84.1461 43.608H87.2421V42.864C87.2421 42.192 87.0021 41.64 86.5221 41.256C86.0421 40.872 85.3701 40.656 84.5301 40.656C83.7621 40.656 83.1381 40.824 82.6581 41.16C82.1781 41.496 81.8901 41.928 81.7941 42.456H79.2501C79.3701 41.232 79.9221 40.272 80.8821 39.6C81.8421 38.928 83.0901 38.568 84.6501 38.568C86.2821 38.568 87.5541 38.952 88.4661 39.72C89.3541 40.488 89.8101 41.592 89.8101 43.032V47.88C89.8101 48.456 90.0741 48.744 90.6261 48.744H91.1301ZM87.2421 45.528H84.0261C83.2101 45.528 82.6101 45.696 82.1781 46.008C81.7461 46.32 81.5301 46.776 81.5301 47.376C81.5301 47.904 81.7221 48.336 82.1301 48.648C82.5381 48.984 83.0901 49.128 83.8101 49.128C84.8661 49.128 85.7061 48.84 86.3061 48.264C86.9061 47.688 87.2181 46.92 87.2421 45.96V45.528ZM101.638 39.336C102.502 39.84 103.198 40.56 103.702 41.52C104.182 42.48 104.446 43.584 104.446 44.856C104.446 46.104 104.182 47.208 103.702 48.168C103.198 49.128 102.502 49.848 101.638 50.376C100.75 50.904 99.742 51.144 98.638 51.144C97.726 51.144 96.934 50.976 96.262 50.64C95.59 50.304 95.038 49.848 94.654 49.272V55.8H92.062V38.712H94.318L94.63 40.536C95.614 39.24 96.958 38.568 98.638 38.568C99.742 38.568 100.75 38.832 101.638 39.336ZM100.798 47.808C101.47 47.04 101.806 46.056 101.806 44.856C101.806 43.656 101.47 42.672 100.798 41.904C100.126 41.16 99.262 40.776 98.206 40.776C97.126 40.776 96.262 41.16 95.614 41.904C94.942 42.648 94.63 43.608 94.63 44.808C94.63 46.056 94.942 47.04 95.614 47.808C96.262 48.576 97.126 48.96 98.206 48.96C99.262 48.96 100.126 48.576 100.798 47.808ZM108.467 34.248C108.755 34.536 108.923 34.92 108.923 35.352C108.923 35.808 108.755 36.192 108.467 36.48C108.155 36.768 107.771 36.912 107.339 36.912C106.883 36.912 106.499 36.768 106.211 36.48C105.899 36.192 105.755 35.808 105.755 35.352C105.755 34.92 105.899 34.536 106.211 34.248C106.499 33.96 106.883 33.792 107.339 33.792C107.771 33.792 108.155 33.96 108.467 34.248ZM106.043 38.712H108.635V51H106.043V38.712ZM122.624 34.2V51H120.368L120.056 49.152C119.072 50.496 117.728 51.144 116.048 51.144C114.92 51.144 113.912 50.904 113.048 50.4C112.16 49.896 111.464 49.176 110.984 48.216C110.48 47.256 110.24 46.152 110.24 44.856C110.24 43.608 110.48 42.528 110.984 41.568C111.488 40.608 112.184 39.888 113.072 39.36C113.936 38.832 114.944 38.568 116.048 38.568C116.936 38.568 117.728 38.736 118.4 39.072C119.072 39.408 119.6 39.84 120.032 40.416V34.2H122.624ZM119.072 47.832C119.72 47.088 120.056 46.104 120.056 44.904C120.056 43.68 119.72 42.696 119.072 41.928C118.4 41.16 117.536 40.776 116.48 40.776C115.4 40.776 114.536 41.16 113.888 41.928C113.216 42.696 112.904 43.656 112.904 44.856C112.904 46.08 113.216 47.064 113.888 47.832C114.536 48.6 115.4 48.96 116.48 48.96C117.536 48.96 118.4 48.6 119.072 47.832ZM131.129 40.992H128.993V38.712H131.129V35.28H133.745V38.712H136.697V40.992H133.745V47.4C133.745 47.88 133.841 48.24 134.033 48.432C134.225 48.624 134.537 48.72 135.017 48.72H136.985V51H134.489C133.313 51 132.449 50.736 131.921 50.184C131.393 49.656 131.129 48.816 131.129 47.664V40.992ZM147.928 39.912C148.84 40.824 149.32 42.264 149.32 44.232V51H146.728V44.376C146.728 43.224 146.464 42.336 145.96 41.712C145.456 41.112 144.736 40.8 143.776 40.8C142.744 40.8 141.928 41.16 141.352 41.88C140.776 42.6 140.488 43.56 140.488 44.784V51H137.896V34.2H140.488V40.488C141.4 39.216 142.696 38.568 144.352 38.568C145.816 38.568 147.016 39.024 147.928 39.912ZM151.486 41.568C151.99 40.608 152.686 39.888 153.598 39.36C154.51 38.832 155.542 38.568 156.718 38.568C157.894 38.568 158.926 38.808 159.838 39.288C160.75 39.768 161.446 40.464 161.974 41.328C162.502 42.216 162.766 43.248 162.79 44.424C162.79 44.76 162.766 45.072 162.718 45.408H153.454V45.552C153.502 46.632 153.838 47.472 154.462 48.096C155.062 48.72 155.878 49.032 156.886 49.032C157.678 49.032 158.35 48.864 158.902 48.48C159.43 48.096 159.79 47.568 159.982 46.872H162.574C162.334 48.12 161.734 49.152 160.75 49.944C159.766 50.76 158.542 51.144 157.078 51.144C155.782 51.144 154.678 50.904 153.718 50.376C152.758 49.848 152.038 49.128 151.51 48.168C150.982 47.232 150.742 46.128 150.742 44.88C150.742 43.632 150.982 42.528 151.486 41.568ZM160.15 43.512C160.03 42.624 159.67 41.928 159.07 41.424C158.47 40.92 157.726 40.656 156.814 40.656C155.95 40.656 155.23 40.92 154.606 41.448C153.982 41.976 153.646 42.648 153.55 43.512H160.15ZM171.197 38.712V41.136H170.045C168.965 41.136 168.197 41.496 167.717 42.192C167.237 42.888 166.997 43.776 166.997 44.832V51H164.405V38.712H166.709L166.997 40.56C167.333 39.984 167.789 39.552 168.365 39.216C168.917 38.88 169.661 38.712 170.621 38.712H171.197ZM189.835 39.888C190.675 40.752 191.107 42.144 191.107 44.064V51H188.515V44.088C188.515 43.032 188.299 42.216 187.867 41.64C187.435 41.088 186.787 40.8 185.947 40.8C185.035 40.8 184.339 41.136 183.811 41.76C183.283 42.384 183.043 43.248 183.043 44.352V51H180.427V44.088C180.427 43.008 180.187 42.192 179.755 41.64C179.323 41.088 178.675 40.8 177.835 40.8C176.947 40.8 176.251 41.136 175.723 41.784C175.195 42.456 174.955 43.32 174.955 44.424V51H172.363V38.712H174.619L174.907 40.32C175.771 39.168 176.971 38.592 178.507 38.568C179.371 38.568 180.115 38.76 180.787 39.12C181.435 39.504 181.939 40.056 182.299 40.8C182.731 40.104 183.283 39.552 184.003 39.168C184.699 38.784 185.539 38.568 186.547 38.568C187.891 38.568 188.971 39.024 189.835 39.888ZM204.736 48.744V51H203.368C202.552 51 201.976 50.832 201.64 50.496C201.28 50.16 201.112 49.68 201.112 49.032C200.176 50.448 198.832 51.144 197.056 51.144C195.664 51.144 194.56 50.832 193.744 50.184C192.904 49.56 192.496 48.672 192.496 47.544C192.496 46.296 192.928 45.312 193.84 44.64C194.728 43.968 196.024 43.608 197.752 43.608H200.848V42.864C200.848 42.192 200.608 41.64 200.128 41.256C199.648 40.872 198.976 40.656 198.136 40.656C197.368 40.656 196.744 40.824 196.264 41.16C195.784 41.496 195.496 41.928 195.4 42.456H192.856C192.976 41.232 193.528 40.272 194.488 39.6C195.448 38.928 196.696 38.568 198.256 38.568C199.888 38.568 201.16 38.952 202.072 39.72C202.96 40.488 203.416 41.592 203.416 43.032V47.88C203.416 48.456 203.68 48.744 204.232 48.744H204.736ZM200.848 45.528H197.632C196.816 45.528 196.216 45.696 195.784 46.008C195.352 46.32 195.136 46.776 195.136 47.376C195.136 47.904 195.328 48.336 195.736 48.648C196.144 48.984 196.696 49.128 197.416 49.128C198.472 49.128 199.312 48.84 199.912 48.264C200.512 47.688 200.824 46.92 200.848 45.96V45.528ZM205.668 34.2H208.26V51H205.668V34.2ZM225.462 49.944C224.454 50.76 223.182 51.144 221.646 51.144C220.422 51.144 219.342 50.904 218.43 50.376C217.494 49.848 216.774 49.104 216.27 48.144C215.766 47.184 215.526 46.08 215.526 44.832C215.526 43.584 215.766 42.504 216.294 41.544C216.798 40.608 217.518 39.888 218.454 39.36C219.39 38.832 220.47 38.568 221.718 38.568C223.254 38.568 224.502 38.976 225.486 39.792C226.446 40.608 227.07 41.688 227.31 43.08H224.646C224.454 42.384 224.118 41.832 223.59 41.4C223.062 40.992 222.414 40.776 221.646 40.776C220.59 40.776 219.75 41.16 219.126 41.904C218.502 42.672 218.19 43.632 218.19 44.832C218.19 46.056 218.502 47.04 219.126 47.808C219.75 48.576 220.59 48.936 221.646 48.936C222.438 48.936 223.11 48.744 223.638 48.312C224.166 47.88 224.502 47.304 224.67 46.584H227.31C227.07 48.024 226.446 49.128 225.462 49.944ZM229.928 38.712L233.36 48.192L236.696 38.712H239.456L233.888 52.92C233.6 53.664 233.336 54.24 233.096 54.624C232.856 55.008 232.544 55.32 232.208 55.512C231.848 55.704 231.368 55.8 230.792 55.8H228.008V53.52H229.832C230.312 53.52 230.672 53.448 230.864 53.304C231.056 53.16 231.248 52.8 231.464 52.272L231.968 51.096L227.168 38.712H229.928ZM249.299 49.944C248.291 50.76 247.019 51.144 245.483 51.144C244.259 51.144 243.179 50.904 242.267 50.376C241.331 49.848 240.611 49.104 240.107 48.144C239.603 47.184 239.363 46.08 239.363 44.832C239.363 43.584 239.603 42.504 240.131 41.544C240.635 40.608 241.355 39.888 242.291 39.36C243.227 38.832 244.307 38.568 245.555 38.568C247.091 38.568 248.339 38.976 249.323 39.792C250.283 40.608 250.907 41.688 251.147 43.08H248.483C248.291 42.384 247.955 41.832 247.427 41.4C246.899 40.992 246.251 40.776 245.483 40.776C244.427 40.776 243.587 41.16 242.963 41.904C242.339 42.672 242.027 43.632 242.027 44.832C242.027 46.056 242.339 47.04 242.963 47.808C243.587 48.576 244.427 48.936 245.483 48.936C246.275 48.936 246.947 48.744 247.475 48.312C248.003 47.88 248.339 47.304 248.507 46.584H251.147C250.907 48.024 250.283 49.128 249.299 49.944ZM252.745 34.2H255.337V51H252.745V34.2ZM259.822 34.248C260.11 34.536 260.278 34.92 260.278 35.352C260.278 35.808 260.11 36.192 259.822 36.48C259.51 36.768 259.126 36.912 258.694 36.912C258.238 36.912 257.854 36.768 257.566 36.48C257.254 36.192 257.11 35.808 257.11 35.352C257.11 34.92 257.254 34.536 257.566 34.248C257.854 33.96 258.238 33.792 258.694 33.792C259.126 33.792 259.51 33.96 259.822 34.248ZM257.398 38.712H259.99V51H257.398V38.712ZM272.082 39.912C272.994 40.824 273.474 42.264 273.474 44.232V51H270.858V44.376C270.858 43.224 270.594 42.336 270.114 41.712C269.61 41.112 268.89 40.8 267.93 40.8C266.898 40.8 266.082 41.16 265.506 41.88C264.93 42.6 264.642 43.56 264.642 44.808V51H262.05V38.712H264.306L264.594 40.32C265.506 39.168 266.826 38.568 268.53 38.568C269.97 38.568 271.17 39.024 272.082 39.912ZM287.28 38.712V50.496C287.28 52.224 286.752 53.568 285.744 54.528C284.712 55.488 283.128 55.944 280.992 55.944C279.312 55.944 277.968 55.584 276.936 54.84C275.88 54.096 275.304 53.04 275.208 51.672H277.848C277.992 52.368 278.376 52.896 278.952 53.28C279.528 53.664 280.272 53.832 281.184 53.832C283.536 53.832 284.712 52.704 284.712 50.4V49.032C283.8 50.376 282.48 51.048 280.704 51.048C279.576 51.048 278.568 50.808 277.704 50.304C276.816 49.8 276.12 49.08 275.64 48.144C275.136 47.208 274.896 46.104 274.896 44.808C274.896 43.584 275.136 42.504 275.64 41.544C276.144 40.608 276.84 39.888 277.728 39.36C278.592 38.832 279.6 38.568 280.704 38.568C281.616 38.568 282.432 38.76 283.104 39.12C283.776 39.504 284.304 40.008 284.736 40.632L285.024 38.712H287.28ZM283.728 47.76C284.376 47.016 284.712 46.056 284.712 44.856C284.712 43.656 284.376 42.672 283.728 41.904C283.056 41.136 282.192 40.752 281.136 40.752C280.056 40.752 279.192 41.136 278.544 41.88C277.872 42.648 277.56 43.608 277.56 44.808C277.56 46.008 277.872 46.992 278.544 47.736C279.192 48.504 280.056 48.864 281.136 48.864C282.192 48.864 283.056 48.504 283.728 47.76Z" fill="black"/>
</svg>
