<svg width="1406" height="247" viewBox="0 0 1406 247" fill="none" xmlns="http://www.w3.org/2000/svg">
<g clip-path="url(#clip0_494_70738)">
<path d="M136.063 171.45V192.025H123.719C114.666 192.025 108.357 190.379 104.516 186.538C100.676 182.972 98.4811 177.486 98.4811 170.353C87.5083 185.989 71.872 193.67 51.5723 193.67C35.936 193.67 23.3173 190.104 13.9904 182.698C4.66345 175.565 0 165.415 0 152.797C0 138.806 4.66345 128.108 14.2647 120.427C23.8659 113.02 37.8563 109.18 56.2357 109.18H97.3839V99.5784C97.3839 90.5258 94.092 83.3935 88.057 78.1814C82.0219 73.2436 73.518 70.5004 62.5451 70.5004C52.6696 70.5004 44.7143 72.695 38.4049 77.0841C32.0955 81.4733 28.255 86.9597 26.8834 94.092H4.38913C6.03506 80.376 12.0701 69.6775 22.4943 61.9965C32.9185 54.3155 46.6345 50.475 63.6424 50.475C81.4733 50.475 95.1893 54.8642 105.065 63.6424C114.94 72.4207 119.878 84.7651 119.878 100.95V161.301C119.878 168.159 122.896 171.45 129.205 171.45H136.063ZM97.3839 128.108H54.0412C33.1928 128.108 22.7686 136.063 22.7686 151.425C22.7686 158.557 25.5118 164.044 30.9982 168.159C36.4847 172.548 43.8913 174.468 53.2182 174.468C66.9343 174.468 77.6328 170.902 85.5881 163.769C93.269 156.637 97.3839 147.036 97.3839 134.966V128.108Z" fill="white"/>
<path d="M142.383 0H164.877V192.025H142.383V0Z" fill="white"/>
<path d="M289.786 58.979C299.935 64.7397 307.891 72.9693 313.651 83.6678C319.412 94.6406 322.43 107.259 322.43 122.073C322.43 136.337 319.412 148.682 313.651 159.38C307.891 170.353 299.935 178.583 289.786 184.618C279.361 190.653 267.84 193.67 255.221 193.67C243.7 193.67 234.098 191.75 226.143 187.635C217.914 183.521 211.604 177.76 207.215 170.627V246.889H184.721V52.1209H204.197L207.215 74.6152C218.736 58.7046 234.921 50.475 255.221 50.475C268.114 50.475 279.636 53.4926 289.786 58.979ZM286.494 159.38C294.998 149.779 299.387 137.435 299.387 122.073C299.387 106.985 294.998 94.6407 286.494 85.0394C277.99 75.4382 266.743 70.5004 253.027 70.5004C243.974 70.5004 236.019 72.695 228.886 77.0841C221.754 81.4733 216.542 87.5083 212.701 95.1893C208.861 102.87 206.941 111.649 206.941 121.524C206.941 131.674 208.861 140.727 212.701 148.682C216.542 156.637 221.754 162.672 228.886 167.061C236.019 171.45 243.974 173.645 253.027 173.645C266.743 173.645 277.99 168.982 286.494 159.38Z" fill="white"/>
<path d="M446.89 65.837C457.314 76.2612 462.526 92.1718 462.526 114.117V192.025H440.032V115.489C440.032 101.224 436.74 90.2515 430.156 82.5705C423.573 74.8896 413.971 71.0491 401.901 71.0491C388.734 71.0491 378.584 75.7125 370.903 84.7651C363.222 94.092 359.656 106.436 359.656 122.073V192.025H337.162V0H359.656V75.1639C364.045 68.0315 370.08 61.9965 377.761 57.333C385.442 52.9439 394.769 50.475 405.742 50.475C422.75 50.475 436.466 55.6871 446.89 65.837Z" fill="white"/>
<path d="M611.077 171.45V192.025H598.733C589.68 192.025 583.371 190.379 579.53 186.538C575.69 182.972 573.495 177.486 573.495 170.353C562.522 185.989 546.886 193.67 526.586 193.67C510.95 193.67 498.331 190.104 489.005 182.698C479.678 175.565 475.014 165.415 475.014 152.797C475.014 138.806 479.678 128.108 489.279 120.427C498.88 113.02 512.87 109.18 531.25 109.18H572.398V99.5784C572.398 90.5258 569.106 83.3935 563.071 78.1814C557.036 73.2436 548.532 70.5004 537.559 70.5004C527.684 70.5004 519.728 72.695 513.419 77.0841C507.11 81.4733 503.269 86.9597 501.898 94.092H479.403C481.049 80.376 487.084 69.6775 497.508 61.9965C507.933 54.3155 521.649 50.475 538.657 50.475C556.487 50.475 570.203 54.8642 580.079 63.6424C589.955 72.4207 594.892 84.7651 594.892 100.95V161.301C594.892 168.159 597.91 171.45 604.219 171.45H611.077ZM572.398 128.108H529.055C508.207 128.108 497.783 136.063 497.783 151.425C497.783 158.557 500.526 164.044 506.012 168.159C511.499 172.548 518.905 174.468 528.232 174.468C541.948 174.468 552.647 170.902 560.602 163.769C568.283 156.637 572.398 147.036 572.398 134.966V128.108Z" fill="white"/>
<path d="M726.851 65.837C737.276 76.2612 742.488 92.1718 742.488 114.117V192.025H719.993V115.489C719.993 101.224 716.701 90.2515 710.118 82.5705C703.534 74.8896 694.207 71.0491 682.137 71.0491C668.97 71.0491 658.545 75.7125 651.139 84.7651C643.458 94.092 639.892 106.436 639.892 122.073V192.025H617.397V52.1209H636.874L639.892 71.0491C650.316 57.333 665.678 50.475 685.978 50.475C702.985 50.475 716.427 55.6871 726.851 65.837Z" fill="white"/>
<path d="M763.486 84.4908C768.972 73.7923 776.928 65.5627 787.078 59.5276C796.953 53.4926 808.475 50.475 821.642 50.475C834.261 50.475 845.782 53.2182 855.658 58.4303C865.533 63.9167 873.214 71.5977 878.975 81.4733C884.461 91.6231 887.479 103.419 888.028 116.861C888.028 119.055 887.753 122.073 887.479 126.462H778.848V128.382C779.122 142.098 783.237 153.071 791.467 161.301C799.422 169.53 809.846 173.645 823.014 173.645C832.889 173.645 841.393 171.176 848.525 166.238C855.658 161.301 860.321 154.168 862.79 145.116H885.559C882.816 159.38 875.958 171.176 864.985 180.229C854.012 189.281 840.57 193.67 824.66 193.67C810.669 193.67 798.599 190.927 788.175 184.892C777.751 178.857 769.521 170.627 763.76 159.655C758 148.682 755.256 136.337 755.256 122.073C755.256 107.808 758 95.4636 763.486 84.4908ZM864.71 107.808C863.613 96.0123 858.95 86.6854 851.269 80.1017C843.588 73.518 833.712 70.2261 821.916 70.2261C811.218 70.2261 801.891 73.7923 793.936 80.6503C785.706 87.7826 781.317 96.8352 780.22 107.808H864.71Z" fill="white"/>
<path d="M963.545 0H986.039V192.025H963.545V0Z" fill="white"/>
<path d="M1136.73 171.45V192.025H1124.39C1115.34 192.025 1109.03 190.379 1105.19 186.538C1101.35 182.972 1099.15 177.486 1099.15 170.353C1088.18 185.989 1072.54 193.67 1052.24 193.67C1036.61 193.67 1023.99 190.104 1014.66 182.698C1005.33 175.565 1000.67 165.415 1000.67 152.797C1000.67 138.806 1005.33 128.108 1014.94 120.427C1024.54 113.02 1038.53 109.18 1056.91 109.18H1098.05V99.5784C1098.05 90.5258 1094.76 83.3935 1088.73 78.1814C1082.69 73.2436 1074.19 70.5004 1063.22 70.5004C1053.34 70.5004 1045.38 72.695 1039.08 77.0841C1032.77 81.4733 1028.93 86.9597 1027.55 94.092H1005.06C1006.71 80.376 1012.74 69.6775 1023.16 61.9965C1033.59 54.3155 1047.3 50.475 1064.31 50.475C1082.14 50.475 1095.86 54.8642 1105.74 63.6424C1115.61 72.4207 1120.55 84.7651 1120.55 100.95V161.301C1120.55 168.159 1123.57 171.45 1129.88 171.45H1136.73ZM1098.05 128.108H1054.71C1033.86 128.108 1023.44 136.063 1023.44 151.425C1023.44 158.557 1026.18 164.044 1031.67 168.159C1037.16 172.548 1044.56 174.468 1053.89 174.468C1067.6 174.468 1078.3 170.902 1086.26 163.769C1093.94 156.637 1098.05 147.036 1098.05 134.966V128.108Z" fill="white"/>
<path d="M1248.12 58.979C1258.27 64.7397 1266.22 72.9693 1271.98 83.6678C1277.75 94.6406 1280.76 107.259 1280.76 122.073C1280.76 136.337 1277.75 148.682 1271.98 159.38C1266.22 170.353 1258.27 178.583 1248.12 184.618C1237.69 190.653 1226.17 193.67 1213.55 193.67C1202.03 193.67 1192.43 191.75 1184.48 187.635C1176.25 183.521 1169.94 177.76 1165.55 170.627L1162.53 192.025H1143.05V0H1165.55V74.6152C1177.07 58.7046 1193.25 50.475 1213.55 50.475C1226.45 50.475 1237.97 53.4926 1248.12 58.979ZM1244.83 159.38C1253.33 149.779 1257.72 137.435 1257.72 122.073C1257.72 106.985 1253.33 94.6407 1244.83 85.0394C1236.32 75.4382 1225.08 70.5004 1211.36 70.5004C1202.31 70.5004 1194.35 72.695 1187.22 77.0841C1180.09 81.4733 1174.87 87.5083 1171.03 95.1893C1167.19 102.87 1165.27 111.649 1165.27 121.524C1165.27 131.674 1167.19 140.727 1171.03 148.682C1174.87 156.637 1180.09 162.672 1187.22 167.061C1194.35 171.45 1202.31 173.645 1211.36 173.645C1225.08 173.645 1236.32 168.982 1244.83 159.38Z" fill="white"/>
<path d="M1312.52 145.939C1312.79 154.443 1316.36 161.301 1323.49 166.513C1330.62 171.999 1339.67 174.468 1350.92 174.468C1360.8 174.468 1368.75 172.548 1374.79 168.707C1380.82 164.867 1384.11 159.655 1384.11 153.071C1384.11 147.585 1382.47 143.47 1379.72 140.452C1376.71 137.709 1372.87 135.514 1368.2 134.417C1363.54 133.32 1356.96 132.223 1348.45 131.125C1336.38 129.754 1326.51 127.833 1318.82 125.365C1311.14 123.17 1304.83 119.33 1300.17 114.117C1295.23 108.905 1293.04 101.773 1293.04 92.4461C1293.04 84.2165 1295.23 77.0841 1299.9 70.5004C1304.56 64.1911 1310.87 59.2533 1319.1 55.6871C1327.05 52.1209 1336.11 50.2007 1346.26 50.2007C1362.72 50.2007 1375.88 54.0412 1386.31 61.7222C1396.73 69.4031 1402.49 80.376 1403.59 94.6407H1381.1C1380 87.5083 1376.43 81.4733 1370.4 76.5355C1364.09 71.872 1356.41 69.4031 1347.08 69.4031C1337.48 69.4031 1329.8 71.5977 1324.04 75.4382C1318 79.2787 1315.26 84.4908 1315.26 90.8002C1315.26 95.7379 1316.63 99.3041 1319.37 101.773C1322.12 104.516 1325.41 106.162 1329.8 106.985C1334.19 108.082 1340.77 108.905 1349.55 110.003C1361.62 111.649 1371.77 113.569 1379.72 116.038C1387.68 118.781 1393.99 122.896 1398.93 128.382C1403.86 134.143 1406.33 141.824 1406.33 151.425C1406.33 159.929 1403.86 167.336 1398.93 173.645C1393.99 180.229 1387.13 185.166 1378.9 188.458C1370.4 192.025 1361.07 193.67 1350.92 193.67C1332.54 193.67 1317.73 189.556 1306.75 181.052C1295.78 172.822 1290.02 161.026 1290.02 145.939H1312.52Z" fill="white"/>
</g>
<defs>
<clipPath id="clip0_494_70738">
<rect width="1406" height="247" fill="white"/>
</clipPath>
</defs>
</svg>
